<?xml version="1.0" encoding="UTF-8" standalone="no"?>
<!-- Created with Inkscape (http://www.inkscape.org/) -->

<svg
   xmlns:dc="http://purl.org/dc/elements/1.1/"
   xmlns:cc="http://creativecommons.org/ns#"
   xmlns:rdf="http://www.w3.org/1999/02/22-rdf-syntax-ns#"
   xmlns:svg="http://www.w3.org/2000/svg"
   xmlns="http://www.w3.org/2000/svg"
   version="1.1"
   width="318"
   height="162"
   viewBox="0 0 318 162"
   id="svg2"
   xml:space="preserve"><metadata
     id="metadata154"><rdf:RDF><cc:Work
         rdf:about=""><dc:format>image/svg+xml</dc:format><dc:type
           rdf:resource="http://purl.org/dc/dcmitype/StillImage" /><dc:title></dc:title></cc:Work></rdf:RDF></metadata><defs
     id="defs152" /><g
     transform="translate(-43,77)"
     id="Miltary_Outreach"
     style="display:none"><rect
       width="157"
       height="26"
       x="41.5"
       y="30.5"
       id="rect5"
       style="fill:#e4e9d6;stroke:#3b3b3b;stroke-width:5;stroke-miterlimit:10;display:inline" /><circle
       cx="120.056"
       cy="42.5"
       r="40.5"
       id="circle7"
       style="fill:#3b3b3b;display:inline" /><polygon
       points="140.382,69.807 120.056,59.12 99.729,69.807 103.61,47.173 87.166,31.143 109.893,27.842 120.056,7.248 130.219,27.842 152.944,31.143 136.5,47.173 "
       id="polygon9"
       style="fill:#eece57;stroke:#e4e9d6;stroke-width:3;stroke-miterlimit:10;display:inline" /></g><g
     transform="translate(-43,77)"
     id="Academic_Success"
     style="display:none"><linearGradient
       x1="87"
       y1="52.799801"
       x2="159"
       y2="52.799801"
       id="SVGID_1_"
       gradientUnits="userSpaceOnUse"><stop
         id="stop13"
         style="stop-color:#333333;stop-opacity:1"
         offset="0" /><stop
         id="stop15"
         style="stop-color:#252525;stop-opacity:1"
         offset="1" /></linearGradient><path
       d="m 87,36 v 25 l 0,0 c 0,0 33,20 72,-1 V 36 H 87 z"
       id="path17"
       style="fill:url(#SVGID_1_);stroke:#e4e9d6;stroke-width:2;stroke-miterlimit:10;display:inline" /><linearGradient
       x1="65.397499"
       y1="29.1318"
       x2="181.5117"
       y2="29.1318"
       id="SVGID_2_"
       gradientUnits="userSpaceOnUse"><stop
         id="stop20"
         style="stop-color:#333333;stop-opacity:1"
         offset="0" /><stop
         id="stop22"
         style="stop-color:#252525;stop-opacity:1"
         offset="1" /></linearGradient><polygon
       points="123.652,4.5 65.397,26.764 123.652,53.764 181.512,26.764 "
       id="polygon24"
       style="fill:url(#SVGID_2_);stroke:#e4e9d6;stroke-width:1.5;stroke-miterlimit:10;display:inline" /><polygon
       points="122.332,27.693 157,40.004 157,80 153,80 153,42.848 120.886,31.492 "
       id="polygon26"
       style="fill:#eece57;display:inline" /><circle
       cx="154.744"
       cy="69.540001"
       r="4.8740001"
       id="circle28"
       style="fill:#eece57;display:inline" /><polygon
       points="155.021,76.293 160.626,86 149.417,86 "
       id="polygon30"
       style="fill:#eece57;display:inline" /></g><g
     transform="matrix(2,0,0,2,-86,-8)"
     id="GPC_College_Online"><rect
       width="123"
       height="18"
       x="61"
       y="4"
       id="rect33"
       style="fill:#e4e9d6" /><rect
       width="9"
       height="36"
       x="43"
       y="40"
       id="rect35"
       style="fill:#3b3b3b" /><rect
       width="9"
       height="36"
       x="193"
       y="40"
       id="rect37"
       style="fill:#3b3b3b" /><rect
       width="9"
       height="36"
       x="162"
       y="40"
       id="rect39"
       style="fill:#3b3b3b" /><rect
       width="9"
       height="36"
       x="132"
       y="40"
       id="rect41"
       style="fill:#3b3b3b" /><rect
       width="9"
       height="36"
       x="103"
       y="40"
       id="rect43"
       style="fill:#3b3b3b" /><rect
       width="9"
       height="36"
       x="76"
       y="40"
       id="rect45"
       style="fill:#3b3b3b" /><rect
       width="159"
       height="18"
       x="43"
       y="22"
       id="rect47"
       style="fill:#e4e9d6" /><rect
       width="159"
       height="4"
       x="43"
       y="22"
       id="rect49"
       style="fill:#eece57" /><rect
       width="123"
       height="4"
       x="61"
       y="4"
       id="rect51"
       style="fill:#bdccd4" /><rect
       width="159"
       height="9"
       x="43"
       y="76"
       id="rect53"
       style="fill:#e4e9d6" /></g><g
     transform="translate(-43,77)"
     id="Campus_Life"
     style="display:none"><circle
       cx="77.121002"
       cy="61.568001"
       r="20.306999"
       id="circle56"
       style="fill:none;stroke:#e4e9d6;stroke-width:3;stroke-miterlimit:10;display:inline" /><circle
       cx="77.121002"
       cy="61.568001"
       r="18.431999"
       id="circle58"
       style="fill:none;stroke:#bdccd4;stroke-width:2.72300005;stroke-miterlimit:10;display:inline" /><circle
       cx="158.121"
       cy="61.568001"
       r="18.431999"
       id="circle60"
       style="fill:none;stroke:#bdccd4;stroke-width:2.72300005;stroke-miterlimit:10;display:inline" /><circle
       cx="158.121"
       cy="61.568001"
       r="20.306999"
       id="circle62"
       style="fill:none;stroke:#e4e9d6;stroke-width:3;stroke-miterlimit:10;display:inline" /><polyline
       display="inline"
       stroke-miterlimit="10"
       points="76.853,61.437    106.9,20.938 99.5,12.566 107.122,7.5 118,7.5  "
       id="polyline64"
       style="fill:none;stroke:#eece57;stroke-width:3;stroke-miterlimit:10;display:inline" /><polyline
       display="inline"
       stroke-miterlimit="10"
       points="97.428,32.312    136.938,34.25 157.775,61  "
       id="polyline66"
       style="fill:none;stroke:#eece57;stroke-width:3;stroke-miterlimit:10;display:inline" /><polyline
       display="inline"
       stroke-miterlimit="10"
       points="158.122,60.937    126.278,66.512 92.515,38.134  "
       id="polyline68"
       style="fill:none;stroke:#eece57;stroke-width:3;stroke-miterlimit:10;display:inline" /><circle
       cx="77.121002"
       cy="60.937"
       r="4.6300001"
       id="circle70"
       style="fill:#3b3b3b;display:inline" /><circle
       cx="158.121"
       cy="60.937"
       r="4.6300001"
       id="circle72"
       style="fill:#3b3b3b;display:inline" /><polyline
       display="inline"
       stroke-miterlimit="10"
       points="125.231,66.875    138.438,33.875 146.126,23.938  "
       id="polyline74"
       style="fill:none;stroke:#eece57;stroke-width:3;stroke-miterlimit:10;display:inline" /><circle
       cx="125.121"
       cy="66.936996"
       r="4.6300001"
       id="circle76"
       style="fill:#e4e9d6;stroke:#3b3b3b;stroke-width:1.5;stroke-miterlimit:10;display:inline" /><path
       d="m 136.625,22.625 c -1.031,-0.938 13.375,0 13.375,0 v 2.977 c 0,0 -8.418,1.529 -13.375,-2.977 z"
       id="path78"
       style="fill:#e4e9d6;display:inline" /></g><g
     transform="translate(-43,77)"
     id="paying_for_college"
     style="display:none"><path
       d="M 181,74.125 C 181,76.154 179.687,78 177.66,78 H 65.079 C 63.051,78 61,76.153 61,74.125 V 14.163 C 61,12.135 63.051,10 65.079,10 H 177.66 c 2.026,0 3.34,2.135 3.34,4.163 v 59.962 z"
       id="path81"
       style="fill:#e4e9d6;display:inline" /><rect
       width="120"
       height="10"
       x="61"
       y="19"
       id="rect83"
       style="fill:#3b3b3b;display:inline" /><rect
       width="58"
       height="2"
       x="68"
       y="37"
       id="rect85"
       style="fill:#bdccd4;display:inline" /><rect
       width="21"
       height="16"
       x="130"
       y="37"
       id="rect87"
       style="fill:#bdccd4;display:inline" /><rect
       width="58"
       height="2"
       x="68"
       y="42"
       id="rect89"
       style="fill:#eece57;display:inline" /><rect
       width="58"
       height="2"
       x="68"
       y="46"
       id="rect91"
       style="fill:#bdccd4;display:inline" /><rect
       width="16"
       height="2"
       x="93"
       y="61"
       id="rect93"
       style="fill:#eece57;display:inline" /><rect
       width="16"
       height="3"
       x="93"
       y="68"
       id="rect95"
       style="fill:#bdccd4;display:inline" /><rect
       width="58"
       height="2"
       x="68"
       y="51"
       id="rect97"
       style="fill:#eece57;display:inline" /><path
       d="M 90,69.329 C 90,71.356 88.356,73 86.329,73 H 71.671 C 69.644,73 68,71.356 68,69.329 V 64.672 C 68,62.644 69.644,61 71.671,61 H 86.328 C 88.356,61 90,62.644 90,64.671 v 4.658 z"
       id="path99"
       style="fill:#bdccd4;display:inline" /></g><g
     transform="translate(-43,77)"
     id="tech_help"
     style="display:none"><path
       d="M 181,59.811 C 181,67.095 175.454,73 168.169,73 H 76.189 C 68.905,73 63,67.095 63,59.811 V 25.189 C 63,17.905 68.905,12 76.189,12 h 91.98 C 175.454,12 181,17.905 181,25.189 v 34.622 z"
       id="path102"
       style="fill:#e4e9d6;display:inline" /><rect
       width="72"
       height="49"
       x="87"
       y="19"
       id="rect104"
       style="fill:#eece57;display:inline" /><circle
       cx="171.435"
       cy="42.439999"
       r="5.862"
       id="circle106"
       style="fill:#eece57;display:inline" /><path
       d="M 78.502,26 C 79.648,26 79,26.706 79,27.484 V 57.488 C 79,58.267 79.648,59 78.502,59 H 78.256 C 77.11,59 76,58.267 76,57.488 V 27.484 C 76,26.706 77.11,26 78.256,26 h 0.246 z"
       id="path108"
       style="fill:#eece57;display:inline" /></g><g
     transform="translate(-43,77)"
     id="student_success"
     style="display:none"><path
       d="M 161,79.553 C 161,83.114 158.29,86 155.08,86 H 101.809 C 98.599,86 96,83.113 96,79.553 V 8.633 C 96,5.072 98.599,2 101.809,2 h 53.271 c 3.21,0 5.92,3.072 5.92,6.633 v 70.92 z"
       id="path111"
       style="fill:#252525;display:inline" /><path
       d="M 161,80.592 C 161,83.579 158.579,86 155.592,86 H 106.408 C 103.421,86 101,83.579 101,80.592 V 21.408 C 101,18.421 103.421,16 106.408,16 h 49.184 c 2.987,0 5.408,2.421 5.408,5.408 v 59.184 z"
       id="path113"
       style="fill:#3b3b3b;display:inline" /><path
       d="m 105.137,15.888 c 0.209,-0.025 0.56,0.112 0.777,0.112 h 49.57 C 158.47,16 161,18.122 161,21.108 V 80.592 C 161,83.578 158.471,86 155.484,86 H 105"
       id="path115"
       style="fill:#eece57;display:inline" /><path
       d="m 158.188,11.5 c 0,2.489 -1.926,4.5 -4.305,4.5 h -49.072 c -2.378,0 -4.305,-2.011 -4.305,-4.5 l 0,0 c 0,-2.489 1.927,-4.5 4.305,-4.5 h 49.072 c 2.379,0 4.305,2.011 4.305,4.5 l 0,0 z"
       id="path117"
       style="fill:#e4e9d6;display:inline" /><rect
       width="38"
       height="9"
       x="112"
       y="36"
       id="rect119"
       style="fill:#e4e9d6;display:inline" /><rect
       width="38"
       height="4"
       x="112"
       y="51"
       id="rect121"
       style="fill:#e4e9d6;display:inline" /><rect
       width="21"
       height="4"
       x="112"
       y="60"
       id="rect123"
       style="fill:#e4e9d6;display:inline" /><path
       d="M 130.699,50.851"
       id="path125"
       style="fill:#bdccd4;display:inline" /></g><g
     transform="translate(-43,77)"
     id="safety_x26_security"
     style="display:none"><path
       d="M 105,48 V 14.748 c 0,0 18,-18.435 36,0 V 48"
       id="path128"
       style="fill:none;stroke:#e4e9d6;stroke-width:8;stroke-miterlimit:10;display:inline" /><circle
       cx="122.202"
       cy="58.236"
       r="25.052999"
       id="circle130"
       style="fill:#3b3b3b;stroke:#eece57;stroke-width:4.7269001;stroke-miterlimit:10;display:inline" /><circle
       cx="122.202"
       cy="58.236"
       r="10.082"
       id="circle132"
       style="fill:#e4e9d6;display:inline" /><circle
       cx="121.75"
       cy="40.75"
       r="1.5829999"
       id="circle134"
       style="fill:#e4e9d6;display:inline" /><circle
       cx="121.75"
       cy="75.75"
       r="1.5829999"
       id="circle136"
       style="fill:#e4e9d6;display:inline" /><circle
       cx="139.25"
       cy="58.25"
       r="1.5829999"
       id="circle138"
       style="fill:#e4e9d6;display:inline" /><circle
       cx="104.25"
       cy="58.25"
       r="1.5829999"
       id="circle140"
       style="fill:#e4e9d6;display:inline" /><circle
       cx="134.12399"
       cy="45.875"
       r="1.584"
       id="circle142"
       style="fill:#e4e9d6;display:inline" /><circle
       cx="109.375"
       cy="70.624001"
       r="1.5829999"
       id="circle144"
       style="fill:#e4e9d6;display:inline" /><circle
       cx="109.376"
       cy="45.875"
       r="1.584"
       id="circle146"
       style="fill:#e4e9d6;display:inline" /><circle
       cx="134.125"
       cy="70.625"
       r="1.5829999"
       id="circle148"
       style="fill:#e4e9d6;display:inline" /></g></svg>