<?xml version="1.0" encoding="UTF-8" standalone="no"?>
<!-- Created with Inkscape (http://www.inkscape.org/) -->

<svg
   xmlns:dc="http://purl.org/dc/elements/1.1/"
   xmlns:cc="http://creativecommons.org/ns#"
   xmlns:rdf="http://www.w3.org/1999/02/22-rdf-syntax-ns#"
   xmlns:svg="http://www.w3.org/2000/svg"
   xmlns="http://www.w3.org/2000/svg"
   version="1.1"
   width="156"
   height="61.263184"
   id="svg2">
  <metadata
     id="metadata39">
    <rdf:RDF>
      <cc:Work
         rdf:about="">
        <dc:format>image/svg+xml</dc:format>
        <dc:type
           rdf:resource="http://purl.org/dc/dcmitype/StillImage" />
        <dc:title></dc:title>
      </cc:Work>
    </rdf:RDF>
  </metadata>
  <defs
     id="defs37" />
  <g
     transform="matrix(0.44777788,0,0,0.44777788,4.4777788e-7,-2.2670945)"
     id="g4"
     style="fill:#ffffff">
    <title
       id="title6">Layer 1</title>
    <g
       id="svg_1"
       style="fill:#ffffff">
      <path
         d="m 185.076,36.862 c -4.49298,1.975006 -8.14599,2.765015 -12.83599,2.765015 -10.32001,0 -17.92402,-7.209015 -17.92402,-17.085022 0,-9.924988 7.80201,-17.479004 18.07203,-17.479004 3.94998,0 6.71499,0.643005 11.99899,2.863007 l 0,4.890015 C 180.437,10.642 176.339,9.506013 172.29002,9.506013 c -7.30801,0 -12.98602,5.579987 -12.98602,12.888977 0,7.505005 5.629,12.787018 13.62802,12.787018 2.61698,0 4.987,-0.59201 7.30798,-1.333008 l 0,-6.911987 -6.46798,0 0,-4.346008 11.30697,0 0,14.270996 -0.003,0 z"
         id="svg_2"
         style="fill:#ffffff" />
      <path
         d="m 209.019,37.01001 c -2.66699,1.778015 -5.086,2.617004 -8.84,2.617004 -6.91199,0 -10.76401,-5.679016 -10.76401,-11.800995 0,-6.716003 4.24601,-11.259003 10.36902,-11.259003 5.875,0 9.629,4 9.629,12.195007 l -15.604,0 c 0.69,4.395996 3.20898,6.665985 7.45599,6.665985 2.66699,0 5.18601,-0.985992 7.75299,-2.665985 l 0.001,4.247986 0,0 z m -3.95099,-11.158997 c -0.14801,-3.355988 -2.07199,-5.479004 -5.18399,-5.479004 -3.358,0 -5.383,1.975006 -5.97702,5.479004 l 11.16101,0 z"
         id="svg_3"
         style="fill:#ffffff" />
      <path
         d="m 236.51701,27.875 c 0,7.011993 -4.889,11.752014 -11.99801,11.752014 -6.814,0 -11.70301,-4.938019 -11.70301,-11.752014 0,-6.368988 5.08603,-11.308014 11.70301,-11.308014 6.962,0 11.99801,4.741028 11.99801,11.308014 z m -19.207,0 c 0,4.69101 2.91199,7.802002 7.159,7.802002 4.642,0 7.55499,-2.963013 7.55499,-7.752014 0,-4.29599 -3.15899,-7.406982 -7.55499,-7.406982 -4.147,0 -7.159,3.110992 -7.159,7.356995 z"
         id="svg_4"
         style="fill:#ffffff" />
      <path
         d="m 245.10399,17.011993 0,5.085999 0.099,0 C 247.42699,18.199005 249.55,16.569 251.623,16.569 c 1.77698,0 3.457,0.839996 5.28301,2.566986 l -2.32003,3.803009 c -1.33398,-1.283997 -3.06198,-2.174011 -4.09799,-2.174011 -3.01401,0 -5.384,3.013 -5.384,6.813995 l 0,11.604004 -4.396,0 0,-22.17099 4.396,0 z"
         id="svg_5"
         style="fill:#ffffff" />
      <path
         d="m 277.14798,20.419006 -4.543,0 c 1.729,1.729004 2.32001,2.963013 2.32001,4.838989 0,1.827026 -1.03601,3.950012 -2.073,4.98703 -2.96301,3.159973 -8.98697,1.579987 -8.98697,4.196991 0,1.233002 2.32099,1.975006 6.76697,2.863007 4.73898,0.937988 6.41904,3.356995 6.41904,6.172974 0,4.39502 -3.901,7.061005 -10.46906,7.061005 -5.97595,0 -10.22198,-2.813995 -10.22198,-6.714996 0,-3.259003 1.72903,-5.186005 5.58001,-6.122986 -1.53003,-0.938019 -2.22302,-1.826996 -2.22302,-2.813995 0,-1.432007 1.38303,-2.666016 3.50604,-3.160034 l 0,-0.099 c -1.629,-0.690002 -2.86303,-1.630005 -3.70303,-2.812988 -0.79001,-1.136993 -1.185,-2.519989 -1.185,-4.147003 0,-4.73999 3.70303,-7.653992 9.67801,-7.653992 l 9.13498,0 0,3.404999 0,0 z m -11.60397,19.850006 c -2.96305,0 -5.03699,1.382996 -5.03699,3.356995 0,2.222015 2.17294,3.406006 6.17294,3.406006 3.85102,0 6.12204,-1.186005 6.12204,-3.209015 0,-2.812988 -4.54199,-3.553986 -7.25799,-3.553986 z m 1.13598,-19.455017 c -2.41998,0 -4.39596,1.825989 -4.39596,3.998993 0,2.420013 1.77701,4.049011 4.44296,4.049011 2.46899,0 4.24701,-1.729004 4.24701,-4.147003 0.002,-2.122986 -1.97498,-3.901001 -4.29401,-3.901001 z"
         id="svg_6"
         style="fill:#ffffff" />
      <path
         d="m 282.87,12.914001 c -1.43201,0 -2.61597,-1.186005 -2.61597,-2.617004 0,-1.431 1.18597,-2.617004 2.61597,-2.617004 1.43203,0 2.617,1.187012 2.617,2.617004 10e-4,1.431 -1.18402,2.617004 -2.617,2.617004 z m 2.17398,26.269012 -4.39597,0 0,-22.17099 4.39597,0 0,22.17099 z"
         id="svg_7"
         style="fill:#ffffff" />
      <path
         d="m 308.54498,37.89801 c -2.02398,1.334015 -2.863,1.729004 -4.24597,1.729004 -1.92602,0 -2.96298,-0.69101 -3.35699,-2.270996 -1.92603,1.529999 -3.95002,2.270996 -5.97602,2.270996 -3.25903,0 -5.432,-2.56601 -5.432,-5.432007 0,-4.395996 3.99902,-5.729004 7.55603,-7.013 l 3.89898,-1.381989 0,-1.186005 c 0,-2.765991 -1.33301,-3.899994 -3.99899,-3.899994 -2.42001,0 -4.88901,1.135986 -7.01199,3.652985 l 0,-4.789001 c 1.72894,-2.023987 4.14697,-3.013 7.35696,-3.013 4.49298,0 8.04804,2.270996 8.04804,7.309021 l 0,11.405975 c 0,0.83902 0.29696,1.13501 0.83999,1.13501 0.444,0 1.33295,-0.444 2.31995,-1.184998 l 0.002,2.667999 0,0 z m -7.55395,-9.677002 c -3.75299,1.283997 -7.012,2.567017 -7.012,5.186005 0,1.826996 1.33295,3.109985 3.15998,3.109985 1.38302,0 2.66702,-0.690002 3.85202,-1.825989 l 0,-6.470001 z"
         id="svg_8"
         style="fill:#ffffff" />
      <path
         d="m 165.81898,51.177002 c 7.357,0 10.715,4.346985 10.715,9.679993 0,5.282013 -3.55499,9.431 -11.35599,9.431 l -5.03702,0 0,14.56601 -4.83898,0 0,-33.677002 10.51699,0 z m -5.67797,14.764008 5.48098,0 c 3.60401,0 5.92502,-1.927002 5.92502,-5.283997 0,-2.468994 -1.33301,-5.13501 -5.728,-5.13501 l -5.678,0 0,10.419006 0,0 z"
         id="svg_9"
         style="fill:#ffffff" />
      <path
         d="m 196.429,82.679993 c -2.66602,1.777985 -5.086,2.617004 -8.83899,2.617004 -6.91302,0 -10.76401,-5.679016 -10.76401,-11.800995 0,-6.716003 4.24701,-11.259003 10.36899,-11.259003 5.87702,0 9.629,4 9.629,12.194977 l -15.603,0 c 0.69101,4.396027 3.20902,6.666016 7.457,6.666016 2.66602,0 5.185,-0.985992 7.75202,-2.666016 l -0.001,4.248016 0,0 z m -3.95001,-11.16098 c -0.147,-3.355988 -2.073,-5.479004 -5.185,-5.479004 -3.358,0 -5.38199,1.975006 -5.97601,5.479004 l 11.16101,0 z"
         id="svg_10"
         style="fill:#ffffff" />
      <path
         d="m 205.757,62.682007 0,5.085999 0.10001,0 c 2.22299,-3.898987 4.34601,-5.528992 6.418,-5.528992 1.77798,0 3.457,0.839996 5.284,2.566986 l -2.32099,3.803009 c -1.332,-1.283997 -3.061,-2.174011 -4.09802,-2.174011 -3.01199,0 -5.383,3.013 -5.383,6.814026 l 0,11.603973 -4.39499,0 0,-22.171997 4.39499,0 0,0.001 z"
         id="svg_11"
         style="fill:#ffffff" />
      <path
         d="m 222.938,58.584015 c -1.43301,0 -2.61599,-1.186005 -2.61599,-2.617004 0,-1.431 1.185,-2.617004 2.61599,-2.617004 1.43299,0 2.616,1.187012 2.616,2.617004 0,1.431 -1.18399,2.617004 -2.616,2.617004 z m 2.17301,26.268982 -4.39499,0 0,-22.171997 4.39499,0 0,22.171997 z"
         id="svg_12"
         style="fill:#ffffff" />
      <path
         d="m 235.62401,62.682007 0,2.914001 c 2.27099,-2.270996 4.39599,-3.356995 6.47,-3.356995 2.81299,0 5.13501,1.382996 6.616,4 1.92599,-2.173004 4.246,-4 7.40599,-4 4.49301,0 7.35601,3.457001 7.35601,8.688995 l 0,13.925995 -4.39599,0 0,-13.727997 c 0,-3.358002 -2.07199,-5.184998 -4.59203,-5.184998 -1.43197,-0.051 -3.35699,1.184998 -4.93799,2.812988 l 0,16.097015 -4.39498,0 0,-13.774994 c 0,-3.604004 -1.82801,-5.13501 -4,-5.13501 -2.22303,0 -3.70301,0.688995 -5.53101,2.812988 l 0,16.097015 -4.39499,0 0,-22.17099 4.39899,0.002 0,0 z"
         id="svg_13"
         style="fill:#ffffff" />
      <path
         d="m 287.26797,82.679993 c -2.66601,1.777985 -5.08596,2.617004 -8.83798,2.617004 -6.91302,0 -10.76501,-5.679016 -10.76501,-11.800995 0,-6.716003 4.24603,-11.259003 10.36801,-11.259003 5.87601,0 9.629,4 9.629,12.194977 l -15.60401,0 c 0.69004,4.396027 3.20999,6.666016 7.456,6.666016 2.66601,0 5.185,-0.985992 7.75201,-2.666016 l 0.002,4.248016 0,0 z m -3.94998,-11.16098 c -0.14596,-3.355988 -2.07196,-5.479004 -5.185,-5.479004 -3.35699,0 -5.38195,1.975006 -5.97601,5.479004 l 11.16101,0 z"
         id="svg_14"
         style="fill:#ffffff" />
      <path
         d="m 297.53598,62.682007 7.01303,0 0,3.950012 -7.01303,0 0,11.356995 c 0,2.617004 1.87601,3.355988 3.16003,3.355988 1.57996,0 3.20999,-0.542999 4.98697,-1.628998 l 0,4.098999 c -1.531,0.839996 -3.901,1.480011 -5.33301,1.480011 -4.78997,0 -7.20895,-2.963013 -7.20895,-6.962006 l 0,-11.703003 -3.85205,0 0,-0.492981 8.24503,-8.049011 0.002,4.593994 0,0 z"
         id="svg_15"
         style="fill:#ffffff" />
      <path
         d="m 327.35602,82.679993 c -2.66605,1.777985 -5.086,2.617004 -8.83801,2.617004 -6.91303,0 -10.76502,-5.679016 -10.76502,-11.800995 0,-6.716003 4.24603,-11.259003 10.36902,-11.259003 5.87601,0 9.62897,4 9.62897,12.194977 l -15.603,0 c 0.69101,4.396027 3.20999,6.666016 7.45602,6.666016 2.66602,0 5.18598,-0.985992 7.75202,-2.666016 l 0,4.248016 z m -3.95001,-11.16098 c -0.146,-3.355988 -2.07203,-5.479004 -5.185,-5.479004 -3.357,0 -5.38202,1.975006 -5.97602,5.479004 l 11.16102,0 z"
         id="svg_16"
         style="fill:#ffffff" />
      <path
         d="m 336.586,62.682007 0,5.085999 0.099,0 c 2.22204,-3.898987 4.34601,-5.528992 6.419,-5.528992 1.77701,0 3.456,0.839996 5.28302,2.566986 l -2.32,3.803009 c -1.33298,-1.283997 -3.06198,-2.174011 -4.09897,-2.174011 -3.01206,0 -5.38205,3.013 -5.38205,6.814026 l 0,11.603973 -4.396,0 0,-22.171997 4.396,0 0,0.001 z"
         id="svg_17"
         style="fill:#ffffff" />
      <path
         d="m 184.23698,104.353 c -4.147,-2.42099 -7.703,-3.50699 -11.604,-3.50699 -7.703,0 -13.431,5.47998 -13.431,12.88901 0,7.55499 5.53,12.78799 13.62802,12.78799 3.802,0 7.94998,-1.33301 11.75098,-3.80301 l 0,5.28299 c -3.30899,1.729 -6.913,2.96301 -12.19498,2.96301 -12.64102,0 -18.17102,-9.72799 -18.17102,-16.78799 0,-10.271 7.75201,-17.774994 18.46701,-17.774994 3.457,0 6.96201,0.839996 11.55399,2.765991 l 0,5.185003 10e-4,0 0,-0.001 z"
         id="svg_18"
         style="fill:#ffffff" />
      <path
         d="m 211.28999,119.215 c 0,7.01199 -4.89001,11.75201 -12,11.75201 -6.81201,0 -11.70102,-4.93802 -11.70102,-11.75201 0,-6.36899 5.08603,-11.30799 11.70102,-11.30799 6.96302,0 12,4.73999 12,11.30799 z m -19.20898,0 c 0,4.69101 2.914,7.802 7.16,7.802 4.64301,0 7.555,-2.96302 7.555,-7.75199 0,-4.29602 -3.16001,-7.406 -7.555,-7.406 -4.147,-0.002 -7.16,3.10998 -7.16,7.35599 z"
         id="svg_19"
         style="fill:#ffffff" />
      <path
         d="m 219.92601,130.522 -4.396,0 0,-33.674985 4.396,0 0,33.674985 z"
         id="svg_20"
         style="fill:#ffffff" />
      <path
         d="m 230.73799,130.522 -4.39499,0 0,-33.674985 4.39499,0 0,33.674985 z"
         id="svg_21"
         style="fill:#ffffff" />
      <path
         d="m 254.68401,128.35001 c -2.66599,1.77801 -5.086,2.617 -8.83799,2.617 -6.91302,0 -10.76501,-5.67899 -10.76501,-11.80099 0,-6.71601 4.246,-11.25901 10.36899,-11.25901 5.875,0 9.62899,4 9.62899,12.19599 l -15.60397,0 c 0.69,4.39502 3.20999,6.66601 7.456,6.66601 2.66598,0 5.186,-0.987 7.75198,-2.66601 l 0.001,4.247 0,0 z M 250.73399,117.19 c -0.14599,-3.35699 -2.07199,-5.48001 -5.18499,-5.48001 -3.357,0 -5.38202,1.97501 -5.97599,5.48001 l 11.16098,0 z"
         id="svg_22"
         style="fill:#ffffff" />
      <path
         d="m 277.49298,111.759 -4.54199,0 c 1.729,1.72901 2.32004,2.96302 2.32004,4.83899 0,1.827 -1.03702,3.95001 -2.07404,4.987 -2.96298,3.16001 -8.98599,1.58002 -8.98599,4.19702 0,1.23301 2.31998,1.97498 6.76602,2.86399 4.73996,0.93801 6.41901,3.35601 6.41901,6.17199 0,4.39502 -3.90103,7.06101 -10.46903,7.06101 -5.97601,0 -10.22198,-2.81299 -10.22198,-6.715 0,-3.259 1.729,-5.185 5.57995,-6.12298 -1.53094,-0.93802 -2.22299,-1.82703 -2.22299,-2.81403 0,-1.43198 1.38303,-2.66498 3.50601,-3.159 l 0,-0.1 c -1.62896,-0.68998 -2.86297,-1.62998 -3.70297,-2.81299 -0.789,-1.13699 -1.186,-2.51999 -1.186,-4.147 0,-4.73999 3.70401,-7.65299 9.67895,-7.65299 l 9.13501,0 0,3.40399 0,0 z m -11.604,19.849 c -2.96302,0 -5.03702,1.383 -5.03702,3.357 0,2.22299 2.17303,3.406 6.17303,3.406 3.85199,0 6.12198,-1.185 6.12198,-3.20901 0,-2.81198 -4.54199,-3.55399 -7.25799,-3.55399 z m 1.13604,-19.45401 c -2.42004,0 -4.39498,1.827 -4.39498,3.999 0,2.42001 1.77697,4.04901 4.44299,4.04901 2.46896,0 4.246,-1.72901 4.246,-4.14701 9.8e-4,-2.12298 -1.97406,-3.901 -4.29401,-3.901 z"
         id="svg_23"
         style="fill:#ffffff" />
      <path
         d="m 299.16498,128.35001 c -2.66602,1.77801 -5.08597,2.617 -8.83899,2.617 -6.91202,0 -10.76502,-5.67899 -10.76502,-11.80099 0,-6.71601 4.24601,-11.25901 10.36899,-11.25901 5.87601,0 9.629,4 9.629,12.19599 l -15.60394,0 c 0.68994,4.39502 3.20996,6.66601 7.45495,6.66601 2.66602,0 5.18604,-0.987 7.75202,-2.66601 l 0,4.246 0.003,0 0,0.001 z M 295.21503,117.19 c -0.14701,-3.35699 -2.073,-5.48001 -5.18601,-5.48001 -3.35599,0 -5.38199,1.97501 -5.975,5.48001 l 11.16101,0 z"
         id="svg_24"
         style="fill:#ffffff" />
    </g>
    <g
       id="svg_25"
       style="fill:#ffffff">
      <rect
         width="7.1160002"
         height="124.523"
         x="-1e-06"
         y="5.9160008"
         id="svg_26"
         style="fill:#ffffff" />
      <path
         d="m 15.455994,115.84399 0,-26.354 C 24.277985,70.29898 35.967987,53.574005 55.809998,36.246002 89.164002,7.122986 122.59799,0 132.76801,14.437988 144.563,31.218994 128.783,67.207 95.428986,96.315979 62.074982,125.44098 29.645996,133.61499 16.751984,117.66598 16.279999,117.09 15.848999,116.48001 15.455994,115.84399 l 0,0 m 16.194,14.595 -16.193008,0 0,-13.14001 c 0.923996,1.80801 2.024002,3.49402 3.236008,5.008 3.256012,4.00701 7.672012,6.70501 12.957001,8.13201 l 0,0 M 139.968,61.816009 l 0,68.623011 -86.536008,0 C 70.714997,126.94501 91.229004,116.242 110.31999,99.574004 122.64999,88.812011 132.704,75.463012 139.968,61.816008 l 0,0 M 15.455993,5.916014 l 72.233002,0 C 76.86,12.660002 65.712997,21.080015 55.056991,30.374998 35.039001,47.854002 21.212982,69.205015 15.455993,87.248014 l 0,-81.332001 0,0 z"
         id="svg_27"
         style="fill:#ffffff" />
    </g>
  </g>
</svg>
