<svg width="348" height="142" xmlns="http://www.w3.org/2000/svg">
 <g>
  <title>Layer 1</title>
  <g id="svg_1">
   <path id="svg_2" d="m185.076004,36.862c-4.492981,1.975006 -8.145996,2.765015 -12.835999,2.765015c-10.320007,0 -17.924011,-7.209015 -17.924011,-17.085022c0,-9.924988 7.802002,-17.479004 18.072021,-17.479004c3.949982,0 6.714996,0.643005 11.998993,2.863007l0,4.890015c-3.950012,-2.174011 -8.048004,-3.309998 -12.096985,-3.309998c-7.308014,0 -12.986023,5.579987 -12.986023,12.888977c0,7.505005 5.628998,12.787018 13.628021,12.787018c2.616974,0 4.987,-0.59201 7.307983,-1.333008l0,-6.911987l-6.467987,0l0,-4.346008l11.306976,0l0,14.270996l-0.002991,0z" fill="#FFFFFF"/>
   <path id="svg_3" d="m209.018997,37.01001c-2.666992,1.778015 -5.085999,2.617004 -8.839996,2.617004c-6.911987,0 -10.764008,-5.679016 -10.764008,-11.800995c0,-6.716003 4.246002,-11.259003 10.369019,-11.259003c5.875,0 9.628998,4 9.628998,12.195007l-15.604004,0c0.690002,4.395996 3.208984,6.665985 7.455994,6.665985c2.666992,0 5.186005,-0.985992 7.752991,-2.665985l0.001007,4.247986l0,0zm-3.950989,-11.158997c-0.14801,-3.355988 -2.071991,-5.479004 -5.18399,-5.479004c-3.358002,0 -5.382996,1.975006 -5.97702,5.479004l11.161011,0z" fill="#FFFFFF"/>
   <path id="svg_4" d="m236.517014,27.875c0,7.011993 -4.889008,11.752014 -11.998016,11.752014c-6.813995,0 -11.703003,-4.938019 -11.703003,-11.752014c0,-6.368988 5.086029,-11.308014 11.703003,-11.308014c6.962006,0 11.998016,4.741028 11.998016,11.308014zm-19.207001,0c0,4.69101 2.911987,7.802002 7.158997,7.802002c4.641998,0 7.554993,-2.963013 7.554993,-7.752014c0,-4.29599 -3.158997,-7.406982 -7.554993,-7.406982c-4.147003,0 -7.158997,3.110992 -7.158997,7.356995z" fill="#FFFFFF"/>
   <path id="svg_5" d="m245.103989,17.011993l0,5.085999l0.098999,0c2.223999,-3.898987 4.347015,-5.528992 6.420013,-5.528992c1.776978,0 3.457001,0.839996 5.283005,2.566986l-2.320023,3.803009c-1.333984,-1.283997 -3.061981,-2.174011 -4.097992,-2.174011c-3.014008,0 -5.384003,3.013 -5.384003,6.813995l0,11.604004l-4.395996,0l0,-22.17099l4.395996,0z" fill="#FFFFFF"/>
   <path id="svg_6" d="m277.14798,20.419006l-4.542999,0c1.729004,1.729004 2.320007,2.963013 2.320007,4.838989c0,1.827026 -1.036011,3.950012 -2.072998,4.98703c-2.963013,3.159973 -8.986969,1.579987 -8.986969,4.196991c0,1.233002 2.320984,1.975006 6.766968,2.863007c4.738983,0.937988 6.419037,3.356995 6.419037,6.172974c0,4.39502 -3.901001,7.061005 -10.469055,7.061005c-5.975952,0 -10.221985,-2.813995 -10.221985,-6.714996c0,-3.259003 1.729034,-5.186005 5.580017,-6.122986c-1.530029,-0.938019 -2.223022,-1.826996 -2.223022,-2.813995c0,-1.432007 1.383026,-2.666016 3.506042,-3.160034l0,-0.098999c-1.628998,-0.690002 -2.863037,-1.630005 -3.703033,-2.812988c-0.790009,-1.136993 -1.184998,-2.519989 -1.184998,-4.147003c0,-4.73999 3.703033,-7.653992 9.678009,-7.653992l9.134979,0l0,3.404999l0,0zm-11.603973,19.850006c-2.963043,0 -5.036987,1.382996 -5.036987,3.356995c0,2.222015 2.172943,3.406006 6.172943,3.406006c3.851013,0 6.12204,-1.186005 6.12204,-3.209015c0,-2.812988 -4.541992,-3.553986 -7.257996,-3.553986zm1.135986,-19.455017c-2.419983,0 -4.395966,1.825989 -4.395966,3.998993c0,2.420013 1.777008,4.049011 4.442963,4.049011c2.468994,0 4.247009,-1.729004 4.247009,-4.147003c0.001984,-2.122986 -1.974976,-3.901001 -4.294006,-3.901001z" fill="#FFFFFF"/>
   <path id="svg_7" d="m282.869995,12.914001c-1.432007,0 -2.615967,-1.186005 -2.615967,-2.617004c0,-1.431 1.185974,-2.617004 2.615967,-2.617004c1.432037,0 2.617004,1.187012 2.617004,2.617004c0.001007,1.431 -1.184021,2.617004 -2.617004,2.617004zm2.173981,26.269012l-4.395966,0l0,-22.17099l4.395966,0l0,22.17099z" fill="#FFFFFF"/>
   <path id="svg_8" d="m308.544983,37.89801c-2.023987,1.334015 -2.863007,1.729004 -4.245972,1.729004c-1.926025,0 -2.962982,-0.69101 -3.356995,-2.270996c-1.926025,1.529999 -3.950012,2.270996 -5.976013,2.270996c-3.259033,0 -5.432007,-2.56601 -5.432007,-5.432007c0,-4.395996 3.999023,-5.729004 7.55603,-7.013l3.898987,-1.381989l0,-1.186005c0,-2.765991 -1.333008,-3.899994 -3.998993,-3.899994c-2.420013,0 -4.889008,1.135986 -7.011993,3.652985l0,-4.789001c1.728943,-2.023987 4.146973,-3.013 7.356964,-3.013c4.492981,0 8.048035,2.270996 8.048035,7.309021l0,11.405975c0,0.83902 0.296967,1.13501 0.839996,1.13501c0.444,0 1.332947,-0.444 2.319946,-1.184998l0.002014,2.667999l0,0zm-7.553955,-9.677002c-3.752991,1.283997 -7.011993,2.567017 -7.011993,5.186005c0,1.826996 1.332947,3.109985 3.159973,3.109985c1.383026,0 2.667023,-0.690002 3.85202,-1.825989l0,-6.470001z" fill="#FFFFFF"/>
   <path id="svg_9" d="m165.818985,51.177002c7.356995,0 10.714996,4.346985 10.714996,9.679993c0,5.282013 -3.554993,9.431 -11.355988,9.431l-5.037018,0l0,14.56601l-4.838989,0l0,-33.677002l10.516998,0zm-5.677979,14.764008l5.480988,0c3.604004,0 5.925018,-1.927002 5.925018,-5.283997c0,-2.468994 -1.333008,-5.13501 -5.727997,-5.13501l-5.678009,0l0,10.419006l0,0z" fill="#FFFFFF"/>
   <path id="svg_10" d="m196.429001,82.679993c-2.666016,1.777985 -5.085999,2.617004 -8.838989,2.617004c-6.913025,0 -10.764008,-5.679016 -10.764008,-11.800995c0,-6.716003 4.247009,-11.259003 10.368988,-11.259003c5.877014,0 9.628998,4 9.628998,12.194977l-15.602997,0c0.69101,4.396027 3.209015,6.666016 7.457001,6.666016c2.666016,0 5.184998,-0.985992 7.752014,-2.666016l-0.001007,4.248016l0,0zm-3.950012,-11.16098c-0.147003,-3.355988 -2.072998,-5.479004 -5.184998,-5.479004c-3.358002,0 -5.381989,1.975006 -5.976013,5.479004l11.161011,0z" fill="#FFFFFF"/>
   <path id="svg_11" d="m205.757004,62.682007l0,5.085999l0.100006,0c2.222992,-3.898987 4.346008,-5.528992 6.417999,-5.528992c1.777985,0 3.457001,0.839996 5.283997,2.566986l-2.320984,3.803009c-1.332001,-1.283997 -3.061005,-2.174011 -4.098022,-2.174011c-3.011993,0 -5.382996,3.013 -5.382996,6.814026l0,11.603973l-4.394989,0l0,-22.171997l4.394989,0l0,0.001007z" fill="#FFFFFF"/>
   <path id="svg_12" d="m222.938004,58.584015c-1.433014,0 -2.615997,-1.186005 -2.615997,-2.617004c0,-1.431 1.184998,-2.617004 2.615997,-2.617004c1.432983,0 2.615997,1.187012 2.615997,2.617004c0,1.431 -1.18399,2.617004 -2.615997,2.617004zm2.173004,26.268982l-4.394989,0l0,-22.171997l4.394989,0l0,22.171997z" fill="#FFFFFF"/>
   <path id="svg_13" d="m235.624008,62.682007l0,2.914001c2.270996,-2.270996 4.395996,-3.356995 6.470001,-3.356995c2.812988,0 5.13501,1.382996 6.615997,4c1.925995,-2.173004 4.246002,-4 7.405991,-4c4.493011,0 7.356018,3.457001 7.356018,8.688995l0,13.925995l-4.395996,0l0,-13.727997c0,-3.358002 -2.071991,-5.184998 -4.592026,-5.184998c-1.431976,-0.050995 -3.356995,1.184998 -4.937988,2.812988l0,16.097015l-4.394989,0l0,-13.774994c0,-3.604004 -1.828003,-5.13501 -4,-5.13501c-2.223022,0 -3.703003,0.688995 -5.531006,2.812988l0,16.097015l-4.394989,0l0,-22.17099l4.398987,0.001984l0,0z" fill="#FFFFFF"/>
   <path id="svg_14" d="m287.267975,82.679993c-2.666016,1.777985 -5.085968,2.617004 -8.837982,2.617004c-6.913025,0 -10.765015,-5.679016 -10.765015,-11.800995c0,-6.716003 4.246033,-11.259003 10.368011,-11.259003c5.876007,0 9.628998,4 9.628998,12.194977l-15.604004,0c0.690033,4.396027 3.209991,6.666016 7.455994,6.666016c2.666016,0 5.184998,-0.985992 7.752014,-2.666016l0.001984,4.248016l0,0zm-3.949982,-11.16098c-0.145966,-3.355988 -2.07196,-5.479004 -5.184998,-5.479004c-3.356995,0 -5.381958,1.975006 -5.976013,5.479004l11.161011,0z" fill="#FFFFFF"/>
   <path id="svg_15" d="m297.53598,62.682007l7.013031,0l0,3.950012l-7.013031,0l0,11.356995c0,2.617004 1.876007,3.355988 3.160034,3.355988c1.579956,0 3.209991,-0.542999 4.986969,-1.628998l0,4.098999c-1.531006,0.839996 -3.901001,1.480011 -5.333008,1.480011c-4.789978,0 -7.208954,-2.963013 -7.208954,-6.962006l0,-11.703003l-3.852051,0l0,-0.492981l8.245026,-8.049011l0.001984,4.593994l0,0z" fill="#FFFFFF"/>
   <path id="svg_16" d="m327.356018,82.679993c-2.666046,1.777985 -5.085999,2.617004 -8.838013,2.617004c-6.913025,0 -10.765015,-5.679016 -10.765015,-11.800995c0,-6.716003 4.246033,-11.259003 10.369019,-11.259003c5.876007,0 9.628967,4 9.628967,12.194977l-15.602997,0c0.69101,4.396027 3.209991,6.666016 7.456024,6.666016c2.666016,0 5.185974,-0.985992 7.752014,-2.666016l0,4.248016zm-3.950012,-11.16098c-0.145996,-3.355988 -2.072021,-5.479004 -5.184998,-5.479004c-3.356995,0 -5.382019,1.975006 -5.976013,5.479004l11.161011,0z" fill="#FFFFFF"/>
   <path id="svg_17" d="m336.585999,62.682007l0,5.085999l0.098999,0c2.222046,-3.898987 4.346008,-5.528992 6.419006,-5.528992c1.777008,0 3.455994,0.839996 5.28302,2.566986l-2.320007,3.803009c-1.332977,-1.283997 -3.061981,-2.174011 -4.098969,-2.174011c-3.012054,0 -5.38205,3.013 -5.38205,6.814026l0,11.603973l-4.395996,0l0,-22.171997l4.395996,0l0,0.001007z" fill="#FFFFFF"/>
   <path id="svg_18" d="m184.236984,104.352997c-4.147003,-2.42099 -7.703003,-3.506989 -11.604004,-3.506989c-7.703003,0 -13.431,5.47998 -13.431,12.889008c0,7.554993 5.529999,12.787994 13.628021,12.787994c3.802002,0 7.949982,-1.333008 11.750977,-3.803009l0,5.28299c-3.30899,1.729004 -6.912994,2.963013 -12.194977,2.963013c-12.641022,0 -18.171021,-9.727997 -18.171021,-16.787994c0,-10.270996 7.752014,-17.774994 18.46701,-17.774994c3.457001,0 6.962006,0.839996 11.553986,2.765991l0,5.184998l0.001007,0l0,-0.001007z" fill="#FFFFFF"/>
   <path id="svg_19" d="m211.289993,119.214996c0,7.011993 -4.890015,11.752014 -12,11.752014c-6.812012,0 -11.701019,-4.938019 -11.701019,-11.752014c0,-6.368988 5.086029,-11.307983 11.701019,-11.307983c6.963013,0 12,4.73999 12,11.307983zm-19.208984,0c0,4.69101 2.914001,7.802002 7.160004,7.802002c4.643005,0 7.554993,-2.963013 7.554993,-7.751984c0,-4.296021 -3.160004,-7.406006 -7.554993,-7.406006c-4.147003,-0.002014 -7.160004,3.109985 -7.160004,7.355988z" fill="#FFFFFF"/>
   <path id="svg_20" d="m219.92601,130.522003l-4.395996,0l0,-33.674988l4.395996,0l0,33.674988z" fill="#FFFFFF"/>
   <path id="svg_21" d="m230.737991,130.522003l-4.394989,0l0,-33.674988l4.394989,0l0,33.674988z" fill="#FFFFFF"/>
   <path id="svg_22" d="m254.684006,128.350006c-2.665985,1.778015 -5.085999,2.617004 -8.837982,2.617004c-6.913025,0 -10.765015,-5.678986 -10.765015,-11.800995c0,-6.716003 4.246002,-11.259003 10.368988,-11.259003c5.875,0 9.628998,4 9.628998,12.195984l-15.603973,0c0.690002,4.39502 3.209991,6.666016 7.455994,6.666016c2.665985,0 5.186005,-0.987 7.751984,-2.666016l0.001007,4.247009l0,0zm-3.950012,-11.160004c-0.145996,-3.356995 -2.071991,-5.480011 -5.184998,-5.480011c-3.356995,0 -5.382019,1.975006 -5.975983,5.480011l11.16098,0z" fill="#FFFFFF"/>
   <path id="svg_23" d="m277.492981,111.759003l-4.541992,0c1.729004,1.729004 2.320038,2.963013 2.320038,4.838989c0,1.826996 -1.037018,3.950012 -2.074036,4.987c-2.962982,3.160004 -8.985992,1.580017 -8.985992,4.197021c0,1.233002 2.319977,1.974976 6.766022,2.863983c4.73996,0.938019 6.419006,3.356018 6.419006,6.171997c0,4.39502 -3.901031,7.061005 -10.469025,7.061005c-5.976013,0 -10.221985,-2.812988 -10.221985,-6.714996c0,-3.259003 1.729004,-5.184998 5.579956,-6.122986c-1.530945,-0.938019 -2.222992,-1.827026 -2.222992,-2.814026c0,-1.431976 1.383026,-2.664978 3.506012,-3.158997l0,-0.100006c-1.628967,-0.689972 -2.862976,-1.629974 -3.702972,-2.812988c-0.789001,-1.136993 -1.186005,-2.519989 -1.186005,-4.147003c0,-4.73999 3.70401,-7.652985 9.678955,-7.652985l9.13501,0l0,3.403992l0,0zm-11.604004,19.848999c-2.963013,0 -5.037018,1.382996 -5.037018,3.356995c0,2.222992 2.173035,3.406006 6.173035,3.406006c3.85199,0 6.121979,-1.184998 6.121979,-3.209015c0,-2.811981 -4.541992,-3.553986 -7.257996,-3.553986zm1.136047,-19.45401c-2.420044,0 -4.394989,1.826996 -4.394989,3.998993c0,2.420013 1.776978,4.049011 4.442993,4.049011c2.468964,0 4.246002,-1.729004 4.246002,-4.147003c0.000977,-2.122986 -1.97406,-3.901001 -4.294006,-3.901001z" fill="#FFFFFF"/>
   <path id="svg_24" d="m299.164978,128.350006c-2.666016,1.778015 -5.085968,2.617004 -8.838989,2.617004c-6.912018,0 -10.765015,-5.678986 -10.765015,-11.800995c0,-6.716003 4.246002,-11.259003 10.368988,-11.259003c5.876007,0 9.628998,4 9.628998,12.195984l-15.603943,0c0.689941,4.39502 3.209961,6.666016 7.454956,6.666016c2.666016,0 5.186035,-0.987 7.752014,-2.666016l0,4.246002l0.002991,0l0,0.001007zm-3.949951,-11.160004c-0.147003,-3.356995 -2.072998,-5.480011 -5.186005,-5.480011c-3.355988,0 -5.381989,1.975006 -5.975006,5.480011l11.161011,0z" fill="#FFFFFF"/>
  </g>
  <g id="svg_25">
   <rect id="svg_26" height="124.523" width="7.116" fill="#FFFFFF" y="5.916001" x="-0.000001"/>
   <path id="svg_27" d="m15.455994,115.843994l0,-26.354004c8.821991,-19.19101 20.511993,-35.915985 40.354004,-53.243988c33.354004,-29.123016 66.787994,-36.246002 76.958008,-21.808014c11.794998,16.781006 -3.985001,52.769012 -37.33902,81.877991c-33.354004,29.125 -65.78299,37.299011 -78.677002,21.350006c-0.471985,-0.575989 -0.902985,-1.185974 -1.29599,-1.821991l0,0m16.194,14.595001l-16.193008,0l0,-13.140015c0.923996,1.808014 2.024002,3.494019 3.236008,5.007996c3.256012,4.007019 7.672012,6.705017 12.957001,8.132019l0,0m108.318008,-68.622986l0,68.623016l-86.536011,0c17.283005,-3.494019 37.797012,-14.197021 56.888,-30.865021c12.330002,-10.761993 22.384003,-24.110992 29.64801,-37.757996l0,0m-124.512009,-55.899994l72.233002,0c-10.828995,6.743988 -21.975998,15.164001 -32.632004,24.458984c-20.01799,17.479004 -33.844009,38.830017 -39.600998,56.873016l0,-81.332001l0,0z" fill="#FFFFFF"/>
  </g>
 </g>
</svg>