<?xml version="1.0" encoding="utf-8"?>
<!-- Generator: Adobe Illustrator 16.0.0, SVG Export Plug-In . SVG Version: 6.00 Build 0)  -->
<!DOCTYPE svg PUBLIC "-//W3C//DTD SVG 1.1//EN" "http://www.w3.org/Graphics/SVG/1.1/DTD/svg11.dtd">
<svg version="1.1" id="Layer_1" xmlns="http://www.w3.org/2000/svg" xmlns:xlink="http://www.w3.org/1999/xlink" x="0px" y="0px"
	 width="612px" height="792px" viewBox="0 0 612 792" enable-background="new 0 0 612 792" xml:space="preserve">
<g>
	<path fill="#FFFFFF" d="M307.018,362.405c-4.493,1.975-8.146,2.765-12.836,2.765c-10.32,0-17.924-7.209-17.924-17.085
		c0-9.925,7.802-17.479,18.072-17.479c3.95,0,6.715,0.643,11.999,2.863v4.89c-3.95-2.174-8.048-3.31-12.097-3.31
		c-7.308,0-12.986,5.58-12.986,12.889c0,7.505,5.629,12.787,13.628,12.787c2.617,0,4.987-0.592,7.308-1.333v-6.912h-6.468v-4.346
		h11.307v14.271H307.018z"/>
	<path fill="#FFFFFF" d="M330.961,362.553c-2.667,1.778-5.086,2.617-8.84,2.617c-6.912,0-10.764-5.679-10.764-11.801
		c0-6.716,4.246-11.259,10.369-11.259c5.875,0,9.629,4,9.629,12.195h-15.604c0.69,4.396,3.209,6.666,7.456,6.666
		c2.667,0,5.186-0.986,7.753-2.666L330.961,362.553L330.961,362.553z M327.01,351.394c-0.148-3.356-2.072-5.479-5.184-5.479
		c-3.358,0-5.383,1.975-5.977,5.479H327.01z"/>
	<path fill="#FFFFFF" d="M358.459,353.418c0,7.012-4.889,11.752-11.998,11.752c-6.814,0-11.703-4.938-11.703-11.752
		c0-6.369,5.086-11.308,11.703-11.308C353.423,342.11,358.459,346.851,358.459,353.418z M339.252,353.418
		c0,4.691,2.912,7.802,7.159,7.802c4.642,0,7.555-2.963,7.555-7.752c0-4.296-3.159-7.407-7.555-7.407
		C342.264,346.061,339.252,349.172,339.252,353.418z"/>
	<path fill="#FFFFFF" d="M367.046,342.555v5.086h0.099c2.224-3.899,4.347-5.529,6.42-5.529c1.777,0,3.457,0.84,5.283,2.567
		l-2.32,3.803c-1.334-1.284-3.062-2.174-4.098-2.174c-3.014,0-5.384,3.013-5.384,6.814v11.604h-4.396v-22.171H367.046z"/>
	<path fill="#FFFFFF" d="M399.09,345.962h-4.543c1.729,1.729,2.32,2.963,2.32,4.839c0,1.827-1.036,3.95-2.073,4.987
		c-2.963,3.16-8.987,1.58-8.987,4.197c0,1.233,2.321,1.975,6.767,2.863c4.739,0.938,6.419,3.357,6.419,6.173
		c0,4.395-3.901,7.061-10.469,7.061c-5.976,0-10.222-2.814-10.222-6.715c0-3.259,1.729-5.186,5.58-6.123
		c-1.53-0.938-2.223-1.827-2.223-2.814c0-1.432,1.383-2.666,3.506-3.16v-0.099c-1.629-0.69-2.863-1.63-3.703-2.813
		c-0.79-1.137-1.185-2.52-1.185-4.147c0-4.74,3.703-7.654,9.678-7.654h9.135V345.962L399.09,345.962z M387.486,365.812
		c-2.963,0-5.037,1.383-5.037,3.357c0,2.222,2.173,3.406,6.173,3.406c3.851,0,6.122-1.186,6.122-3.209
		C394.744,366.553,390.202,365.812,387.486,365.812z M388.622,346.357c-2.42,0-4.396,1.826-4.396,3.999
		c0,2.42,1.777,4.049,4.443,4.049c2.469,0,4.247-1.729,4.247-4.147C392.918,348.135,390.941,346.357,388.622,346.357z"/>
	<path fill="#FFFFFF" d="M404.812,338.457c-1.432,0-2.616-1.186-2.616-2.617c0-1.431,1.186-2.617,2.616-2.617
		c1.432,0,2.617,1.187,2.617,2.617C407.43,337.271,406.245,338.457,404.812,338.457z M406.986,364.726h-4.396v-22.171h4.396V364.726
		z"/>
	<path fill="#FFFFFF" d="M430.487,363.441c-2.024,1.334-2.863,1.729-4.246,1.729c-1.926,0-2.963-0.691-3.357-2.271
		c-1.926,1.53-3.95,2.271-5.976,2.271c-3.259,0-5.432-2.566-5.432-5.432c0-4.396,3.999-5.729,7.556-7.013l3.899-1.382v-1.186
		c0-2.766-1.333-3.9-3.999-3.9c-2.42,0-4.889,1.136-7.012,3.653v-4.789c1.729-2.024,4.147-3.013,7.357-3.013
		c4.493,0,8.048,2.271,8.048,7.309v11.406c0,0.839,0.297,1.135,0.84,1.135c0.444,0,1.333-0.444,2.32-1.185L430.487,363.441
		L430.487,363.441z M422.933,353.764c-3.753,1.284-7.012,2.567-7.012,5.186c0,1.827,1.333,3.11,3.16,3.11
		c1.383,0,2.667-0.69,3.852-1.826V353.764z"/>
	<path fill="#FFFFFF" d="M287.761,376.72c7.357,0,10.715,4.347,10.715,9.68c0,5.282-3.555,9.431-11.356,9.431h-5.037v14.566h-4.839
		V376.72H287.761z M282.083,391.484h5.481c3.604,0,5.925-1.927,5.925-5.284c0-2.469-1.333-5.135-5.728-5.135h-5.678V391.484
		L282.083,391.484z"/>
	<path fill="#FFFFFF" d="M318.371,408.223c-2.666,1.778-5.086,2.617-8.839,2.617c-6.913,0-10.764-5.679-10.764-11.801
		c0-6.716,4.247-11.259,10.369-11.259c5.877,0,9.629,4,9.629,12.195h-15.603c0.691,4.396,3.209,6.666,7.457,6.666
		c2.666,0,5.185-0.986,7.752-2.666L318.371,408.223L318.371,408.223z M314.421,397.062c-0.147-3.356-2.073-5.479-5.185-5.479
		c-3.358,0-5.382,1.975-5.976,5.479H314.421z"/>
	<path fill="#FFFFFF" d="M327.699,388.225v5.086h0.1c2.223-3.899,4.346-5.529,6.418-5.529c1.778,0,3.457,0.84,5.284,2.567
		l-2.321,3.803c-1.332-1.284-3.061-2.174-4.098-2.174c-3.012,0-5.383,3.013-5.383,6.814v11.604h-4.395v-22.172H327.699z"/>
	<path fill="#FFFFFF" d="M344.88,384.127c-1.433,0-2.616-1.186-2.616-2.617c0-1.431,1.185-2.617,2.616-2.617
		c1.433,0,2.616,1.187,2.616,2.617C347.496,382.941,346.312,384.127,344.88,384.127z M347.053,410.396h-4.395v-22.172h4.395V410.396
		z"/>
	<path fill="#FFFFFF" d="M357.566,388.225v2.914c2.271-2.271,4.396-3.357,6.47-3.357c2.813,0,5.135,1.383,6.616,4
		c1.926-2.173,4.246-4,7.406-4c4.493,0,7.356,3.457,7.356,8.689v13.926h-4.396v-13.728c0-3.358-2.072-5.185-4.592-5.185
		c-1.432-0.051-3.357,1.185-4.938,2.813v16.097h-4.395v-13.775c0-3.604-1.828-5.135-4-5.135c-2.223,0-3.703,0.689-5.531,2.813
		v16.097h-4.395v-22.171L357.566,388.225L357.566,388.225z"/>
	<path fill="#FFFFFF" d="M409.21,408.223c-2.666,1.778-5.086,2.617-8.838,2.617c-6.913,0-10.765-5.679-10.765-11.801
		c0-6.716,4.246-11.259,10.368-11.259c5.876,0,9.629,4,9.629,12.195h-15.604c0.69,4.396,3.21,6.666,7.456,6.666
		c2.666,0,5.185-0.986,7.752-2.666L409.21,408.223L409.21,408.223z M405.26,397.062c-0.146-3.356-2.072-5.479-5.185-5.479
		c-3.357,0-5.382,1.975-5.976,5.479H405.26z"/>
	<path fill="#FFFFFF" d="M419.478,388.225h7.013v3.95h-7.013v11.357c0,2.617,1.876,3.356,3.16,3.356c1.58,0,3.21-0.543,4.987-1.629
		v4.099c-1.531,0.84-3.901,1.48-5.333,1.48c-4.79,0-7.209-2.963-7.209-6.962v-11.703h-3.852v-0.493l8.245-8.049L419.478,388.225
		L419.478,388.225z"/>
	<path fill="#FFFFFF" d="M449.298,408.223c-2.666,1.778-5.086,2.617-8.838,2.617c-6.913,0-10.765-5.679-10.765-11.801
		c0-6.716,4.246-11.259,10.369-11.259c5.876,0,9.629,4,9.629,12.195H434.09c0.691,4.396,3.21,6.666,7.456,6.666
		c2.666,0,5.186-0.986,7.752-2.666V408.223z M445.348,397.062c-0.146-3.356-2.072-5.479-5.185-5.479
		c-3.357,0-5.382,1.975-5.976,5.479H445.348z"/>
	<path fill="#FFFFFF" d="M458.528,388.225v5.086h0.099c2.222-3.899,4.346-5.529,6.419-5.529c1.777,0,3.456,0.84,5.283,2.567
		l-2.32,3.803c-1.333-1.284-3.062-2.174-4.099-2.174c-3.012,0-5.382,3.013-5.382,6.814v11.604h-4.396v-22.172H458.528z"/>
	<path fill="#FFFFFF" d="M306.179,429.896c-4.147-2.421-7.703-3.507-11.604-3.507c-7.703,0-13.431,5.48-13.431,12.889
		c0,7.555,5.53,12.788,13.628,12.788c3.802,0,7.95-1.333,11.751-3.803v5.283c-3.309,1.729-6.913,2.963-12.195,2.963
		c-12.641,0-18.171-9.728-18.171-16.788c0-10.271,7.752-17.775,18.467-17.775c3.457,0,6.962,0.84,11.554,2.766v5.185H306.179z"/>
	<path fill="#FFFFFF" d="M333.232,444.758c0,7.012-4.89,11.752-12,11.752c-6.812,0-11.701-4.938-11.701-11.752
		c0-6.369,5.086-11.308,11.701-11.308C328.195,433.45,333.232,438.19,333.232,444.758z M314.023,444.758
		c0,4.691,2.914,7.802,7.16,7.802c4.643,0,7.555-2.963,7.555-7.752c0-4.296-3.16-7.406-7.555-7.406
		C317.036,437.4,314.023,440.512,314.023,444.758z"/>
	<path fill="#FFFFFF" d="M341.868,456.065h-4.396V422.39h4.396V456.065z"/>
	<path fill="#FFFFFF" d="M352.68,456.065h-4.395V422.39h4.395V456.065z"/>
	<path fill="#FFFFFF" d="M376.626,453.893c-2.666,1.778-5.086,2.617-8.838,2.617c-6.913,0-10.765-5.679-10.765-11.801
		c0-6.716,4.246-11.259,10.369-11.259c5.875,0,9.629,4,9.629,12.196h-15.604c0.69,4.395,3.21,6.666,7.456,6.666
		c2.666,0,5.186-0.987,7.752-2.666L376.626,453.893L376.626,453.893z M372.676,442.733c-0.146-3.357-2.072-5.48-5.185-5.48
		c-3.357,0-5.382,1.975-5.976,5.48H372.676z"/>
	<path fill="#FFFFFF" d="M399.435,437.302h-4.542c1.729,1.729,2.32,2.963,2.32,4.839c0,1.827-1.037,3.95-2.074,4.987
		c-2.963,3.16-8.986,1.58-8.986,4.197c0,1.233,2.32,1.975,6.766,2.864c4.74,0.938,6.419,3.356,6.419,6.172
		c0,4.395-3.901,7.061-10.469,7.061c-5.976,0-10.222-2.813-10.222-6.715c0-3.259,1.729-5.185,5.58-6.123
		c-1.531-0.938-2.223-1.827-2.223-2.814c0-1.432,1.383-2.665,3.506-3.159v-0.1c-1.629-0.69-2.863-1.63-3.703-2.813
		c-0.789-1.137-1.186-2.52-1.186-4.147c0-4.74,3.704-7.653,9.679-7.653h9.135V437.302L399.435,437.302z M387.831,457.151
		c-2.963,0-5.037,1.383-5.037,3.357c0,2.223,2.173,3.406,6.173,3.406c3.852,0,6.122-1.185,6.122-3.209
		C395.089,457.893,390.547,457.151,387.831,457.151z M388.967,437.697c-2.42,0-4.395,1.827-4.395,3.999
		c0,2.42,1.777,4.049,4.443,4.049c2.469,0,4.246-1.729,4.246-4.147C393.262,439.475,391.287,437.697,388.967,437.697z"/>
	<path fill="#FFFFFF" d="M421.107,453.893c-2.666,1.778-5.086,2.617-8.839,2.617c-6.912,0-10.765-5.679-10.765-11.801
		c0-6.716,4.246-11.259,10.369-11.259c5.876,0,9.629,4,9.629,12.196h-15.604c0.69,4.395,3.21,6.666,7.455,6.666
		c2.666,0,5.186-0.987,7.752-2.666v4.246H421.107z M417.157,442.733c-0.147-3.357-2.073-5.48-5.186-5.48
		c-3.356,0-5.382,1.975-5.975,5.48H417.157z"/>
</g>
<g>
	<rect x="121.942" y="331.459" fill="#FFFFFF" width="7.116" height="124.523"/>
	<path fill="#FFFFFF" d="M137.398,441.387v-26.354c8.822-19.191,20.512-35.916,40.354-53.244
		c33.354-29.123,66.788-36.246,76.958-21.808c11.795,16.781-3.985,52.769-37.339,81.878c-33.354,29.125-65.783,37.299-78.677,21.35
		C138.222,442.633,137.791,442.023,137.398,441.387L137.398,441.387 M153.592,455.982h-16.193v-13.14
		c0.924,1.808,2.024,3.494,3.236,5.008C143.891,451.857,148.307,454.555,153.592,455.982L153.592,455.982 M261.91,387.359v68.623
		h-86.536c17.283-3.494,37.797-14.197,56.888-30.865C244.592,414.355,254.646,401.006,261.91,387.359L261.91,387.359
		 M137.398,331.459h72.233c-10.829,6.744-21.976,15.164-32.632,24.459c-20.018,17.479-33.844,38.83-39.601,56.873V331.459
		L137.398,331.459z"/>
</g>
</svg>
