<svg width="169" height="116" xmlns="http://www.w3.org/2000/svg"><title>Layer 1</title><g><path d="M135.818 40.366c-9.965-6.782-20.948-11.378-32.291-13.793l-1.24-1.389-.006-5.542h-.001l-.015-.124c-.048-.291-.209-1.069-.851-1.877-.32-.403-.759-.805-1.333-1.131-.573-.327-1.275-.577-2.11-.707l-.004-.001h-.004c-4.459-.664-8.956-.998-13.454-.998-4.813 0-9.627.379-14.392 1.138h-.004l-.005.001c-.909.151-1.661.442-2.258.82-.449.282-.808.61-1.085.94-.418.497-.65.997-.781 1.378-.065.191-.105.355-.13.48l-.025.153-.007.044-.006.055v.002l-.001.003-.003.042-.001.064v5.351c-.437.499-.873 1.001-1.308 1.508-10.999 2.467-21.642 6.992-31.322 13.58l-2.756 1.876 3.315.354c.768.083 1.546.184 2.327.293v9.444l.002.059h.001l.028.271c.024.123.072.294.15.487.059.143.138.305.252.47.167.247.42.511.764.702.343.193.763.299 1.192.296.369 0 .747-.07 1.139-.199.394-.129.808-.32 1.258-.578l-.004.002-.004.003c6.982-3.944 14.373-6.869 21.962-8.778-.743.554-1.475 1.132-2.195 1.73l-.765.636.112.989c.067.587.164 1.143.291 1.669-1.465 1.384-2.993 2.939-4.558 4.641l.001.001c-.123.133-.245.283-.362.458-.188.28-.366.619-.502 1.014-.129.374-.214.802-.224 1.265-.396.506-.676 1.052-.865 1.589-.229.658-.327 1.296-.329 1.864l.002.098v.047l.001.012.032.575c.05.786.148 2.174.247 3.478.145 1.911.232 2.901.297 3.461.033.283.058.457.092.615l.061.225.061.148h-.001l.001.002v-.001c.249.565.577 1.087.995 1.562.369.42.807.803 1.317 1.181.522.982 1.444 2.242 3.02 3.437v-.001c1.811 1.375 4.062 2.347 6.672 2.925l.403.09 1.626.89.011.006c7.581 4.153 12.327 8.057 14.961 10.584 1.425 1.367 2.405 2.49 3.025 3.265.309.388.53.689.671.889l.152.224.033.053.007.011.001.001.908 1.498 1.541-.834.001-.001.187-.103c.724-.402 3.464-1.957 7.177-4.466 3.919-2.648 9.678-6.888 14.918-12.101l.359-.359.125-.491c.65-2.532.972-5.138.972-7.798 0-.422-.007-.843-.023-1.269-.149-3.886-.978-7.882-2.473-11.945l-.949.347.949-.349c-1.777-4.829-4.197-8.967-6.469-12.209 8.244 1.884 16.28 4.959 23.835 9.228l-.005-.002-.004-.002c.451.257.864.448 1.258.578s.771.199 1.139.199c.233 0 .465-.028.682-.088.381-.102.715-.304.956-.534.182-.173.316-.357.416-.531.148-.26.224-.493.268-.673l.023-.113.042-.098v-9.693c.781-.109 1.558-.209 2.327-.293l3.315-.354-2.756-1.875zm-67.589-20.159zm-.051.164l-.002.001.002-.001zm-.055.116l-.035.065-.068.102.103-.166zm-.122.189l-.134.148.134-.148zm-.149.162l-.108.087-.032.02.14-.107zm-.397.236l-.034.014-.002-.003.036-.011zm-30.183 31.259l.008-.001.001.003-.009-.002zm.017-.001h0zm71.602 5.191c1.43 3.889 2.21 7.673 2.349 11.325.016.398.022.795.022 1.19 0 2.48-.299 4.897-.897 7.249-5.094 5.064-10.748 9.231-14.589 11.825-2.087 1.41-3.86 2.513-5.124 3.271-.632.379-1.137.671-1.489.871l-.413.232-.021.012c-.329-.498-1.557-2.246-4.123-4.706-2.736-2.621-7.573-6.594-15.203-10.794.278-.351.555-.711.822-1.061l-1.251-1.519c-.852.419-1.509.783-2.194 1.163l.006-.003-.207.116c-2.353-.529-4.305-1.394-5.823-2.545-1.437-1.091-2.167-2.185-2.545-2.947l-.114-.229-.209-.147c-.511-.362-.886-.691-1.171-1.016-.284-.324-.487-.645-.661-1.038l-.036-.231c-.027-.212-.065-.565-.115-1.133-.051-.568-.114-1.351-.196-2.433-.065-.863-.131-1.767-.182-2.501l-.063-.951-.03-.513v-.034l-.001-.055c0-.327.063-.765.214-1.195.152-.433.388-.859.717-1.206l.312-.335-.044-.456-.007-.108v-.003l-.002-.074c-.001-.324.08-.629.197-.887.058-.128.124-.244.188-.34l.168-.215.003-.003-.023-.022.023.021c1.693-1.84 3.335-3.502 4.889-4.944l.462-.429-.182-.604c-.162-.538-.287-1.155-.368-1.833 1.849-1.53 3.784-2.919 5.762-4.138l.42-.258c5.396-1.007 10.866-1.514 16.336-1.514 5.647 0 11.293.537 16.858 1.611 2.532 3.336 5.491 7.98 7.532 13.535zm-41.221-17.73c1.307-.242 2.625-.362 3.953-.362 1.518 0 3.044.157 4.573.471l.272.057.263-.091c5.177-1.799 9.713-2.27 12.68-2.337l.314-.008.255-.184c1.04-.753 2.298-1.596 3.568-2.352 1.211-.722 2.435-1.365 3.465-1.774.354.677 1.869 3.756 2.606 7.978-5.003-.839-10.061-1.262-15.12-1.262-5.568 0-11.135.511-16.63 1.528-.089-.545-.157-1.103-.201-1.664zm63.851.82l-1.04.16v11.389c-.066-.006-.17-.023-.313-.071-.197-.065-.467-.183-.803-.375l-.004-.003-.003-.003c-8.608-4.863-17.824-8.219-27.266-10.071l-.437-.541c-.867-5.204-2.829-8.79-2.947-9.006l-.778-1.401-1.494.574c-1.232.474-2.59 1.19-3.923 1.984-1.23.733-2.431 1.532-3.462 2.268-3.08.094-7.585.602-12.718 2.35-1.569-.305-3.142-.461-4.71-.461-1.508 0-3.011.143-4.496.429l-1.609.308.118 1.635c.052.697.137 1.388.249 2.065-9.085 1.889-17.946 5.178-26.243 9.865l-.004.004-.004.002c-.337.192-.605.309-.802.375-.144.048-.248.066-.315.071v-11.387l-1.039-.16-.166-.023c8.789-5.518 18.307-9.351 28.118-11.505l.399-.088.267-.311c.62-.722 1.24-1.439 1.861-2.147l.303-.347v-6.167l.001-.004c.014-.062.046-.181.112-.322.1-.211.265-.469.574-.715.313-.245.779-.491 1.56-.624 4.636-.739 9.32-1.107 14.003-1.107 4.375 0 8.749.324 13.088.969.626.098 1.049.274 1.351.461.226.141.388.289.51.434.184.216.284.43.336.583l.043.153v6.266l.315.348c.603.67 1.204 1.345 1.807 2.025l.268.305.399.083c10.143 2.111 19.991 6.013 29.06 11.706l-.166.024z" fill="#FFCA38"/><path d="M102.878 27.687c-.604-.684-1.209-1.364-1.816-2.036v-5.898c-.001.013-.194-2.258-3.28-2.739-9.105-1.356-18.376-1.31-27.471.14-3.081.512-3.273 2.785-3.274 2.772v5.806c-.625.714-1.248 1.433-1.87 2.159-10.992 2.412-21.629 6.908-31.296 13.487 1.127.12 2.267.269 3.42.446v10.508c.005.012.163 2.047 2.952.445 27.428-15.498 61.082-15.498 88.511 0 2.789 1.601 2.947-.433 2.953-.445v-10.508c1.152-.177 2.294-.326 3.419-.446-9.946-6.77-20.917-11.333-32.25-13.692z" fill="#4D4A4A"/><path d="M71.139 26.763l-.286-.016c-.252-.03-.441-.114-.568-.249-.087-.092-.151-.211-.198-.364-.063-.21-.093-.474-.093-.833v-3.931c0-.404.038-.71.121-.96.083-.253.224-.459.418-.613.132-.104.289-.188.479-.258.242-.09.534-.156.918-.208 2.976-.401 6.003-.663 9.006-.776-.567.443-1.128.887-1.676 1.325-2.289.124-4.6.335-6.872.626l-.228.029v4.819999999999999l.296-.037c1.582-.205 3.199-.372 4.806-.496l.242-.019v-1.734l-.176-.061c-.874-.304-1.755-.599-2.626-.88l.001-.008c1.45-.151 2.921-.271 4.384-.355v2.513c0 .403-.038.703-.121.942-.082.239-.22.428-.41.56-.129.089-.285.161-.478.216-.237.069-.532.115-.927.144-1.76.139-3.54.328-5.29.563-.295.041-.525.06-.721.06zm25.858-.088l-.295-.021c-1.556-.204-3.136-.369-4.697-.493-.451-.036-.766-.091-1.019-.176-.266-.09-.472-.224-.609-.398-.095-.119-.164-.262-.214-.434-.064-.226-.096-.499-.096-.859v-3.935c0-.402.039-.696.121-.923.078-.222.21-.387.39-.488.127-.072.278-.121.465-.15.133-.021.279-.029.447-.029l.473.022c1.55.122 3.12.288 4.669.489.545.482 1.091.971 1.633 1.461-2.041-.302-4.107-.536-6.155-.703l-.283-.023v4.826l.24.021c2.121.171 4.262.418 6.374.735-.018.058-.061.203-.16.371-.164.283-.392.486-.677.599-.179.072-.383.11-.607.11zm-16.512-.735v-5.728c.721-.568 1.465-1.145 2.215-1.717.593-.011 1.196-.018 1.788-.018.934 0 1.88.016 2.812.043.458.015.811.085 1.081.22.266.131.46.342.558.606.07.186.105.4.105.656v1.751c0 .378-.075.661-.23.867-.15.2-.391.336-.715.401-.182.036-.387.054-.626.054l-.158-.002c-.935-.027-1.883-.042-2.817-.042-.584 0-1.177.005-1.76.017l-.257.006v2.8209999999999997c-.66.015-1.33.035-1.997.064zm4.011-4.189c.713 0 1.432.009 2.141.024l.099.001.311-.022c.125-.022.215-.061.285-.119l.116-.158c.038-.087.057-.196.057-.326v-.724c0-.144-.023-.265-.069-.355-.052-.095-.106-.148-.199-.198l-.215-.069c-.097-.021-.218-.03-.371-.033-.714-.018-1.439-.024-2.154-.024-.581 0-1.173.006-1.756.017l-.257.005v2.004l.266-.005c.58-.013 1.168-.019 1.746-.019z" fill="#fff"/><path d="M84.492 18.218c.939 0 1.878.015 2.816.042.471.015.866.087 1.188.248.323.159.565.42.688.75.083.22.121.468.121.747v1.751c0 .417-.085.761-.283 1.024-.198.265-.503.426-.874.5-.203.042-.429.061-.676.061l-.164-.003c-.938-.027-1.876-.041-2.814-.041-.584 0-1.167.005-1.75.017v2.822c-.84.015-1.682.042-2.521.08v-6.127c.795-.627 1.591-1.243 2.387-1.85.627-.015 1.255-.021 1.882-.021m-1.748 3.288c.583-.011 1.166-.017 1.749-.017.716 0 1.432.009 2.15.024h.088l.269-.018.16-.061.047-.065.033-.22v-.725c.001-.118-.02-.194-.04-.236l-.088-.085-.143-.044-.327-.028c-.718-.017-1.434-.023-2.15-.023-.583 0-1.166.005-1.749.017l.001 1.481m-1.009-3.238c-.77.597-1.542 1.204-2.313 1.821l-.063.051c-2.316.122-4.629.332-6.934.626v4.294c1.602-.209 3.209-.373 4.819-.498v-1.305c-.949-.332-1.897-.649-2.845-.952l.093-.425c1.616-.172 3.237-.303 4.858-.391v2.789c0 .407-.036.742-.136 1.028-.098.285-.266.522-.509.689-.16.112-.346.192-.553.254-.279.08-.601.124-.98.155-1.762.137-3.52.324-5.274.561-.283.038-.534.06-.758.06l-.318-.018c-.299-.035-.549-.14-.726-.329-.117-.124-.201-.282-.256-.469-.075-.248-.104-.546-.104-.907v-3.932c0-.407.036-.746.134-1.041.097-.294.265-.548.505-.736.159-.126.343-.223.55-.3.277-.102.596-.17.974-.221 3.264-.44 6.547-.708 9.835-.804m9.757.237l.494.022c1.59.126 3.178.294 4.76.502.78.689 1.56 1.389 2.339 2.099-2.323-.365-4.657-.641-6.995-.831v4.301c2.229.18 4.452.44 6.667.779l-.055.25c-.005.013-.049.22-.195.469-.144.25-.392.545-.804.713-.198.079-.433.128-.707.128l-.329-.022c-1.557-.203-3.12-.367-4.682-.491-.428-.035-.782-.088-1.083-.189-.301-.101-.552-.258-.731-.485-.118-.151-.203-.326-.259-.524-.075-.264-.104-.569-.105-.931v-3.936c.001-.406.037-.738.136-1.012.098-.272.267-.49.509-.628.16-.091.346-.148.553-.18.149-.023.309-.033.486-.033m-6.999.236c-.565 0-1.136.006-1.702.016-.681.521-1.367 1.052-2.044 1.585v5.326c.491-.02.985-.035 1.475-.048v-2.822l.513-.009c.585-.012 1.177-.018 1.76-.018.94 0 1.891.015 2.83.042l.149.003c.223 0 .41-.017.574-.05.261-.053.448-.154.559-.302.119-.16.178-.392.178-.711v-1.75c0-.224-.028-.407-.087-.56-.076-.206-.224-.366-.43-.467-.237-.117-.555-.181-.975-.194-.928-.028-1.87-.042-2.8-.042zm-2.271 3.298v-2.528l.513-.01c.583-.012 1.175-.017 1.759-.017h.004c.715 0 1.442.008 2.157.023.167.004.304.017.415.038l.275.089.007.004.007.003c.137.072.229.164.302.298l.004.006.003.006c.065.128.099.289.098.477v.722c.001.165-.025.308-.076.427-.046.105-.106.187-.185.255-.11.092-.242.149-.41.18-.099.018-.217.025-.36.025l-.102-.001c-.708-.017-1.426-.024-2.136-.024-.577 0-1.162.006-1.74.017l-.534.009zm-2.082-3.186c-2.731.126-5.472.375-8.172.739-.365.05-.639.111-.864.193-.164.061-.297.132-.405.218-.155.121-.266.286-.333.489-.073.224-.108.503-.109.879v3.931c0 .327.026.575.082.757.034.114.079.2.138.261.083.088.22.145.407.167l.256.015c.185 0 .404-.019.688-.056 1.756-.237 3.54-.428 5.304-.564.377-.03.655-.073.875-.137.164-.047.296-.106.4-.18.144-.101.25-.245.312-.429.073-.212.107-.485.108-.858v-2.234c-.958.058-1.921.131-2.878.219.49.163.981.331 1.467.501l.35.121v2.162l-.483.036c-1.597.124-3.208.291-4.793.495l-.59.076v-5.348l.457-.06c2.25-.287 4.538-.496 6.804-.622l.976-.773zm11.352.175c-.155 0-.289.01-.408.027-.153.023-.275.061-.373.117-.126.07-.218.188-.274.348-.072.201-.106.467-.106.839v3.934c0 .336.027.585.085.788.04.14.095.252.167.344.106.135.269.24.486.312.235.078.531.129.959.164 1.564.123 3.149.291 4.709.494l.261.018c.19 0 .362-.03.51-.091.23-.093.413-.257.549-.488l.019-.03c-1.995-.293-4.018-.522-6.025-.684l-.481-.039v-5.351l.565.045c1.77.143 3.554.34 5.322.583l-.934-.831c-1.514-.196-3.052-.357-4.576-.479l-.455-.021z" fill="#FFCA38"/><path d="M76.116 30.392c.811-.682 1.622-1.353 2.434-2.014-4.166.275-8.317.839-12.42 1.693-1.977.418-2.603 1.079-2.604 2.979v5.342c.001 1.91.627 2.232 2.604 1.815 2.42-.503 4.856-.906 7.302-1.208 2-.241 2.642-.773 2.641-2.683v-3.497c-2.156.203-4.305.483-6.445.84 1.34.351 2.683.736 4.03 1.148v2.259c-2.387.289-4.762.673-7.123 1.153v-6.423c3.172-.642 6.371-1.109 9.582-1.405zm-26.209 4.696c-1.687.702-3.358 1.458-5.009 2.267.833.173 1.671.359 2.513.56v6.188c-1.514.684-3.013 1.414-4.496 2.186v-1.593c-.76-.13-1.517-.249-2.267-.355v2.963c.002 1.907.573 2.057 2.399 1.1 1.447-.752 2.908-1.46 4.385-2.127 1.868-.837 2.478-1.56 2.476-3.467v-7.722zm39.294-6.781c-.827-.043-1.653-.074-2.483-.095v8.214c-2.358-.059-4.719-.023-7.076.103v-7.54c-.826.673-1.652 1.355-2.478 2.049v5.169c0 1.906.638 2.326 2.644 2.215 2.247-.116 4.496-.149 6.746-.099 2.006.052 2.647-.386 2.647-2.293v-7.724zm24.117 10.901c1.568.533 2.293.262 2.294-1.152v-2.372c-.001-1.409-.725-2.238-2.294-2.77-3.669-1.239-7.401-2.235-11.17-2.987.648.715 1.296 1.438 1.941 2.167v8.359c.917.204 1.83.423 2.742.656v-3.823c.768.196 1.533.402 2.297.62 1.392 1.669 2.776 3.372 4.151 5.112 1.137.383 2.27.79 3.396 1.221-1.36-1.794-2.729-3.555-4.105-5.281l.749.251zm-6.487-3.782v-2.59c1.818.466 3.622.988 5.414 1.567.737.24 1.073.493 1.073 1.16v.981c0 .668-.337.688-1.073.45-1.791-.582-3.596-1.105-5.414-1.568zm18.936 6.707c-2.025-1.045-4.084-2.01-6.166-2.892v-2.176c2.222.941 4.414 1.975 6.569 3.102.677-.235 1.348-.461 2.018-.677-2.66-1.478-5.377-2.81-8.139-3.998-1.882-.802-2.494-.533-2.492 1.365v1.118c-.002 1.906.61 2.619 2.492 3.419 2.078.894 4.131 1.87 6.152 2.927v2.313c-2.171-1.137-4.38-2.179-6.617-3.126-.684.345-1.371.698-2.061 1.059 2.795 1.102 5.547 2.349 8.244 3.741 1.83.952 2.419.812 2.421-1.094v-1.392c-.003-1.897-.592-2.738-2.422-3.689zm-36.865-3.732c.905.043 1.81.102 2.713.173 1.573-1.835 3.145-3.629 4.71-5.381.65.8 1.301 1.607 1.949 2.422-1.162-.18-2.327-.337-3.494-.47.455.66.911 1.323 1.366 1.989.71.092 1.417.193 2.124.302.462.71.92 1.421 1.381 2.139 1.314.224 2.623.477 3.928.759-2.39-3.886-4.796-7.674-7.211-11.363-2.481 3.038-4.972 6.181-7.467 9.43zm-39.289 6.918c.851-.357 1.704-.702 2.563-1.032 1.494-2.711 3-5.379 4.518-8.006.629.685 1.262 1.377 1.895 2.077-1.135.341-2.263.704-3.386 1.09l1.318 1.38c1.128-.369 2.261-.714 3.4-1.037.451.51.904 1.023 1.356 1.541.846-.225 1.694-.439 2.544-.638-2.382-2.808-4.746-5.518-7.084-8.129-2.402 4.149-4.778 8.399-7.122 12.754z" fill="#fff"/><path d="M73.388 38.676h0zm-3.815-5.338l-.028.634c1.259.331 2.522.691 3.787 1.078v1.731c-2.167.269-4.327.618-6.474 1.044v-5.761c3.076-.613 6.176-1.062 9.287-1.349l.102-.01.077-.065c.81-.681 1.619-1.351 2.431-2.01l.792-.644-1.018.068c-4.181.276-8.346.842-12.464 1.698l-.003.001c-.507.107-.937.231-1.305.394-.275.123-.517.27-.721.45-.307.268-.525.614-.653 1.021-.13.407-.181.876-.181 1.429v5.343c0 .373.023.695.077.977l.07.276c-2.14-2.51-4.266-4.945-6.373-7.295l-.299-.333-.224.387c-2.109 3.642-4.197 7.367-6.261 11.168.026-.234.038-.486.038-.755v-8.216l-.448.186c-1.693.705-3.369 1.463-5.028 2.275l-.849.417.926.192c.748.155 1.499.323 2.254.501v5.723c-1.294.589-2.576 1.211-3.848 1.864v-1.337l-.269-.045c-.763-.131-1.522-.251-2.276-.357l-.37-.053v3.337h0c.002.604.049 1.055.21 1.412.082.178.204.334.366.439.163.105.355.15.548.149.245 0 .499-.063.785-.168.285-.105.602-.255.962-.443h.002c1.441-.749 2.898-1.454 4.368-2.119v.001l.156-.072 2.019-.884c.847-.356 1.697-.698 2.552-1.028l.112-.042.056-.104c.866-1.57 1.736-3.123 2.61-4.665l1.216 1.274.142.15.194-.065c1.059-.346 2.124-.67 3.192-.975l1.219 1.385.133.151.195-.052c.842-.224 1.688-.437 2.534-.635l2.119-.45.184-.035h.001c2.41-.502 4.837-.903 7.273-1.204h-.001c.512-.061.947-.143 1.321-.265.28-.093.528-.212.739-.37.32-.234.55-.56.683-.955s.184-.855.185-1.411v-3.856l-.354.033c-2.164.203-4.322.485-6.47.843zm-19.991 9.479c0 .459-.036.835-.115 1.148-.118.47-.315.799-.653 1.114-.339.31-.831.596-1.517.904l-.002.001.001-.001c-1.481.671-2.948 1.381-4.399 2.135l-.002.001c-.347.182-.643.32-.888.41-.244.09-.435.129-.56.128l-.196-.046-.096-.104c-.051-.08-.102-.22-.134-.422-.033-.202-.051-.463-.051-.78v-2.588c.537.079 1.078.164 1.619.255v1.853l.473-.248c1.478-.769 2.972-1.496 4.48-2.179l.191-.086v-6.654l-.251-.06c-.533-.127-1.064-.246-1.594-.362 1.22-.582 2.451-1.136 3.691-1.659v7.239h.001zm11.805-1.846c-.409-.468-.816-.933-1.225-1.393l-.135-.153-.197.056c-1.076.305-2.148.632-3.215.979l-.825-.864c.958-.324 1.924-.634 2.891-.926l.492-.147-.346-.381c-.633-.7-1.266-1.393-1.897-2.079l-.299-.326-.22.383c-1.499 2.596-2.988 5.233-4.465 7.91-.54.209-1.078.424-1.614.643 2.129-3.936 4.282-7.788 6.458-11.554 2.128 2.381 4.275 4.843 6.438 7.386-.615.149-1.23.304-1.842.467zm-5.879-1.965l1.245-2.178 1.252 1.371c-.835.256-1.668.526-2.497.807zm20.24-2.689c0 .459-.04.822-.119 1.102-.06.209-.141.372-.243.505-.154.201-.365.349-.689.474-.324.123-.756.212-1.304.278h-.003c-2.454.303-4.898.708-7.325 1.213h-.003c-.476.101-.864.154-1.163.154-.226 0-.396-.03-.52-.082-.092-.038-.161-.086-.222-.152-.09-.099-.168-.248-.224-.483-.055-.233-.083-.545-.083-.934v-5.342c0-.457.039-.828.118-1.124.061-.223.141-.403.246-.558.159-.231.374-.412.696-.573.32-.16.745-.292 1.286-.405 3.752-.781 7.544-1.316 11.352-1.61-.522.429-1.043.86-1.565 1.298-3.189.297-6.366.763-9.516 1.4l-.26.053v7.085l.389-.078c2.353-.479 4.721-.862 7.099-1.15l.286-.033v-2.788l-.229-.07c-.863-.265-1.725-.511-2.584-.753 1.522-.227 3.048-.415 4.579-.564v3.137h.002zm4.078 2.429h0zm33.065-1.291c.102 0 .209-.015.312-.057.076-.03.152-.079.213-.143.093-.094.149-.21.181-.329.033-.119.045-.246.047-.386v-.98c-.002-.194-.025-.373-.084-.538-.086-.248-.259-.45-.468-.591-.211-.144-.457-.243-.748-.338-1.797-.582-3.609-1.107-5.433-1.572l-.406-.103v3.259l.244.062c1.814.464 3.611.984 5.397 1.561.279.089.512.153.745.155zm-5.735-4.199c1.674.437 3.338.919 4.99 1.454.351.113.574.226.682.341.057.057.092.113.12.19.025.076.045.181.045.32v.981l-.02.199-.02.057-.001.002-.064.008c-.097.002-.291-.04-.545-.123-1.718-.556-3.449-1.057-5.19-1.508v-1.92h.001zm18.759 14.764l.002.002-.002-.002zm1.656-5.027c-.41-.426-.951-.782-1.653-1.148h-.001c-1.97-1.016-3.968-1.955-5.992-2.817v-1.467c2.06.884 4.096 1.847 6.098 2.894l.124.065.132-.046c.673-.234 1.344-.459 2.01-.674l.71-.23-.651-.361c-2.67-1.484-5.397-2.821-8.171-4.014-.665-.281-1.184-.447-1.643-.451-.219 0-.429.042-.613.146-.139.076-.255.185-.347.315-.137.195-.216.43-.268.701-.052.27-.072.582-.072.944v1.132c0 .493.039.919.136 1.302.14.573.423 1.043.85 1.421.428.382.985.68 1.703.988h-.001c2.012.864 3.999 1.808 5.959 2.827v1.585c-2.028-1.044-4.084-2.012-6.168-2.893l-.139-.06-.133.068c-.686.346-1.375.699-2.067 1.061l-.184.098-.254-.336c-1.141-1.505-2.288-2.985-3.441-4.44.389.115.734.183 1.047.184.212 0 .414-.031.598-.107.138-.057.263-.14.368-.245.159-.158.265-.362.334-.591.067-.23.095-.489.095-.786v-2.372c0-.38-.049-.731-.154-1.053-.156-.483-.441-.896-.84-1.228s-.905-.588-1.517-.796c-3.683-1.244-7.431-2.243-11.212-2.997l-.964-.192.661.728c.622.683 1.241 1.375 1.858 2.073v7.801c-2.36-3.838-4.738-7.582-7.125-11.228l-.243-.37-.279.344c-2.235 2.739-4.479 5.568-6.727 8.474.094-.343.134-.737.134-1.208v-8.031l-.306-.017c-.83-.044-1.66-.076-2.491-.097l-.333-.008v8.217c-.632-.015-1.265-.022-1.898-.022-1.51 0-3.02.039-4.528.116v-7.882l-.53.43c-.827.673-1.655 1.357-2.483 2.053l-.115.098v5.319c0 .446.033.826.116 1.155.063.248.156.468.288.655.198.285.488.483.827.593.342.113.733.152 1.197.152l.557-.017c1.558-.081 3.118-.121 4.676-.121.681 0 1.364.008 2.045.023h-.001l.302.005c.46 0 .851-.03 1.194-.114.173-.042.334-.1.482-.175l-.255.33.619.03c.903.044 1.804.102 2.705.173l.163.014.107-.126c.937-1.092 1.873-2.168 2.807-3.231.403.585.808 1.172 1.21 1.763l.082.119.144.02c.659.086 1.316.18 1.972.28.436.669.869 1.339 1.302 2.015l.078.12.141.023c1.308.224 2.614.476 3.914.757l.255.056v.008l.255.057c.912.204 1.823.422 2.729.653l.406.103v-3.819c.597.155 1.192.315 1.787.484 1.367 1.643 2.727 3.318 4.081 5.027l.061.075.09.031c1.134.383 2.261.788 3.382 1.217l.405.154.44.174c2.787 1.098 5.528 2.342 8.217 3.73l-.001-.001c.362.188.681.338.969.442.287.105.543.167.791.168.191.001.386-.043.547-.147.124-.076.224-.185.302-.307.116-.186.182-.403.224-.656.042-.253.061-.544.061-.883v-1.392c0-.491-.038-.923-.131-1.317-.141-.591-.406-1.089-.814-1.514zm-38.694-6.962c0 .435-.035.779-.107 1.038-.054.194-.123.339-.21.451-.129.166-.3.28-.577.363-.276.081-.654.121-1.137.12l-.285-.004h-.001c-.686-.016-1.371-.023-2.06-.023-1.57 0-3.141.04-4.71.122h-.001l-.523.016c-.378.001-.679-.031-.909-.095-.172-.048-.303-.111-.405-.189-.152-.118-.261-.275-.343-.537-.081-.26-.122-.62-.122-1.086v-5.017c.61-.511 1.22-1.016 1.83-1.516v7.198l.343-.019c1.611-.087 3.224-.13 4.835-.13.739 0 1.477.01 2.215.026l.333.009v-8.212c.611.018 1.223.04 1.833.07v7.414h.001zm10.972 3.249c-.434-.677-.869-1.351-1.304-2.021l-.08-.122-.143-.021c-.663-.102-1.325-.197-1.987-.284l-.877-1.276c.924.113 1.848.237 2.769.38l.821.127-.519-.65c-.649-.814-1.299-1.622-1.951-2.424l-.24-.296-.253.283c-.534.597-1.069 1.201-1.603 1.808l-.374-.043.181.262c-.937 1.064-1.875 2.142-2.813 3.236-.645-.05-1.292-.092-1.939-.127 2.273-2.949 4.543-5.813 6.803-8.59 2.2 3.365 4.39 6.814 6.568 10.343-1.018-.212-2.037-.409-3.06-.585zm-4.585-4.403l1.05-1.183 1.193 1.481c-.748-.109-1.494-.209-2.244-.299zm18.212 7.864c-1.358-1.715-2.723-3.395-4.098-5.042l-.065-.077-.096-.027c-.766-.217-1.534-.425-2.304-.622l-.406-.102v3.825c-.696-.175-1.392-.342-2.092-.499v-8.223l-.081-.093-1.285-1.434c3.429.722 6.824 1.647 10.168 2.776.751.255 1.266.571 1.588.957.163.194.282.406.361.653.08.247.122.528.122.853v2.372c0 .224-.021.409-.055.552-.027.109-.062.193-.102.258-.059.098-.121.154-.21.199-.088.044-.211.071-.381.071-.271 0-.648-.076-1.117-.236l-.755-.252-1.031-.339.676.849c1.146 1.437 2.288 2.9 3.422 4.385-.751-.278-1.504-.547-2.26-.804zm14.388 4.474c.003.561-.061.946-.152 1.133-.047.096-.089.139-.133.166-.042.026-.099.047-.2.047-.128.001-.322-.038-.568-.129-.246-.09-.545-.228-.893-.409h-.001c-2.495-1.288-5.038-2.452-7.618-3.492l1.296-.664c2.182.928 4.337 1.945 6.457 3.054l.475.248v-3.044l-.175-.091c-2.029-1.061-4.09-2.041-6.177-2.938l-.002-.001.002.001c-.461-.196-.835-.385-1.134-.579-.446-.292-.719-.586-.898-.968-.179-.384-.263-.879-.263-1.568v-1.132c0-.299.015-.55.048-.751.047-.304.133-.484.218-.573l.146-.097.24-.038c.287-.003.759.129 1.388.398h-.001c2.528 1.087 5.016 2.297 7.457 3.626l-1.18.4c-2.125-1.106-4.284-2.123-6.47-3.049l-.45-.19v2.881l.197.084c2.076.878 4.125 1.838 6.145 2.881h-.001c.445.231.81.454 1.099.679.438.339.71.676.888 1.095.176.421.257.938.257 1.625v1.393h.001z" fill="#FFCA38"/><path d="M110.973 64.919l.667-.102c-.647-4.171-1.989-8.338-3.985-12.385-1.852-3.753-4.269-7.41-7.214-10.916l-.515.434.668-.098c-.789-5.37-2.885-9.149-2.907-9.192l-.285-.513-.547.21c-1.113.429-2.407 1.104-3.727 1.888-1.318.785-2.654 1.676-3.825 2.532l.397.545-.008-.676c-.834.01-1.686.052-2.552.126-2.892.249-5.895.846-8.933 1.775-.626.191-1.246.395-1.863.612l.223.635.145-.658c-1.419-.314-3.147-.559-5.088-.559-1.335 0-2.771.116-4.276.405l-.588.114.043.597c.103 1.409.342 2.833.72 4.144l.648-.187-.34-.582c-1.978 1.153-3.819 2.425-5.462 3.788l-1.31 1.087.295 1.677c.08.454.209.883.355 1.275l.631-.236-.455-.498c-1.674 1.53-3.49 3.355-5.332 5.36l.496.457-.486-.468c-.028.029-.216.227-.406.573-.189.343-.388.842-.388 1.456 0 .241.03.498.104.762l.649-.18-.428-.521c-.526.433-.9.991-1.146 1.57-.247.58-.369 1.183-.37 1.748l.001.075.008.187.11 1.675c.079 1.137.188 2.599.288 3.802.049.602.097 1.138.137 1.543l.057.502.026.177.018.085.016.055.032.088c.221.505.517.957.899 1.369.383.415.845.791 1.41 1.175l.38-.556-.601.304c.531 1.047 1.371 2.22 2.688 3.281 1.317 1.062 3.102 2.009 5.502 2.629l1.149.297 1.035-.586-.001.001c.01-.006 1.682-.951 4.402-2.086l-.26-.623-.586-.334c-.337.591-.69 1.14-1.039 1.579l-2.139 2.697 3.003 1.683c1.833 1.025 4.597 2.635 7.514 4.815 3.258 2.434 6.044 5.084 8.283 7.872l1.6 1.993 2.196-1.315-.003.001c.277-.166 3.608-2.172 7.694-5.011 2.043-1.42 4.276-3.05 6.414-4.766 2.136-1.716 4.178-3.519 5.84-5.293l.479-.51.197-.673-.002.002c.056-.184.754-2.643.754-6.636 0-1.629-.116-3.514-.44-5.602l-.666.103-.668.103c.311 2.018.426 3.832.426 5.397 0 3.836-.673 6.167-.7 6.26l-.106.358-.257.275c-1.599 1.707-3.597 3.475-5.7 5.164-3.158 2.535-6.549 4.896-9.201 6.652-2.651 1.754-4.56 2.903-4.756 3.022l-.001.001-1.183.708-.864-1.076c-2.319-2.889-5.188-5.615-8.527-8.109-2.989-2.232-5.808-3.874-7.661-4.911l-1.623-.91 1.156-1.456c.408-.516.794-1.117 1.153-1.748l.978-1.717-1.823.761c-2.784 1.162-4.504 2.131-4.546 2.155l-.562.318-.622-.16c-2.235-.58-3.835-1.441-4.992-2.374-1.158-.933-1.876-1.942-2.332-2.841l-.078-.153-.143-.099c-.512-.348-.891-.664-1.179-.974-.287-.314-.488-.624-.657-1.001l-.505.224.533-.145-.027-.078-.505.224.533-.145-.214.058.218-.044-.004-.014-.214.058.218-.044-.021-.141c-.039-.294-.097-.903-.158-1.637-.093-1.105-.199-2.509-.282-3.677l-.104-1.506-.03-.492-.012-.234v-.049c-.001-.362.086-.809.262-1.221.176-.414.438-.791.761-1.054l.339-.278-.116-.423c-.04-.145-.056-.278-.056-.403-.001-.316.105-.598.219-.804l.152-.233.044-.053.008-.009-.047-.044.046.044h.001l-.047-.044.046.044-.335-.314.331.318.004-.004-.335-.314.331.318.006-.006.005-.006c1.819-1.979 3.61-3.779 5.249-5.276l.336-.306-.16-.427c-.123-.331-.227-.683-.289-1.037l-.16-.906.708-.586c1.579-1.311 3.361-2.543 5.28-3.662l.455-.265-.146-.506c-.349-1.204-.577-2.544-.673-3.866l-.673.049.128.662c1.413-.271 2.763-.381 4.02-.381 1.829 0 3.458.23 4.798.527l.186.041.182-.063c.6-.209 1.205-.408 1.812-.594 2.955-.904 5.868-1.482 8.655-1.722.835-.071 1.652-.111 2.452-.121l.216-.002.175-.127c1.136-.832 2.442-1.702 3.718-2.462 1.276-.76 2.525-1.408 3.52-1.788l-.242-.629-.589.326.195-.108-.195.108.195-.108-.195.108c.009.014 2.011 3.653 2.752 8.734l.026.189.124.146c2.881 3.431 5.238 6.998 7.036 10.646 1.939 3.933 3.237 7.97 3.861 11.995l.664-.102z" fill="#fff"/><path d="M110.973 64.919c-.636-4.099-1.956-8.199-3.923-12.189-1.825-3.7-4.214-7.312-7.124-10.781-.768-5.245-2.831-8.962-2.831-8.962-2.107.809-5.086 2.648-7.395 4.336-.816.01-1.651.05-2.503.122-2.839.245-5.797.833-8.792 1.749-.617.188-1.23.39-1.838.602-2.328-.515-5.511-.838-9.092-.149.1 1.367.333 2.747.697 4.006-1.949 1.137-3.759 2.388-5.371 3.726l-1.008.836.227 1.291c.07.403.187.795.322 1.155-1.656 1.513-3.459 3.324-5.291 5.319 0 0-.868.904-.526 2.143-.868.713-1.288 1.924-1.269 2.859.01.485.514 7.587.632 7.854.39.881.997 1.525 2.072 2.26.986 1.944 3.122 4.362 7.758 5.562l.886.228.797-.453c.025-.015 1.721-.972 4.473-2.12-.348.613-.717 1.187-1.095 1.664l-1.647 2.077 2.313 1.295c1.843 1.032 4.634 2.659 7.587 4.863 3.298 2.465 6.126 5.153 8.405 7.991l1.232 1.534 1.689-1.01c.539-.324 13.278-7.991 19.804-14.954l.368-.392.15-.516c.057-.197 1.392-4.863.295-11.948z" fill="#4D4A4A"/><path d="M106.538 72.094c.787-.103 1.889.426 2.511.773.059-.702.099-1.503.099-2.392-.366.024-.833-.072-1.446-.487-1.094-.74-.64-2.991.038-3.625.251-.234.696-.4 1.088-.51-.111-.803-.255-1.644-.44-2.518-.793.741-2.059 1.551-3.313 1.244-1.756-.43-2.075-2.74-1.453-3.64.403-.583 1.439-.481 2.55-1.091.479-.262.795-.616 1.003-.934-.375-1.105-.814-2.245-1.326-3.414-.298.186-.61.446-.884.664-.519.411-.599 1.054-1.381 1.048-1.251-.01-2.331-1.616-2.286-3.075.043-1.334 1.306-2.5 2.29-3.094-.961-1.665-2.08-3.371-3.381-5.111-.015 1.983-.269 4.083-.894 6.212-2.367-5.169-6.711-9.312-12.534-12.392-.812.085-1.631.199-2.453.339.239.647.326 1.419.026 2.182-.229.584-2.956 1.586-3.681 1.289-.55-.223-1.089-1.332-1.257-2.315-5.661 1.683-11.12 4.506-15.175 7.868.18 1.026.884 2.094.884 2.094-2.015 1.726-4.225 3.917-6.414 6.298 1.38-.08 2.178.246 2.178.246 2.747-1.301 5.714-1.556 6.902-1.605.341-.016.188.157.013.255-1.468.824-3.022 2.263-4.197 3.482h.001l.089.052.099.055.095.051.109.057.143.07.103.049.1.045.097.043.151.063.111.045.106.039.091.033.107.038.164.055.113.034.087.024.115.033.085.022.2.051.081.02.122.027.079.016.11.023c.088-.212.691-.158 1.051-.123 8.52.819 20.703-8.402 33.307-2.377l.004.003.284.138.029.014.309.158v.001c.396 2.936.217 6.298-.638 9.999 1.432-.566 2.466-1.669 3.132-1.25.863.544.921 3.246-1.366 4.886-1.452 1.041-2.617 1.592-3.445 1.827-.53 1.396-1.148 2.829-1.858 4.292 1.085-.26 2.54-.467 2.923.314.463.942-.024 2.581-1.599 3.719-.83.601-1.073-.171-2.481.167-.536.129-1.01.331-1.415.557-1.475 2.476-3.202 5.027-5.203 7.637.228-.139 12.946-7.784 19.282-14.527-.681-.288-1.399-.793-1.901-.86-.82-.112-1.855 1.545-2.578 1.94-.418.23-1.916.072-1.789-1.281.211-2.269 2.958-3.788 4.326-3.969zm-36.445-25.718c.426-.687 4.361-2.505 6.451-1.786.342.118.775 1.223.257 2.129-.377.658-1.783.467-3.222.948-1.248.419-1.788 1.137-2.539.96-.473-.11-1.374-1.565-.948-2.251zm3.322 6.632l-.084-.018h-.001c-.744-.742-1.87-1.395-2.36-1.61-.167-.074-.049-.264.162-.194.211.068 2.088.877 3.57-.114 1.938-1.922 4.626-4.029 7.577-5.071.143-.052.3-.042.089.14-.361.315-.779.989-1.099 1.737.662.224 1.281.569 1.57.945-1.137.754-2.725 1.906-4.336 3.394.001 0-2.789-.008-5.088.791zm11.873 2.23c-.907.236-3.151-1.519-2.708-2.409.275-.552.764-.79 1.042-1.23.429-.675.162-1.062.812-1.542.406-.301 2.672.345 2.947 2.144.168 1.094-1.395 2.854-2.093 3.037zm2.411-7.147c-.477-.425-.582-.978-.947-1.375-.56-.61-1.019-.45-1.323-1.229-.189-.487 1.07-2.58 2.944-2.366 1.14.13 2.477 2.168 2.469 2.916-.009.973-2.372 2.738-3.142 2.054zm8.019 6.535c-.792.239-1.765-.966-3.265-1.662-1.303-.604-2.271-.439-2.734-1.14-.292-.441.084-2.272.936-2.498.852-.224 5.881 1.079 6.453 3.419.147.601-.301 1.551-1.39 1.881zm-37.913 5.406c-.227.264-.302.554-.295.904l.035 1.308c.585-.722 1.51-1.533 2.499-2.149-.295-.475-.555-.958-.767-1.377-.418.335-1.03.85-1.472 1.315z" fill="#FFCA38"/><path d="M95.367 42.782c.85-3.111 1.107-5.878 1.215-7.757-1.403.677-3.156 1.722-4.914 2.939-1.68 1.162-2.775 2.067-3.377 2.631.928.547 1.815 1.122 2.656 1.728.985.002 2.588.08 4.421.459zm-34.861 20.351c-.195-1.027-.246-1.957-.247-2.71l-.213-.33c-.989.616-1.914 1.426-2.499 2.149.053 1.495.159 3.588.383 5.119.062.226.205.42.541-.116.375-.625 1.033-1.616 1.963-2.632.3-.406.141-1.09.072-1.479zm7.958-.365c9.096 1.09 17.903-8.147 31.081-.658.322-.604.602-1.176.852-1.714-13.031-7.134-23.699 2.342-32.619 1.329-.444-.051-1.382-.311-1.591-.719-.038-.074-.043-.134-.023-.18-.9-.171-1.753-.475-2.556-.945-.3.311-.576.608-.818.877.018.629.074 1.356.214 2.141.101.43.435 1.255 1.262 1.699l.612.298c8.829 4.181 12.297 1.502 16.749.374 1.081-.273.646.249.012.75-.635.501-7.576 6.436-19.664.37-.844.609-2.235 2.102-2.127 3.42.769 1.708 2.55 3.655 6.435 4.661 0 0 14.627-8.349 29.058-5.957l.021.012.006-.007.258-.336.063-.083.211-.28.049-.064.249-.337.039-.054.205-.281.06-.084.012-.016c-13.015-7.809-16.568-.208-25.177-.967-.457-.04-1.614-.317-2.033-.807-.421-.49.463-.348.923-.299 8.995.967 14.172-7.337 27.372.489.364-.558.703-1.1 1.014-1.623-13.247-7.723-20.201 1.131-29.342.049-.457-.053-1.395-.253-1.742-.708-.349-.454.486-.406.937-.352zm9.938-10.55l.103-.001c.538-.497 1.074-.957 1.591-1.377.076-.257.114-.54.103-.836-.009-.214-.042-.421-.097-.614l-.872.364.039.285c.024.648-.379 1.189-.902 1.208-.397.016-.748-.273-.905-.697l-.611.297c.255.776.856 1.328 1.552 1.371z" fill="#fff"/></g></svg>