<svg xmlns="http://www.w3.org/2000/svg" width="24.3" height="16"><style type="text/css"><![CDATA[
	.st0{clip-path:url(#SVGID_2_);fill:url(#SVGID_3_);}
	.st1{clip-path:url(#SVGID_2_);fill:url(#SVGID_4_);}
	.st2{clip-path:url(#SVGID_2_);fill:url(#SVGID_5_);}
	.st3{clip-path:url(#SVGID_2_);fill:url(#SVGID_6_);}
	.st4{stroke:#000000;stroke-width:2.673300e-002;stroke-miterlimit:10;}
	.st5{opacity:0.3;fill-rule:evenodd;clip-rule:evenodd;fill:#FFFFFF;}
	.st6{fill:#848484;}
	.st7{fill:#1E1E24;}
	.st8{fill:#231F20;}
	.st9{fill-rule:evenodd;clip-rule:evenodd;fill:#848484;}
	.st10{fill-rule:evenodd;clip-rule:evenodd;fill:#1E1E24;}
	.st11{fill:#FFFFFF;}
	.st12{fill:#333333;}
	.st13{fill:none;stroke:#1E1E24;stroke-width:2;stroke-miterlimit:10;}
	.st14{fill:#1E1E24;enable-background:new    ;}
	.st15{fill-rule:evenodd;clip-rule:evenodd;fill:#FFFFFF;}
	.st16{opacity:0.3;fill-rule:evenodd;clip-rule:evenodd;fill:#1E1E24;}
	.st17{fill-rule:evenodd;clip-rule:evenodd;fill:none;stroke:#1E1E24;stroke-miterlimit:10;}
]]></style><path class="st6" d="M20.6 2.7c-.6.3-1.3.5-2 .6.7-.4 1.3-1.1 1.6-2-.7.4-1.4.7-2.2.9-.8-.8-1.7-1.2-2.7-1.2-2 0-3.5 1.6-3.5 3.5 0 .3 0 .5.1.8-3-.1-5.6-1.5-7.3-3.7-.3.6-.5 1.2-.5 1.8 0 1.2.6 2.3 1.6 2.9-.6 0-1.1-.2-1.6-.4 0 1.7 1.2 3.1 2.8 3.5-.3.1-.6.2-.9.2-.2 0-.5 0-.7-.1.5 1.4 1.8 2.4 3.3 2.5-1.2.9-2.7 1.5-4.4 1.5h-.8c1.6.9 3.4 1.5 5.4 1.5 6.5 0 10.1-5.4 10.1-10.1v-.5c.6-.4 1.2-1 1.7-1.7z"/></svg>