<svg xmlns="http://www.w3.org/2000/svg" width="24.3" height="16"><style type="text/css"><![CDATA[
	.st0{clip-path:url(#SVGID_2_);fill:url(#SVGID_3_);}
	.st1{clip-path:url(#SVGID_2_);fill:url(#SVGID_4_);}
	.st2{clip-path:url(#SVGID_2_);fill:url(#SVGID_5_);}
	.st3{clip-path:url(#SVGID_2_);fill:url(#SVGID_6_);}
	.st4{stroke:#000000;stroke-width:2.673300e-002;stroke-miterlimit:10;}
	.st5{opacity:0.3;fill-rule:evenodd;clip-rule:evenodd;fill:#FFFFFF;}
	.st6{fill:#848484;}
	.st7{fill:#1E1E24;}
	.st8{fill:#231F20;}
	.st9{fill-rule:evenodd;clip-rule:evenodd;fill:#848484;}
	.st10{fill-rule:evenodd;clip-rule:evenodd;fill:#1E1E24;}
	.st11{fill:#FFFFFF;}
	.st12{fill:#333333;}
	.st13{fill:none;stroke:#1E1E24;stroke-width:2;stroke-miterlimit:10;}
	.st14{fill:#1E1E24;enable-background:new    ;}
	.st15{fill-rule:evenodd;clip-rule:evenodd;fill:#FFFFFF;}
	.st16{opacity:0.3;fill-rule:evenodd;clip-rule:evenodd;fill:#1E1E24;}
	.st17{fill-rule:evenodd;clip-rule:evenodd;fill:none;stroke:#1E1E24;stroke-miterlimit:10;}
]]></style><path class="st9" d="M21.2 2.3c-.5-1-1.1-1.2-2.3-1.2-1.3-.1-4.3-.1-6.9-.1-2.6 0-5.6 0-6.8.1-1.2.1-1.8.3-2.4 1.2-.5 1-.8 2.7-.8 5.7s.3 4.7.8 5.6c.5 1 1.1 1.2 2.3 1.2 1.3.2 4.3.2 6.9.2 2.6 0 5.6 0 6.8-.1 1.2-.1 1.8-.3 2.3-1.2.6-1 .9-2.7.9-5.7s-.3-4.7-.8-5.7zm-11.2 9.4v-7.4l5.7 3.7-5.7 3.7z"/></svg>