<svg width="160" height="70" xmlns="http://www.w3.org/2000/svg"><title>Layer 1</title><g fill="#fff"><g><path d="M84.885 19.703c-2.017.887-3.657 1.241-5.762 1.241-4.633 0-8.046-3.236-8.046-7.669 0-4.455 3.502-7.846 8.112-7.846 1.773 0 3.014.289 5.386 1.285v2.195c-1.773-.976-3.613-1.486-5.43-1.486-3.28 0-5.829 2.505-5.829 5.786 0 3.369 2.527 5.74 6.117 5.74 1.175 0 2.239-.266 3.28-.598v-3.103h-2.903v-1.951h5.076v6.406h-.001z"/><path d="M95.633 19.769c-1.197.798-2.283 1.175-3.968 1.175-3.103 0-4.832-2.549-4.832-5.297 0-3.015 1.906-5.054 4.655-5.054 2.637 0 4.322 1.796 4.322 5.474h-7.004c.31 1.973 1.44 2.992 3.347 2.992 1.197 0 2.328-.443 3.48-1.197v1.907zm-1.774-5.009c-.066-1.506-.93-2.459-2.327-2.459-1.507 0-2.416.887-2.683 2.459h5.01z"/><path d="M107.976 15.669c0 3.148-2.195 5.275-5.386 5.275-3.059 0-5.253-2.217-5.253-5.275 0-2.859 2.283-5.076 5.253-5.076 3.125 0 5.386 2.128 5.386 5.076zm-8.622 0c0 2.106 1.307 3.502 3.214 3.502 2.084 0 3.391-1.33 3.391-3.48 0-1.928-1.418-3.325-3.391-3.325-1.862 0-3.214 1.396-3.214 3.302z"/><path d="M111.831 10.793v2.283h.044c.998-1.75 1.951-2.482 2.882-2.482.798 0 1.552.377 2.371 1.152l-1.041 1.707c-.599-.576-1.374-.976-1.84-.976-1.353 0-2.417 1.353-2.417 3.059v5.209h-1.973v-9.952h1.973z"/><path d="M126.215 12.322h-2.039c.776.776 1.041 1.33 1.041 2.172 0 .82-.465 1.773-.931 2.239-1.33 1.418-4.034.709-4.034 1.884 0 .553 1.042.887 3.038 1.285 2.127.421 2.881 1.507 2.881 2.771 0 1.973-1.751 3.17-4.699 3.17-2.683 0-4.589-1.263-4.589-3.014 0-1.463.776-2.328 2.505-2.749-.687-.421-.998-.82-.998-1.263 0-.643.621-1.197 1.574-1.418v-.044c-.731-.31-1.285-.732-1.662-1.263-.355-.51-.532-1.131-.532-1.862 0-2.128 1.662-3.436 4.344-3.436h4.101v1.528zm-5.209 8.91c-1.33 0-2.261.621-2.261 1.507 0 .997.975 1.529 2.771 1.529 1.729 0 2.748-.532 2.748-1.44 0-1.263-2.039-1.595-3.258-1.595zm.51-8.733c-1.086 0-1.973.82-1.973 1.795 0 1.086.798 1.818 1.994 1.818 1.108 0 1.906-.776 1.906-1.862.001-.953-.887-1.751-1.928-1.751z"/><path d="M128.784 8.953c-.643 0-1.174-.532-1.174-1.175 0-.642.532-1.175 1.174-1.175.643 0 1.175.533 1.175 1.175s-.531 1.175-1.175 1.175zm.976 11.792h-1.973v-9.952h1.973v9.952z"/><path d="M140.309 20.168c-.909.599-1.285.776-1.906.776-.865 0-1.33-.31-1.507-1.019-.865.687-1.773 1.019-2.683 1.019-1.463 0-2.438-1.152-2.438-2.438 0-1.973 1.795-2.572 3.392-3.148l1.75-.62v-.532c0-1.242-.598-1.751-1.795-1.751-1.086 0-2.195.51-3.148 1.64v-2.15c.776-.909 1.862-1.353 3.302-1.353 2.017 0 3.613 1.019 3.613 3.281v5.12c0 .377.133.509.377.509.199 0 .598-.199 1.041-.532l.001 1.198zm-3.391-4.344c-1.685.576-3.148 1.152-3.148 2.328 0 .82.598 1.396 1.418 1.396.621 0 1.197-.31 1.729-.82v-2.904z"/><path d="M76.241 26.129c3.302 0 4.81 1.951 4.81 4.345 0 2.371-1.596 4.233-5.098 4.233h-2.261v6.539h-2.172v-15.117h4.721zm-2.549 6.627h2.46c1.618 0 2.66-.865 2.66-2.372 0-1.108-.598-2.305-2.571-2.305h-2.549v4.677z"/><path d="M89.981 40.27c-1.197.798-2.283 1.175-3.968 1.175-3.103 0-4.832-2.549-4.832-5.297 0-3.015 1.906-5.054 4.655-5.054 2.638 0 4.322 1.796 4.322 5.474h-7.004c.31 1.973 1.44 2.992 3.347 2.992 1.197 0 2.327-.443 3.48-1.197v1.907zm-1.773-5.01c-.066-1.506-.931-2.459-2.327-2.459-1.507 0-2.416.887-2.683 2.459h5.01z"/><path d="M94.169 31.293v2.283h.045c.998-1.75 1.951-2.482 2.881-2.482.798 0 1.552.377 2.372 1.152l-1.042 1.707c-.598-.576-1.374-.976-1.84-.976-1.352 0-2.416 1.353-2.416 3.059v5.209h-1.973v-9.953h1.973z"/><path d="M101.881 29.454c-.643 0-1.174-.532-1.174-1.175 0-.642.532-1.175 1.174-1.175.643 0 1.174.533 1.174 1.175s-.531 1.175-1.174 1.175zm.975 11.792h-1.973v-9.953h1.973v9.953z"/><path d="M107.575 31.293v1.308c1.019-1.019 1.973-1.507 2.904-1.507 1.263 0 2.305.621 2.97 1.796.865-.975 1.906-1.796 3.324-1.796 2.017 0 3.302 1.552 3.302 3.9v6.251h-1.973v-6.162c0-1.507-.93-2.327-2.061-2.327-.643-.023-1.507.532-2.217 1.263v7.226h-1.973v-6.183c0-1.618-.821-2.305-1.796-2.305-.998 0-1.662.309-2.483 1.263v7.226h-1.973v-9.952l1.975.001z"/><path d="M130.758 40.27c-1.197.798-2.283 1.175-3.967 1.175-3.103 0-4.832-2.549-4.832-5.297 0-3.015 1.906-5.054 4.654-5.054 2.638 0 4.322 1.796 4.322 5.474h-7.004c.31 1.973 1.441 2.992 3.347 2.992 1.197 0 2.327-.443 3.48-1.197l.001 1.907zm-1.773-5.01c-.066-1.506-.93-2.459-2.327-2.459-1.507 0-2.416.887-2.683 2.459h5.01z"/><path d="M135.367 31.293h3.148v1.773h-3.148v5.098c0 1.175.842 1.506 1.418 1.506.709 0 1.441-.244 2.239-.731v1.84c-.687.377-1.751.664-2.394.664-2.15 0-3.236-1.33-3.236-3.125v-5.253h-1.729v-.221l3.701-3.613.001 2.062z"/><path d="M148.753 40.27c-1.197.798-2.283 1.175-3.967 1.175-3.103 0-4.832-2.549-4.832-5.297 0-3.015 1.906-5.054 4.655-5.054 2.638 0 4.322 1.796 4.322 5.474h-7.004c.31 1.973 1.441 2.992 3.347 2.992 1.197 0 2.328-.443 3.48-1.197v1.907zm-1.773-5.01c-.066-1.506-.93-2.459-2.327-2.459-1.507 0-2.416.887-2.683 2.459h5.01z"/><path d="M152.896 31.293v2.283h.044c.997-1.75 1.951-2.482 2.881-2.482.798 0 1.551.377 2.371 1.152l-1.041 1.707c-.598-.576-1.375-.976-1.84-.976-1.352 0-2.416 1.353-2.416 3.059v5.209h-1.973v-9.953h1.973z"/><path d="M84.508 49.999c-1.862-1.087-3.458-1.574-5.209-1.574-3.458 0-6.029 2.46-6.029 5.786 0 3.391 2.482 5.74 6.117 5.74 1.707 0 3.569-.598 5.275-1.707v2.371c-1.485.776-3.103 1.33-5.474 1.33-5.674 0-8.157-4.367-8.157-7.536 0-4.611 3.48-7.979 8.29-7.979 1.552 0 3.125.377 5.186 1.242v2.327z"/><path d="M96.652 56.67c0 3.148-2.195 5.275-5.387 5.275-3.058 0-5.252-2.217-5.252-5.275 0-2.859 2.283-5.076 5.252-5.076 3.126 0 5.387 2.128 5.387 5.076zm-8.623 0c0 2.106 1.308 3.502 3.214 3.502 2.084 0 3.391-1.33 3.391-3.48 0-1.928-1.418-3.324-3.391-3.324-1.862-.001-3.214 1.396-3.214 3.302z"/><path d="M100.529 61.746h-1.973v-15.116h1.973v15.116z"/><path d="M105.382 61.746h-1.973v-15.116h1.973v15.116z"/><path d="M116.131 60.771c-1.197.798-2.283 1.175-3.967 1.175-3.103 0-4.832-2.549-4.832-5.297 0-3.015 1.906-5.054 4.655-5.054 2.637 0 4.322 1.796 4.322 5.475h-7.004c.31 1.973 1.441 2.992 3.347 2.992 1.197 0 2.328-.443 3.48-1.197v1.906zm-1.773-5.01c-.066-1.507-.93-2.46-2.327-2.46-1.507 0-2.416.887-2.683 2.46h5.01z"/><path d="M126.37 53.323h-2.039c.776.776 1.041 1.33 1.041 2.172 0 .82-.466 1.773-.931 2.239-1.33 1.418-4.034.709-4.034 1.884 0 .553 1.041.887 3.037 1.286 2.128.421 2.881 1.506 2.881 2.771 0 1.973-1.751 3.17-4.699 3.17-2.683 0-4.589-1.263-4.589-3.014 0-1.463.776-2.327 2.505-2.749-.687-.421-.998-.82-.998-1.263 0-.643.621-1.196 1.574-1.418v-.045c-.731-.31-1.285-.732-1.662-1.263-.354-.51-.532-1.131-.532-1.862 0-2.128 1.663-3.435 4.345-3.435h4.101v1.528zm-5.209 8.91c-1.33 0-2.261.621-2.261 1.507 0 .998.975 1.529 2.771 1.529 1.729 0 2.748-.532 2.748-1.44 0-1.262-2.039-1.595-3.258-1.595zm.51-8.733c-1.086 0-1.973.82-1.973 1.795 0 1.086.798 1.818 1.994 1.818 1.108 0 1.906-.776 1.906-1.862 0-.953-.886-1.751-1.928-1.751z"/><path d="M136.098 60.771c-1.197.798-2.283 1.175-3.968 1.175-3.103 0-4.832-2.549-4.832-5.297 0-3.015 1.906-5.054 4.655-5.054 2.638 0 4.322 1.796 4.322 5.475h-7.004c.31 1.973 1.441 2.992 3.346 2.992 1.197 0 2.328-.443 3.48-1.197v1.906h.001zm-1.773-5.01c-.066-1.507-.931-2.46-2.328-2.46-1.506 0-2.416.887-2.682 2.46h5.01z"/></g><g><rect height="55.897" width="3.194" y="5.812" x="1.806"/><path d="M8.745 55.157v-11.83c3.96-8.615 9.208-16.122 18.114-23.901 14.972-13.073 29.98-16.27 34.546-9.789 5.295 7.533-1.789 23.687-16.761 36.754-14.972 13.074-29.529 16.743-35.317 9.584-.212-.259-.405-.532-.582-.818m7.269 6.552h-7.269v-5.898c.415.812.909 1.568 1.453 2.248 1.462 1.799 3.444 3.01 5.816 3.65m48.623-30.804v30.804h-38.845c7.758-1.568 16.967-6.373 25.536-13.855 5.535-4.831 10.048-10.823 13.309-16.949m-55.892-25.093h32.425c-4.861 3.027-9.865 6.807-14.648 10.979-8.986 7.846-15.192 17.43-17.776 25.53v-36.509z"/></g></g></svg>