<svg xmlns="http://www.w3.org/2000/svg" width="169" height="116"><defs><linearGradient x1="48" y1="53.8" x2="120" y2="53.8" gradientUnits="userSpaceOnUse"><stop offset="0" stop-color="#333"/><stop offset="1" stop-color="#252525"/></linearGradient><linearGradient x1="26.397" y1="30.132" x2="142.512" y2="30.132" gradientUnits="userSpaceOnUse"><stop offset="0" stop-color="#333"/><stop offset="1" stop-color="#252525"/></linearGradient></defs><path d="M84.518 79.904c-20.898 0-41.797-.004-62.696.019-.684.001-.82-.134-.819-.819.026-14.066.026-28.131 0-42.197-.001-.685.135-.819.819-.819 41.797.021 83.594.021 125.392 0 .684 0 .821.134.819.819-.026 14.066-.026 28.131 0 42.197.002.685-.134.82-.819.819-20.898-.022-41.797-.018-62.696-.018zm33.671-16.524c-.288.398-.707.469-1.042.67-1.366.815-1.594 2.378-.398 3.417.703.611.347.727-.238.913-1.74.554-2.846 1.677-3.081 3.537-.272 2.156.541 3.798 2.465 4.8 3.587 1.869 7.25 1.857 10.847.09 2.642-1.298 3.455-4.326 1.887-6.795-.92-1.448-2.502-1.921-4.072-2.283-1.395-.321-2.819-.532-4.148-1.082-.509-.21-1.151-.488-1.057-1.168.084-.604.638-.897 1.229-1.017.945-.192 1.893-.372 2.837-.57 3.781-.789 5.673-5.561 3.297-8.359-.37-.436-.3-.632.276-.633l.699-.003c1.785-.003 1.76-.011 1.74-1.769-.01-.8-.344-1.037-1.09-1.028-2.064.027-4.129.025-6.193.001-1.012-.011-1.997.141-2.953.426-2.194.653-3.784 1.953-4.236 4.307-.42 2.188.103 4.098 1.875 5.559.427.352.896.653 1.357.985zm-71.691-20.48c-.696-.052-1.653.06-2.608.225-3.192.552-5.986 1.917-8.09 4.391-2.576 3.03-3.701 6.571-3.188 10.569.562 4.375 2.806 7.666 6.615 9.787 4.456 2.481 9.157 2.207 13.856.758 2.973-.916 2.956-.97 2.929-4.071-.012-1.328-.118-1.374-1.249-.748-3.166 1.753-6.505 2.751-10.157 2.066-3.889-.73-6.664-2.842-7.737-6.761-1.02-3.72-.244-7.122 2.523-9.836 2.611-2.561 5.917-3.159 9.458-2.673 2.142.294 4.122 1.066 5.993 2.122.624.353.941.265.953-.478.014-.832 0-1.666.002-2.498.001-.498-.25-.797-.703-.978-2.675-1.07-5.401-1.909-8.599-1.875zm30.805 17.601c-.008-5.119-3.924-8.826-9.342-8.785-5.145.039-9.078 3.73-9.057 8.804.023 5.501 3.745 9.13 9.21 9.169 5.355.039 9.197-3.836 9.189-9.188zm63.24.798v-.003c1.664 0 3.329-.028 4.993.012.838.02 1.114-.322 1.085-1.129-.045-1.246-.325-2.436-.695-3.613-.88-2.795-2.788-4.416-5.679-4.77-2.855-.35-5.368.439-7.22 2.733-1.88 2.329-2.253 5.055-1.746 7.922.448 2.532 1.629 4.64 3.876 6.02 2.906 1.784 5.927 1.444 8.937.346 2.228-.813 2.402-1.158 2.303-3.536-.041-.966-.223-1.075-1.063-.567-1.298.785-2.672 1.342-4.189 1.517-2.798.322-5.447-.741-6.296-4.047-.183-.711.043-.897.701-.89 1.664.017 3.327.006 4.993.006zm-34.309-.004c1.067 0 2.133.018 3.199-.003 2.969-.058 3.06.606 2.544-2.897-.314-2.127-1.093-4.084-2.934-5.375-2.961-2.076-7.431-1.683-9.929.938-2.35 2.466-2.827 5.487-2.181 8.737.482 2.425 1.654 4.424 3.787 5.757 2.753 1.722 5.658 1.475 8.57.518 2.456-.807 2.652-1.174 2.54-3.737-.032-.731-.213-.891-.874-.504-1.273.744-2.624 1.287-4.099 1.517-3.056.476-5.822-1.262-6.433-4.04-.146-.666.023-.924.713-.915 1.698.022 3.398.007 5.098.005zm-25.215-4.974v10.982c0 2.005 0 2.005 1.998 1.994 1.384-.007 1.412-.028 1.412-1.386.002-7.488.005-14.975-.001-22.462-.002-2.346.225-2.098-2.151-2.157-.943-.023-1.286.28-1.277 1.25.043 3.926.019 7.853.018 11.78zm8.386-.015v10.998c0 2.002-.001 2.002 2.012 1.991 1.375-.007 1.395-.021 1.395-1.403.002-7.499.004-14.998-.001-22.497-.001-2.284.215-2.084-2.106-2.086-1.247-.001-1.296.05-1.298 1.298-.004 3.901-.002 7.8-.002 11.699zm-61.379 3.515h-.005c0-2.164.006-4.328-.002-6.492-.005-1.125-.103-1.178-1.13-.882-1.214.351-2.439.666-3.659.996-.37.1-.899.053-.912.588-.015.59.545.465.904.54 1.41.296 1.593.488 1.598 1.923.011 3.13.011 6.26.004 9.389-.004 1.839-.095 1.934-1.86 2.334-.362.082-.916.012-.877.591.044.638.614.498 1.016.5 2.164.015 4.328.015 6.492 0 .4-.002.977.132.995-.52.016-.605-.558-.571-.957-.654-1.394-.288-1.59-.49-1.6-1.921-.017-2.131-.006-4.261-.006-6.392zm.419-14.368c.017-1.273-.772-2.138-1.969-2.161-1.194-.023-2.048.832-2.07 2.072-.023 1.26.778 2.135 1.974 2.156 1.21.022 2.047-.817 2.065-2.067z" fill="none"/><path d="M118.189 63.38c-.461-.332-.93-.633-1.357-.985-1.772-1.462-2.295-3.372-1.875-5.559.452-2.355 2.042-3.655 4.236-4.307.957-.284 1.942-.437 2.953-.426 2.064.024 4.13.026 6.193-.001.746-.01 1.08.228 1.09 1.028.019 1.757.045 1.765-1.74 1.769l-.699.003c-.575.001-.646.198-.276.633 2.376 2.798.485 7.57-3.297 8.359-.944.197-1.892.377-2.837.57-.591.12-1.144.414-1.229 1.017-.095.68.548.957 1.057 1.168 1.329.549 2.754.76 4.148 1.082 1.57.362 3.152.835 4.072 2.283 1.568 2.468.755 5.497-1.887 6.795-3.596 1.767-7.259 1.779-10.847-.09-1.925-1.003-2.738-2.645-2.465-4.8.235-1.861 1.341-2.983 3.081-3.537.584-.186.941-.303.238-.913-1.196-1.039-.969-2.602.398-3.417.336-.2.755-.271 1.043-.67zm3.095 11.72c1.119.086 2.239-.036 3.293-.496 1.51-.659 1.807-2.14.663-3.179-1.5-1.361-5.458-1.779-7.19-.726-.756.46-1.437 1.056-1.35 2.046.09 1.033.768 1.651 1.716 1.993.921.333 1.874.427 2.868.362zm-3.258-16.924c-.02 1.715 1.399 3.046 3.271 3.067 1.757.019 3.247-1.386 3.276-3.089.024-1.418-1.61-2.965-3.191-3.019-1.723-.059-3.338 1.405-3.356 3.041z" fill="#bfccd4" fill-rule="evenodd"/><path d="M46.498 42.9c3.198-.034 5.923.806 8.599 1.875.452.181.704.481.703.978-.002.833.011 1.666-.002 2.498-.013.743-.329.831-.953.478-1.87-1.056-3.851-1.828-5.993-2.122-3.541-.487-6.846.112-9.458 2.673-2.767 2.714-3.543 6.116-2.523 9.836 1.074 3.919 3.848 6.03 7.737 6.761 3.652.686 6.992-.314 10.157-2.066 1.131-.626 1.237-.579 1.249.748.027 3.101.044 3.154-2.929 4.071-4.699 1.449-9.4 1.723-13.856-.758-3.809-2.121-6.054-5.414-6.615-9.787-.513-3.999.612-7.54 3.188-10.569 2.104-2.474 4.897-3.839 8.09-4.391.955-.165 1.912-.276 2.608-.225z" fill="#bfccd4" fill-rule="evenodd"/><path d="M77.303 60.501c.009 5.351-3.834 9.227-9.188 9.189-5.466-.039-9.188-3.668-9.21-9.169-.021-5.074 3.912-8.765 9.057-8.804 5.418-.041 9.333 3.666 9.341 8.785zm-14.692.195c.006 3.392 2.182 5.786 5.278 5.805 3.529.022 5.748-2.291 5.739-5.983-.008-3.208-2.436-5.622-5.639-5.608-3.202.013-5.384 2.361-5.378 5.786z" fill="#bfccd4" fill-rule="evenodd"/><path d="M140.542 61.299c-1.665 0-3.329.011-4.994-.006-.658-.007-.884.179-.701.89.849 3.306 3.498 4.37 6.296 4.047 1.517-.175 2.891-.732 4.189-1.517.84-.507 1.022-.398 1.063.567.099 2.379-.074 2.723-2.303 3.536-3.01 1.098-6.031 1.439-8.937-.346-2.247-1.38-3.428-3.487-3.876-6.02-.507-2.868-.134-5.593 1.746-7.922 1.853-2.295 4.364-3.083 7.22-2.733 2.891.354 4.799 1.974 5.679 4.77.37 1.177.65 2.367.695 3.613.029.807-.247 1.149-1.085 1.129-1.664-.04-3.329-.012-4.993-.012l.002.003zm-1.732-2.399v.005c.83 0 1.661-.032 2.489.006 1.857.088 2.035-.151 1.309-2.101-.068-.183-.185-.351-.305-.508-1.141-1.51-2.711-1.682-4.392-1.312-1.626.358-2.486 1.542-2.977 3.049-.205.631.1.861.689.861l3.187.001z" fill="#bfccd4" fill-rule="evenodd"/><path d="M106.233 61.296c-1.699.002-3.399.016-5.098-.006-.689-.009-.859.249-.713.915.612 2.778 3.377 4.516 6.433 4.04 1.475-.229 2.826-.772 4.099-1.517.662-.387.843-.227.874.504.113 2.563-.083 2.931-2.54 3.737-2.913.957-5.818 1.204-8.57-.518-2.133-1.334-3.305-3.332-3.787-5.757-.646-3.25-.169-6.271 2.181-8.737 2.498-2.621 6.968-3.013 9.929-.938 1.841 1.29 2.62 3.248 2.934 5.375.516 3.503.425 2.84-2.544 2.897-1.065.021-2.132.003-3.198.004zm-1.784-2.395v.004c.996 0 1.993.007 2.99-.002 1.169-.011 1.399-.349 1.025-1.476-.631-1.903-2.064-2.748-4.3-2.536-1.847.175-3.431 1.604-3.668 3.273-.092.645.281.734.763.736 1.063.003 2.127 0 3.19 0z" fill="#bfccd4" fill-rule="evenodd"/><path d="M81.018 56.321c0-3.927.025-7.854-.017-11.781-.011-.97.334-1.273 1.277-1.25 2.376.059 2.149-.188 2.151 2.157.006 7.488.003 14.975.001 22.462 0 1.357-.028 1.378-1.412 1.386-1.998.011-1.998.011-1.998-1.994-.001-3.659-.001-7.32-.001-10.981z" fill="#bfccd4" fill-rule="evenodd"/><path d="M89.404 56.306c0-3.899-.002-7.799.002-11.698.002-1.248.051-1.3 1.298-1.298 2.321.002 2.105-.198 2.106 2.086.005 7.499.002 14.998.001 22.497 0 1.382-.019 1.397-1.395 1.403-2.013.011-2.013.011-2.012-1.991v-10.999z" fill="#bfccd4" fill-rule="evenodd"/><path d="M28.025 59.82c0 2.131-.011 4.261.004 6.393.01 1.431.207 1.633 1.6 1.921.398.082.974.048.957.654-.018.65-.595.516-.995.52-2.164.016-4.328.015-6.492 0-.402-.002-.972.137-1.016-.5-.039-.579.516-.509.877-.591 1.765-.399 1.856-.494 1.86-2.334.006-3.13.007-6.26-.004-9.389-.006-1.436-.187-1.627-1.598-1.923-.359-.075-.918.05-.904-.54.013-.535.543-.488.912-.588 1.22-.331 2.445-.646 3.659-.996 1.027-.296 1.126-.242 1.13.882.008 2.165.002 4.328.002 6.492l.006-.001z" fill="#f3c435" fill-rule="evenodd"/><path d="M28.444 45.453c-.017 1.25-.855 2.089-2.064 2.067-1.196-.021-1.997-.895-1.974-2.156.022-1.239.876-2.094 2.07-2.072 1.197.022 1.985.888 1.968 2.161z" fill="#f3c435" fill-rule="evenodd"/><path d="M121.284 75.1c-.995.065-1.947-.029-2.868-.362-.949-.343-1.626-.96-1.716-1.993-.086-.99.594-1.586 1.35-2.046 1.733-1.053 5.691-.635 7.19.726 1.144 1.039.848 2.519-.663 3.179-1.054.461-2.174.583-3.293.496z" fill="none"/><path d="M118.027 58.175c.019-1.636 1.634-3.1 3.356-3.041 1.58.054 3.215 1.601 3.191 3.019-.029 1.703-1.52 3.108-3.276 3.089-1.871-.022-3.291-1.353-3.27-3.068z" fill="none"/><path d="M62.611 60.695c-.006-3.425 2.176-5.773 5.378-5.787 3.203-.014 5.63 2.401 5.639 5.608.009 3.692-2.21 6.005-5.739 5.983-3.095-.019-5.272-2.413-5.278-5.805z" fill="none"/><path d="M138.811 58.9h-3.186c-.589 0-.894-.229-.689-.861.49-1.506 1.351-2.691 2.977-3.049 1.681-.37 3.251-.198 4.392 1.312.119.157.237.326.305.508.725 1.95.548 2.188-1.309 2.101-.827-.039-1.659-.006-2.489-.006l-.001-.006z" fill="none"/><path d="M104.449 58.901c-1.063 0-2.127.002-3.19-.001-.482-.002-.855-.09-.763-.736.238-1.669 1.821-3.098 3.668-3.273 2.236-.213 3.669.633 4.3 2.536.374 1.127.144 1.465-1.025 1.476-.997.01-1.993.002-2.99.002v-.003z" fill="none"/></svg>