<svg xmlns="http://www.w3.org/2000/svg" width="169" height="116"><defs><linearGradient x1="48" y1="53.8" x2="120" y2="53.8" id="a" gradientUnits="userSpaceOnUse"><stop offset="0" stop-color="#333"/><stop offset="1" stop-color="#252525"/></linearGradient><linearGradient x1="26.397" y1="30.132" x2="142.512" y2="30.132" id="b" gradientUnits="userSpaceOnUse"><stop offset="0" stop-color="#333"/><stop offset="1" stop-color="#252525"/></linearGradient></defs><g transform="matrix(1.094 0 0 1.094 -7.912 -2.293)"><linearGradient x1="48" y1="53.8" x2="120" y2="53.8" gradientUnits="userSpaceOnUse"><stop offset="0" stop-color="#333"/><stop offset="1" stop-color="#252525"/></linearGradient><path d="M48 37v25s33 20 72-1v-24h-72z" fill="url(#a)" stroke="#e4e9d6" stroke-width="2" stroke-miterlimit="10"/><linearGradient x1="26.397" y1="30.132" x2="142.512" y2="30.132" gradientUnits="userSpaceOnUse"><stop offset="0" stop-color="#333"/><stop offset="1" stop-color="#252525"/></linearGradient><polygon points="84.652,54.764 142.512,27.764 84.652,5.5 26.397,27.764" fill="url(#b)" stroke="#e4e9d6" stroke-width="1.5" stroke-miterlimit="10"/><polygon points="118,81 114,81 114,43.848 81.886,32.492 83.332,28.693 118,41.004" fill="#eece57"/><circle cx="115.744" cy="70.54" r="4.874" fill="#eece57"/><polygon points="110.417,87 116.021,77.293 121.626,87" fill="#eece57"/></g></svg>