<svg xmlns="http://www.w3.org/2000/svg" width="24.3" height="16"><style type="text/css"><![CDATA[
	.st0{clip-path:url(#SVGID_2_);fill:url(#SVGID_3_);}
	.st1{clip-path:url(#SVGID_2_);fill:url(#SVGID_4_);}
	.st2{clip-path:url(#SVGID_2_);fill:url(#SVGID_5_);}
	.st3{clip-path:url(#SVGID_2_);fill:url(#SVGID_6_);}
	.st4{stroke:#000000;stroke-width:2.673300e-002;stroke-miterlimit:10;}
	.st5{opacity:0.3;fill-rule:evenodd;clip-rule:evenodd;fill:#FFFFFF;}
	.st6{fill:#848484;}
	.st7{fill:#1E1E24;}
	.st8{fill:#231F20;}
	.st9{fill-rule:evenodd;clip-rule:evenodd;fill:#848484;}
	.st10{fill-rule:evenodd;clip-rule:evenodd;fill:#1E1E24;}
	.st11{fill:#FFFFFF;}
	.st12{fill:#333333;}
	.st13{fill:none;stroke:#1E1E24;stroke-width:2;stroke-miterlimit:10;}
	.st14{fill:#1E1E24;enable-background:new    ;}
	.st15{fill-rule:evenodd;clip-rule:evenodd;fill:#FFFFFF;}
	.st16{opacity:0.3;fill-rule:evenodd;clip-rule:evenodd;fill:#1E1E24;}
	.st17{fill-rule:evenodd;clip-rule:evenodd;fill:none;stroke:#1E1E24;stroke-miterlimit:10;}
]]></style><path class="st6" d="M8.1 2.5c0 .9-.6 1.5-1.6 1.5s-1.6-.7-1.6-1.5.6-1.5 1.6-1.5 1.6.7 1.6 1.5zm-3.1 12.5v-9.8h3v9.8h-3zm4.8-6.7c0-1.2 0-2.2-.1-3.1h2.6l.1 1.4h.1c.5-.7 1.5-1.6 3.1-1.6 2 0 3.5 1.3 3.5 4.2v5.8h-3v-5.4c0-1.3-.4-2.1-1.5-2.1-.8 0-1.3.6-1.6 1.1-.1.2-.1.5-.1.8v5.6h-3v-6.7z"/></svg>