<svg width="160" height="70" xmlns="http://www.w3.org/2000/svg">
 <g>
  <title>Layer 1</title>
  <g id="svg_29">
   <g id="svg_1">
    <path id="svg_2" d="m84.885033,19.702999c-2.016846,0.88656 -3.656647,1.241182 -5.761932,1.241182c-4.632545,0 -8.045891,-3.236048 -8.045891,-7.669272c0,-4.455221 3.502228,-7.846133 8.112335,-7.846133c1.773094,0 3.014275,0.288643 5.3862,1.285178l0,2.195072c-1.773109,-0.975893 -3.612656,-1.485824 -5.430199,-1.485824c-3.280487,0 -5.829277,2.504792 -5.829277,5.785717c0,3.368912 2.526794,5.739954 6.11747,5.739954c1.174728,0 2.238609,-0.265747 3.280472,-0.598373l0,-3.10272l-2.903412,0l0,-1.950875l5.075577,0l0,6.406096l-0.001343,0l0,-0.000002z" fill="#ffffff"/>
    <path id="svg_3" d="m95.632774,19.769436c-1.197182,0.798136 -2.283051,1.174746 -3.968178,1.174746c-3.102715,0 -4.831841,-2.549248 -4.831841,-5.297335c0,-3.014733 1.905983,-5.054039 4.654541,-5.054039c2.637215,0 4.322342,1.795552 4.322342,5.474201l-7.004463,0c0.309738,1.97332 1.440483,2.992296 3.346916,2.992296c1.197174,0 2.327934,-0.442602 3.480232,-1.196737l0.00045,1.906874l0,0l0,-0.000006zm-1.773552,-5.009149c-0.066444,-1.506467 -0.930092,-2.459461 -2.327034,-2.459461c-1.507378,0 -2.416367,0.88656 -2.683022,2.459461l5.010056,0z" fill="#ffffff"/>
    <path id="svg_4" d="m107.976326,15.668836c0,3.147603 -2.194626,5.275346 -5.385773,5.275346c-3.058739,0 -5.253349,-2.216623 -5.253349,-5.275346c0,-2.858968 2.283058,-5.076039 5.253349,-5.076039c3.125168,0 5.385773,2.128192 5.385773,5.076039zm-8.621811,0c0,2.105741 1.307152,3.502231 3.213608,3.502231c2.083733,0 3.391342,-1.330061 3.391342,-3.479792c0,-1.928423 -1.418045,-3.324908 -3.391342,-3.324908c-1.861549,0 -3.213608,1.396485 -3.213608,3.302469z" fill="#ffffff"/>
    <path id="svg_5" d="m111.830917,10.792551l0,2.283045l0.044441,0c0.998329,-1.750212 1.951332,-2.481899 2.881882,-2.481899c0.797676,0 1.551796,0.377067 2.371475,1.152293l-1.041428,1.70713c-0.598808,-0.576373 -1.374496,-0.975892 -1.839539,-0.975892c-1.352966,0 -2.416832,1.352502 -2.416832,3.05873l0,5.208903l-1.973305,0l0,-9.952312l1.973305,0l0,0l0,0.000002z" fill="#ffffff"/>
    <path id="svg_6" d="m126.215126,12.321926l-2.039299,0c0.776123,0.776129 1.041428,1.330062 1.041428,2.172163c0,0.820137 -0.465065,1.773121 -0.93055,2.238625c-1.330063,1.418472 -4.034164,0.709242 -4.034164,1.883982c0,0.553476 1.041862,0.88656 3.037628,1.285173c2.127281,0.421059 2.881424,1.506916 2.881424,2.770983c0,1.97287 -1.751129,3.169598 -4.699425,3.169598c-2.682564,0 -4.588539,-1.26317 -4.588539,-3.014282c0,-1.462934 0.776123,-2.327944 2.50486,-2.748543c-0.686821,-0.421068 -0.997879,-0.820126 -0.997879,-1.263178c0,-0.642813 0.620811,-1.196745 1.573814,-1.418497l0,-0.044441c-0.731285,-0.309734 -1.28524,-0.731686 -1.662239,-1.262718c-0.354637,-0.510383 -0.531937,-1.131194 -0.531937,-1.861545c0,-2.127728 1.662178,-3.43579 4.344337,-3.43579l4.100594,0l0,1.528467l0,0l0,0.000006l-0.000015,0l-0.000008,0l-0.000015,0l-0.000015,0l0,-0.000002zm-5.208908,8.910448c-1.330063,0 -2.261047,0.620811 -2.261047,1.50691c0,0.99744 0.975418,1.528923 2.770973,1.528923c1.728691,0 2.748093,-0.532381 2.748093,-1.440493c0,-1.262714 -2.038841,-1.595341 -3.258018,-1.595341zm0.509941,-8.733144c-1.086319,0 -1.973312,0.819669 -1.973312,1.795103c0,1.086316 0.797676,1.817554 1.994408,1.817554c1.108307,0 1.906441,-0.776129 1.906441,-1.861545c0.0009,-0.952983 -0.886559,-1.751113 -1.927536,-1.751113l0,0.000001z" fill="#ffffff"/>
    <path id="svg_7" d="m128.783661,8.953009c-0.642792,0 -1.174286,-0.532383 -1.174286,-1.17474c0,-0.642364 0.532394,-1.174746 1.174286,-1.174746c0.642838,0 1.174759,0.532839 1.174759,1.174746c0.000443,0.642357 -0.531494,1.17474 -1.174759,1.17474zm0.975891,11.791866l-1.973312,0l0,-9.952311l1.973312,0l0,9.952311z" fill="#ffffff"/>
    <path id="svg_8" d="m140.308884,20.168053c-0.908539,0.598824 -1.285172,0.776129 -1.905975,0.776129c-0.864563,0 -1.330063,-0.310188 -1.506927,-1.01943c-0.864563,0.686804 -1.773117,1.01943 -2.682571,1.01943c-1.462906,0 -2.438339,-1.151857 -2.438339,-2.438366c0,-1.973322 1.795105,-2.57169 3.3918,-3.148063l1.750214,-0.620356l0,-0.532383c0,-1.241625 -0.598373,-1.750663 -1.795105,-1.750663c-1.086304,0 -2.194626,0.509932 -3.147598,1.639782l0,-2.149731c0.776123,-0.908544 1.861526,-1.352501 3.302475,-1.352501c2.016846,0 3.612656,1.01943 3.612656,3.280936l0,5.120017c0,0.376629 0.133316,0.509493 0.37706,0.509493c0.199295,0 0.598358,-0.199305 1.041412,-0.531931l0.0009,1.197636l0,0zm-3.3909,-4.343903c-1.684662,0.576378 -3.147598,1.152313 -3.147598,2.327942c0,0.820118 0.598358,1.396036 1.418488,1.396036c0.620819,0 1.197174,-0.309732 1.729111,-0.819664l0,-2.904314z" fill="#ffffff"/>
    <path id="svg_9" d="m76.240776,26.128838c3.30246,0 4.809845,1.951315 4.809845,4.345247c0,2.371031 -1.595802,4.233465 -5.097588,4.233465l-2.261055,0l0,6.538521l-2.172165,0l0,-15.117233l4.720963,0zm-2.548782,6.627403l2.46035,0c1.617798,0 2.659683,-0.865009 2.659683,-2.371931c0,-1.108299 -0.598381,-2.305048 -2.571243,-2.305048l-2.54879,0l0,4.676979l0,0z" fill="#ffffff"/>
    <path id="svg_10" d="m89.981262,40.27018c-1.196739,0.798115 -2.283051,1.17474 -3.967712,1.17474c-3.103188,0 -4.831848,-2.549244 -4.831848,-5.297329c0,-3.01474 1.906433,-5.054037 4.654518,-5.054037c2.63813,0 4.32235,1.795553 4.32235,5.474188l-7.004005,0c0.310181,1.973324 1.440483,2.992302 3.347359,2.992302c1.196747,0 2.327492,-0.442604 3.47979,-1.196751l-0.00045,1.906891l0,0l0,-0.000004zm-1.773117,-5.010036c-0.065979,-1.506474 -0.930542,-2.459461 -2.327484,-2.459461c-1.50737,0 -2.415916,0.886559 -2.682564,2.459461l5.010048,0z" fill="#ffffff"/>
    <path id="svg_11" d="m94.168503,31.293316l0,2.283043l0.044891,0c0.997879,-1.750212 1.950867,-2.481899 2.880966,-2.481899c0.798119,0 1.551804,0.377066 2.371925,1.15229l-1.041855,1.707127c-0.597916,-0.576374 -1.374046,-0.97588 -1.839561,-0.97588c-1.352043,0 -2.416367,1.352505 -2.416367,3.058739l0,5.208889l-1.972862,0l0,-9.952755l1.972862,0l0,0.00045l0,-0.000004l0,0z" fill="#ffffff"/>
    <path id="svg_12" d="m101.880867,29.453766c-0.643265,0 -1.174294,-0.532383 -1.174294,-1.17474c0,-0.642363 0.531929,-1.174746 1.174294,-1.174746c0.64325,0 1.174286,0.532837 1.174286,1.174746c0,0.642357 -0.531479,1.17474 -1.174286,1.17474zm0.975418,11.791847l-1.972855,0l0,-9.952763l1.972855,0l0,9.952763z" fill="#ffffff"/>
    <path id="svg_13" d="m107.575462,31.293316l0,1.308056c1.019432,-1.019426 1.973312,-1.506912 2.904305,-1.506912c1.262733,0 2.305054,0.620813 2.969864,1.795555c0.864555,-0.975437 1.905983,-1.795555 3.324471,-1.795555c2.016846,0 3.302017,1.551807 3.302017,3.900394l0,6.251221l-1.973312,0l0,-6.16235c0,-1.507359 -0.930092,-2.327484 -2.06131,-2.327484c-0.642792,-0.022888 -1.506905,0.531933 -2.216606,1.262718l0,7.225773l-1.972855,0l0,-6.183437c0,-1.617802 -0.820572,-2.305054 -1.795555,-2.305054c-0.997902,0 -1.662239,0.309288 -2.482819,1.262726l0,7.225777l-1.972862,0l0,-9.952311l1.974663,0.000887l0,0l0,-0.000004l0,0z" fill="#ffffff"/>
    <path id="svg_14" d="m130.757858,40.27018c-1.196732,0.798115 -2.283035,1.17474 -3.96727,1.17474c-3.103157,0 -4.832283,-2.549244 -4.832283,-5.297329c0,-3.01474 1.905983,-5.054037 4.654076,-5.054037c2.63768,0 4.322357,1.795553 4.322357,5.474188l-7.004433,0c0.309708,1.973324 1.44091,2.992302 3.346878,2.992302c1.196785,0 2.327492,-0.442604 3.479774,-1.196751l0.0009,1.906891l0,0l0,-0.000004zm-1.773087,-5.010036c-0.065521,-1.506474 -0.930084,-2.459461 -2.327484,-2.459461c-1.50692,0 -2.415916,0.886559 -2.682564,2.459461l5.010048,0z" fill="#ffffff"/>
    <path id="svg_15" d="m135.367081,31.293316l3.148041,0l0,1.773113l-3.148041,0l0,5.098022c0,1.17474 0.842102,1.506466 1.418488,1.506466c0.709213,0 1.440918,-0.243748 2.238602,-0.731236l0,1.839989c-0.687256,0.377068 -1.751114,0.664368 -2.393921,0.664368c-2.150177,0 -3.236038,-1.33007 -3.236038,-3.125172l0,-5.253349l-1.729126,0l0,-0.221291l3.701096,-3.613113l0.0009,2.062197l0,0l0,0.000008l0,-0.000002z" fill="#ffffff"/>
    <path id="svg_16" d="m148.75293,40.27018c-1.196732,0.798115 -2.283035,1.17474 -3.967285,1.17474c-3.103165,0 -4.832275,-2.549244 -4.832275,-5.297329c0,-3.01474 1.905991,-5.054037 4.654526,-5.054037c2.637665,0 4.322357,1.795553 4.322357,5.474188l-7.004028,0c0.310196,1.973324 1.440948,2.992302 3.346909,2.992302c1.196762,0 2.327957,-0.442604 3.479797,-1.196751l0,1.906891l0,-0.000004zm-1.773117,-5.010036c-0.065521,-1.506474 -0.930099,-2.459461 -2.327469,-2.459461c-1.506927,0 -2.415924,0.886559 -2.682571,2.459461l5.01004,0z" fill="#ffffff"/>
    <path id="svg_17" d="m152.896179,31.293316l0,2.283043l0.044449,0c0.997421,-1.750212 1.950867,-2.481899 2.881424,-2.481899c0.797684,0 1.551346,0.377066 2.37146,1.15229l-1.041397,1.707127c-0.598389,-0.576374 -1.374512,-0.97588 -1.840012,-0.97588c-1.352051,0 -2.415924,1.352505 -2.415924,3.058739l0,5.208889l-1.973312,0l0,-9.952755l1.973312,0l0,0.00045l0,-0.000004l0,0z" fill="#ffffff"/>
    <path id="svg_18" d="m84.508408,49.998951c-1.861549,-1.086754 -3.457794,-1.574249 -5.208908,-1.574249c-3.457794,0 -6.02903,2.459904 -6.02903,5.785736c0,3.391354 2.482361,5.740391 6.11747,5.740391c1.706673,0 3.568657,-0.59837 5.274887,-1.70713l0,2.371471c-1.485367,0.776119 -3.103172,1.330063 -5.47419,1.330063c-5.674408,0 -8.156769,-4.366783 -8.156769,-7.535946c0,-4.610531 3.47979,-7.978985 8.289642,-7.978985c1.551804,0 3.12516,0.37706 5.186447,1.241615l0,2.327492l0.000458,0l0,-0.00045l-0.000008,0l0,-0.000015l0,0.000008z" fill="#ffffff"/>
    <path id="svg_19" d="m96.652199,56.67033c0,3.147606 -2.195076,5.27536 -5.386673,5.27536c-3.057831,0 -5.252449,-2.216625 -5.252449,-5.27536c0,-2.858959 2.283066,-5.076023 5.252449,-5.076023c3.125626,0 5.386673,2.127735 5.386673,5.076023zm-8.622696,0c0,2.105755 1.30806,3.502239 3.214035,3.502239c2.084198,0 3.391357,-1.330063 3.391357,-3.479782c0,-1.928432 -1.418488,-3.324474 -3.391357,-3.324474c-1.861534,-0.0009 -3.214035,1.396042 -3.214035,3.302017z" fill="#ffffff"/>
    <path id="svg_20" d="m100.528816,61.74593l-1.97332,0l0,-15.116333l1.97332,0l0,15.116333z" fill="#ffffff"/>
    <path id="svg_21" d="m105.382187,61.74593l-1.972855,0l0,-15.116333l1.972855,0l0,15.116333z" fill="#ffffff"/>
    <path id="svg_22" d="m116.131271,60.770943c-1.196709,0.798134 -2.283035,1.174747 -3.967255,1.174747c-3.10318,0 -4.832291,-2.549244 -4.832291,-5.297337c0,-3.014748 1.905983,-5.054047 4.654518,-5.054047c2.637238,0 4.322357,1.795559 4.322357,5.474648l-7.004456,0c0.309746,1.97287 1.440933,2.992302 3.346924,2.992302c1.196709,0 2.327904,-0.443062 3.479744,-1.196751l0.000458,1.906437l0,0l-0.000008,0l0.000008,0l0,0zm-1.773109,-5.009605c-0.065529,-1.506908 -0.930092,-2.459908 -2.327477,-2.459908c-1.506912,0 -2.415932,0.886562 -2.682556,2.459908l5.010033,0z" fill="#ffffff"/>
    <path id="svg_23" d="m126.36998,53.323418l-2.038841,0c0.776123,0.776138 1.041435,1.330063 1.041435,2.17218c0,0.82011 -0.465515,1.773106 -0.931,2.238594c-1.33007,1.418491 -4.033714,0.709259 -4.033714,1.884003c0,0.553471 1.041412,0.886547 3.037178,1.285606c2.127724,0.42107 2.881409,1.506481 2.881409,2.770546c0,1.97287 -1.751099,3.169594 -4.699417,3.169594c-2.682549,0 -4.588539,-1.262726 -4.588539,-3.014286c0,-1.462921 0.776131,-2.327492 2.504845,-2.748539c-0.687286,-0.421066 -0.997856,-0.820137 -0.997856,-1.263191c0,-0.642811 0.620811,-1.196281 1.573792,-1.418045l0,-0.044888c-0.731293,-0.309723 -1.285217,-0.731678 -1.662216,-1.262714c-0.354179,-0.510395 -0.532394,-1.131203 -0.532394,-1.861546c0,-2.127731 1.662697,-3.435341 4.344795,-3.435341l4.100609,0l0,1.528004l0,0l-0.000008,0.000015l-0.000015,0.000008l-0.000015,0l-0.000015,0l-0.000031,0zm-5.208893,8.909996c-1.330063,0 -2.26107,0.620811 -2.26107,1.506927c0,0.997864 0.975441,1.528908 2.771004,1.528908c1.729126,0 2.748093,-0.531937 2.748093,-1.440487c0,-1.262268 -2.038841,-1.595348 -3.258026,-1.595348zm0.509941,-8.732689c-1.086319,0 -1.972862,0.820126 -1.972862,1.795109c0,1.086308 0.797676,1.817554 1.994415,1.817554c1.108292,0 1.905983,-0.776134 1.905983,-1.861546c0.000443,-0.95298 -0.886116,-1.751118 -1.927536,-1.751118z" fill="#ffffff"/>
    <path id="svg_24" d="m136.098312,60.770943c-1.196747,0.798134 -2.283051,1.174747 -3.967743,1.174747c-3.102722,0 -4.832275,-2.549244 -4.832275,-5.297337c0,-3.014748 1.905991,-5.054047 4.65451,-5.054047c2.63768,0 4.322357,1.795559 4.322357,5.474648l-7.00444,0c0.309708,1.97287 1.440918,2.992302 3.346497,2.992302c1.196762,0 2.327896,-0.443062 3.479752,-1.196751l0,1.905979l0.001343,0l0,0.000458zm-1.773102,-5.009605c-0.065994,-1.506908 -0.930542,-2.459908 -2.327957,-2.459908c-1.506454,0 -2.415909,0.886562 -2.682098,2.459908l5.010056,0z" fill="#ffffff"/>
   </g>
   <g id="svg_25">
    <rect id="svg_26" height="55.896979" width="3.194293" fill="#ffffff" y="5.811685" x="1.806488"/>
    <path id="svg_27" d="m8.744509,55.157127l0,-11.830013c3.960093,-8.614632 9.207602,-16.122288 18.114456,-23.900633c14.972239,-13.072998 29.980387,-16.270422 34.545595,-9.789377c5.294643,7.532812 -1.788826,23.68742 -16.76107,36.75412c-14.972239,13.073891 -29.529251,16.743107 -35.317227,9.583782c-0.211866,-0.25856 -0.405343,-0.532372 -0.581757,-0.817867l0,0m7.269305,6.55151l-7.268861,0l0,-5.898396c0.414773,0.811596 0.908551,1.568432 1.45261,2.248035c1.461586,1.798698 3.44388,3.009811 5.816251,3.650375l0,0m48.62274,-30.804102l0,30.804102l-38.845049,0c7.75815,-1.568424 16.966654,-6.372875 25.536383,-13.854954c5.534801,-4.830936 10.047928,-10.823151 13.308666,-16.949142l0,0m-55.892042,-25.092877l32.424582,0c-4.861008,3.027301 -9.864775,6.806947 -14.648132,10.979362c-8.985853,7.846127 -15.1922,17.430361 -17.776447,25.529661l0,-36.509023l0,0l-0.000002,0z" fill="#ffffff"/>
   </g>
  </g>
 </g>
</svg>