<svg xmlns="http://www.w3.org/2000/svg" width="156" height="61.263"><g transform="matrix(.448 0 0 .448 0 -2.267)" fill="#fff"><title>Layer 1</title><path d="M185.076 36.862c-4.493 1.975-8.146 2.765-12.836 2.765-10.32 0-17.924-7.209-17.924-17.085 0-9.925 7.802-17.479 18.072-17.479 3.95 0 6.715.643 11.999 2.863v4.89c-3.95-2.174-8.048-3.31-12.097-3.31-7.308 0-12.986 5.58-12.986 12.889 0 7.505 5.629 12.787 13.628 12.787 2.617 0 4.987-.592 7.308-1.333v-6.912h-6.468v-4.346h11.307v14.271h-.003zm23.943.148c-2.667 1.778-5.086 2.617-8.84 2.617-6.912 0-10.764-5.679-10.764-11.801 0-6.716 4.246-11.259 10.369-11.259 5.875 0 9.629 4 9.629 12.195h-15.604c.69 4.396 3.209 6.666 7.456 6.666 2.667 0 5.186-.986 7.753-2.666l.001 4.248zm-3.951-11.159c-.148-3.356-2.072-5.479-5.184-5.479-3.358 0-5.383 1.975-5.977 5.479h11.161zm31.449 2.024c0 7.012-4.889 11.752-11.998 11.752-6.814 0-11.703-4.938-11.703-11.752 0-6.369 5.086-11.308 11.703-11.308 6.962 0 11.998 4.741 11.998 11.308zm-19.207 0c0 4.691 2.912 7.802 7.159 7.802 4.642 0 7.555-2.963 7.555-7.752 0-4.296-3.159-7.407-7.555-7.407-4.147 0-7.159 3.111-7.159 7.357zm27.794-10.863v5.086h.099c2.224-3.899 4.347-5.529 6.42-5.529 1.777 0 3.457.84 5.283 2.567l-2.32 3.803c-1.334-1.284-3.062-2.174-4.098-2.174-3.014 0-5.384 3.013-5.384 6.814v11.604h-4.396v-22.171h4.396zm32.044 3.407h-4.543c1.729 1.729 2.32 2.963 2.32 4.839 0 1.827-1.036 3.95-2.073 4.987-2.963 3.16-8.987 1.58-8.987 4.197 0 1.233 2.321 1.975 6.767 2.863 4.739.938 6.419 3.357 6.419 6.173 0 4.395-3.901 7.061-10.469 7.061-5.976 0-10.222-2.814-10.222-6.715 0-3.259 1.729-5.186 5.58-6.123-1.53-.938-2.223-1.827-2.223-2.814 0-1.432 1.383-2.666 3.506-3.16v-.099c-1.629-.69-2.863-1.63-3.703-2.813-.79-1.137-1.185-2.52-1.185-4.147 0-4.74 3.703-7.654 9.678-7.654h9.135v3.405zm-11.604 19.85c-2.963 0-5.037 1.383-5.037 3.357 0 2.222 2.173 3.406 6.173 3.406 3.851 0 6.122-1.186 6.122-3.209 0-2.813-4.542-3.554-7.258-3.554zm1.136-19.455c-2.42 0-4.396 1.826-4.396 3.999 0 2.42 1.777 4.049 4.443 4.049 2.469 0 4.247-1.729 4.247-4.147.002-2.123-1.975-3.901-4.294-3.901zm16.19-7.9c-1.432 0-2.616-1.186-2.616-2.617s1.186-2.617 2.616-2.617c1.432 0 2.617 1.187 2.617 2.617.001 1.431-1.184 2.617-2.617 2.617zm2.174 26.269h-4.396v-22.171h4.396v22.171zm23.501-1.285c-2.024 1.334-2.863 1.729-4.246 1.729-1.926 0-2.963-.691-3.357-2.271-1.926 1.53-3.95 2.271-5.976 2.271-3.259 0-5.432-2.566-5.432-5.432 0-4.396 3.999-5.729 7.556-7.013l3.899-1.382v-1.186c0-2.766-1.333-3.9-3.999-3.9-2.42 0-4.889 1.136-7.012 3.653v-4.789c1.729-2.024 4.147-3.013 7.357-3.013 4.493 0 8.048 2.271 8.048 7.309v11.406c0 .839.297 1.135.84 1.135.444 0 1.333-.444 2.32-1.185l.002 2.668zm-7.554-9.677c-3.753 1.284-7.012 2.567-7.012 5.186 0 1.827 1.333 3.11 3.16 3.11 1.383 0 2.667-.69 3.852-1.826v-6.47zm-135.172 22.956c7.357 0 10.715 4.347 10.715 9.68 0 5.282-3.555 9.431-11.356 9.431h-5.037v14.566h-4.839v-33.677h10.517zm-5.678 14.764h5.481c3.604 0 5.925-1.927 5.925-5.284 0-2.469-1.333-5.135-5.728-5.135h-5.678v10.419zm36.288 16.739c-2.666 1.778-5.086 2.617-8.839 2.617-6.913 0-10.764-5.679-10.764-11.801 0-6.716 4.247-11.259 10.369-11.259 5.877 0 9.629 4 9.629 12.195h-15.603c.691 4.396 3.209 6.666 7.457 6.666 2.666 0 5.185-.986 7.752-2.666l-.001 4.248zm-3.95-11.161c-.147-3.356-2.073-5.479-5.185-5.479-3.358 0-5.382 1.975-5.976 5.479h11.161zm13.278-8.837v5.086h.1c2.223-3.899 4.346-5.529 6.418-5.529 1.778 0 3.457.84 5.284 2.567l-2.321 3.803c-1.332-1.284-3.061-2.174-4.098-2.174-3.012 0-5.383 3.013-5.383 6.814v11.604h-4.395v-22.172h4.395v.001zm17.181-4.098c-1.433 0-2.616-1.186-2.616-2.617s1.185-2.617 2.616-2.617c1.433 0 2.616 1.187 2.616 2.617 0 1.431-1.184 2.617-2.616 2.617zm2.173 26.269h-4.395v-22.172h4.395v22.172zm10.513-22.171v2.914c2.271-2.271 4.396-3.357 6.47-3.357 2.813 0 5.135 1.383 6.616 4 1.926-2.173 4.246-4 7.406-4 4.493 0 7.356 3.457 7.356 8.689v13.926h-4.396v-13.728c0-3.358-2.072-5.185-4.592-5.185-1.432-.051-3.357 1.185-4.938 2.813v16.097h-4.395v-13.775c0-3.604-1.828-5.135-4-5.135-2.223 0-3.703.689-5.531 2.813v16.097h-4.395v-22.171l4.399.002zm51.644 19.998c-2.666 1.778-5.086 2.617-8.838 2.617-6.913 0-10.765-5.679-10.765-11.801 0-6.716 4.246-11.259 10.368-11.259 5.876 0 9.629 4 9.629 12.195h-15.604c.69 4.396 3.21 6.666 7.456 6.666 2.666 0 5.185-.986 7.752-2.666l.002 4.248zm-3.95-11.161c-.146-3.356-2.072-5.479-5.185-5.479-3.357 0-5.382 1.975-5.976 5.479h11.161zm14.218-8.837h7.013v3.95h-7.013v11.357c0 2.617 1.876 3.356 3.16 3.356 1.58 0 3.21-.543 4.987-1.629v4.099c-1.531.84-3.901 1.48-5.333 1.48-4.79 0-7.209-2.963-7.209-6.962v-11.703h-3.852v-.493l8.245-8.049.002 4.594zm29.82 19.998c-2.666 1.778-5.086 2.617-8.838 2.617-6.913 0-10.765-5.679-10.765-11.801 0-6.716 4.246-11.259 10.369-11.259 5.876 0 9.629 4 9.629 12.195h-15.603c.691 4.396 3.21 6.666 7.456 6.666 2.666 0 5.186-.986 7.752-2.666v4.248zm-3.95-11.161c-.146-3.356-2.072-5.479-5.185-5.479-3.357 0-5.382 1.975-5.976 5.479h11.161zm13.18-8.837v5.086h.099c2.222-3.899 4.346-5.529 6.419-5.529 1.777 0 3.456.84 5.283 2.567l-2.32 3.803c-1.333-1.284-3.062-2.174-4.099-2.174-3.012 0-5.382 3.013-5.382 6.814v11.604h-4.396v-22.172h4.396v.001zm-152.349 41.671c-4.147-2.421-7.703-3.507-11.604-3.507-7.703 0-13.431 5.48-13.431 12.889 0 7.555 5.53 12.788 13.628 12.788 3.802 0 7.95-1.333 11.751-3.803v5.283c-3.309 1.729-6.913 2.963-12.195 2.963-12.641 0-18.171-9.728-18.171-16.788 0-10.271 7.752-17.775 18.467-17.775 3.457 0 6.962.84 11.554 2.766v5.185h.001v-.001zm27.053 14.862c0 7.012-4.89 11.752-12 11.752-6.812 0-11.701-4.938-11.701-11.752 0-6.369 5.086-11.308 11.701-11.308 6.963 0 12 4.74 12 11.308zm-19.209 0c0 4.691 2.914 7.802 7.16 7.802 4.643 0 7.555-2.963 7.555-7.752 0-4.296-3.16-7.406-7.555-7.406-4.147-.002-7.16 3.11-7.16 7.356zm27.845 11.307h-4.396v-33.675h4.396v33.675zm10.812 0h-4.395v-33.675h4.395v33.675zm23.946-2.172c-2.666 1.778-5.086 2.617-8.838 2.617-6.913 0-10.765-5.679-10.765-11.801 0-6.716 4.246-11.259 10.369-11.259 5.875 0 9.629 4 9.629 12.196h-15.604c.69 4.395 3.21 6.666 7.456 6.666 2.666 0 5.186-.987 7.752-2.666l.001 4.247zm-3.95-11.16c-.146-3.357-2.072-5.48-5.185-5.48-3.357 0-5.382 1.975-5.976 5.48h11.161zm26.759-5.431h-4.542c1.729 1.729 2.32 2.963 2.32 4.839 0 1.827-1.037 3.95-2.074 4.987-2.963 3.16-8.986 1.58-8.986 4.197 0 1.233 2.32 1.975 6.766 2.864 4.74.938 6.419 3.356 6.419 6.172 0 4.395-3.901 7.061-10.469 7.061-5.976 0-10.222-2.813-10.222-6.715 0-3.259 1.729-5.185 5.58-6.123-1.531-.938-2.223-1.827-2.223-2.814 0-1.432 1.383-2.665 3.506-3.159v-.1c-1.629-.69-2.863-1.63-3.703-2.813-.789-1.137-1.186-2.52-1.186-4.147 0-4.74 3.704-7.653 9.679-7.653h9.135v3.404zm-11.604 19.849c-2.963 0-5.037 1.383-5.037 3.357 0 2.223 2.173 3.406 6.173 3.406 3.852 0 6.122-1.185 6.122-3.209 0-2.812-4.542-3.554-7.258-3.554zm1.136-19.454c-2.42 0-4.395 1.827-4.395 3.999 0 2.42 1.777 4.049 4.443 4.049 2.469 0 4.246-1.729 4.246-4.147.001-2.123-1.974-3.901-4.294-3.901zm32.14 16.196c-2.666 1.778-5.086 2.617-8.839 2.617-6.912 0-10.765-5.679-10.765-11.801 0-6.716 4.246-11.259 10.369-11.259 5.876 0 9.629 4 9.629 12.196h-15.604c.69 4.395 3.21 6.666 7.455 6.666 2.666 0 5.186-.987 7.752-2.666v4.246h.003v.001zm-3.95-11.16c-.147-3.357-2.073-5.48-5.186-5.48-3.356 0-5.382 1.975-5.975 5.48h11.161z" fill="#fff"/><g fill="#fff"><rect width="7.116" height="124.523" y="5.916"/><path d="M15.456 115.844v-26.354c8.822-19.191 20.512-35.916 40.354-53.244 33.354-29.123 66.788-36.246 76.958-21.808 11.795 16.781-3.985 52.769-37.339 81.878-33.354 29.125-65.783 37.299-78.677 21.35-.472-.576-.903-1.186-1.296-1.822m16.194 14.595h-16.193v-13.14c.924 1.808 2.024 3.494 3.236 5.008 3.256 4.007 7.672 6.705 12.957 8.132m139.968 61.816v68.623h-86.536c125.601-72.117 146.115-82.82 165.206-99.488 12.33-10.762 22.384-24.111 29.648-37.758m15.456 5.916h72.233c-135.341-49.156-146.488-40.736-157.144-31.441-20.018 17.479-33.844 38.83-39.601 56.873v-81.332z"/></g></g></svg>