<svg xmlns="http://www.w3.org/2000/svg" width="169" height="116"><defs><linearGradient x1="48" y1="53.8" x2="120" y2="53.8" gradientUnits="userSpaceOnUse"><stop offset="0" stop-color="#333"/><stop offset="1" stop-color="#252525"/></linearGradient><linearGradient x1="26.397" y1="30.132" x2="142.512" y2="30.132" gradientUnits="userSpaceOnUse"><stop offset="0" stop-color="#333"/><stop offset="1" stop-color="#252525"/></linearGradient></defs><g transform="translate(3.593 2.971)"><path d="M111.5 85.64c0 2.132-1.729 3.86-3.86 3.86h-53.28c-2.132 0-3.86-1.729-3.86-3.86v-78.28c0-2.132 1.729-3.86 3.86-3.86h53.279c2.132 0 3.86 1.729 3.86 3.86v78.28z" fill="#eece57"/><g fill="#e4e9d6"><rect width="43" height="3" x="58.5" y="54.5"/><rect width="43" height="3" x="58.5" y="62.5"/><rect width="43" height="3" x="58.5" y="70.5"/><rect width="43" height="3" x="58.5" y="78.5"/></g><circle cx="81" cy="28.667" r="17.5" stroke="#3a3a3a" stroke-width="2.383" stroke-miterlimit="10" fill="none"/><text transform="translate(70.936 34.916)" font-size="19.175" fill="#3a3a3a" font-family="Signika-Bold">A+</text><path d="M50.5 11.5s-2.125-10.938 8-8v8h-8z" fill="#e4e9d6"/></g></svg>