<svg xmlns="http://www.w3.org/2000/svg" width="169" height="116"><defs><linearGradient x1="48" y1="53.8" x2="120" y2="53.8" gradientUnits="userSpaceOnUse"><stop offset="0" stop-color="#333"/><stop offset="1" stop-color="#252525"/></linearGradient><linearGradient x1="26.397" y1="30.132" x2="142.512" y2="30.132" gradientUnits="userSpaceOnUse"><stop offset="0" stop-color="#333"/><stop offset="1" stop-color="#252525"/></linearGradient></defs><g transform="translate(8 12)"><path d="M135.5 51.811c0 7.284-5.893 13.189-13.178 13.189h-91.98c-7.284 0-12.842-5.905-12.842-13.189v-34.622c0-7.284 5.558-13.189 12.842-13.189h91.98c7.285 0 13.178 5.905 13.178 13.189v34.622z" fill="#e4e9d6"/><rect width="72" height="49" x="41.5" y="11" fill="#eece57"/><circle cx="125.588" cy="34.44" r="5.862" fill="#eece57"/><path d="M32.655 18c1.146 0 .845.706.845 1.484v30.004c0 .778.301 1.512-.845 1.512h-.246c-1.146 0-1.909-.733-1.909-1.512v-30.004c0-.778.763-1.484 1.909-1.484h.246z" fill="#eece57"/></g></svg>