<?xml version="1.0" encoding="utf-8"?>
<!-- Generator: Adobe Illustrator 16.0.0, SVG Export Plug-In . SVG Version: 6.00 Build 0)  -->
<!DOCTYPE svg PUBLIC "-//W3C//DTD SVG 1.1//EN" "http://www.w3.org/Graphics/SVG/1.1/DTD/svg11.dtd">
<svg version="1.1" xmlns="http://www.w3.org/2000/svg" xmlns:xlink="http://www.w3.org/1999/xlink" x="0px" y="0px" width="118.5px"
	 height="113.5px" viewBox="0 0 118.5 113.5" enable-background="new 0 0 118.5 113.5" xml:space="preserve">
<g id="Layer_9" display="none">
	<rect x="-78" y="-9.5" display="inline" fill="#11DB00" width="275" height="125"/>
	<g display="inline">
		<rect x="-78.5" y="-9" fill="none" stroke="#FA0038" stroke-miterlimit="10" width="275" height="123"/>
		<line fill="none" stroke="#FA0038" stroke-miterlimit="10" x1="-78" y1="93" x2="197" y2="93"/>
		<line fill="none" stroke="#FA0038" stroke-miterlimit="10" x1="-78" y1="73" x2="197" y2="73"/>
		<line fill="none" stroke="#FA0038" stroke-miterlimit="10" x1="-78" y1="52" x2="197" y2="52"/>
		<line fill="none" stroke="#FA0038" stroke-miterlimit="10" x1="-78" y1="32" x2="197" y2="32"/>
		<line fill="none" stroke="#FA0038" stroke-miterlimit="10" x1="-78" y1="11" x2="197" y2="11"/>
		<line fill="none" stroke="#FA0038" stroke-miterlimit="10" x1="151.5" y1="-9.5" x2="151.5" y2="113.5"/>
		<line fill="none" stroke="#FA0038" stroke-miterlimit="10" x1="105.5" y1="-9.5" x2="105.5" y2="113.5"/>
		<line fill="none" stroke="#FA0038" stroke-miterlimit="10" x1="59.5" y1="-9.5" x2="59.5" y2="113.5"/>
		<line fill="none" stroke="#FA0038" stroke-miterlimit="10" x1="13.5" y1="-9.5" x2="13.5" y2="113.5"/>
		<line fill="none" stroke="#FA0038" stroke-miterlimit="10" x1="-32.5" y1="-9.5" x2="-32.5" y2="113.5"/>
	</g>
</g>
<g id="Miltary_Outreach" display="none">
	<rect x="-9" y="89.5" fill="none" width="140" height="7"/>
	<g display="inline">
		<rect x="41" y="3.5" fill="#EECE57" width="90" height="6"/>
		<rect x="41" y="31.5" fill="#EECE57" width="90" height="6"/>
		<rect x="39" y="37.5" fill="none" width="92" height="8"/>
		<rect x="-9" y="45.5" fill="#EECE57" width="140" height="6"/>
		<rect x="-9" y="51.5" fill="none" width="140" height="7"/>
		<rect x="-9" y="58.5" fill="#EECE57" width="140" height="7"/>
		<rect x="-9" y="65.5" fill="none" width="140" height="7"/>
		<rect x="-9" y="72.5" fill="#EECE57" width="140" height="7"/>
		<rect x="41" y="17.5" fill="#EECE57" width="90" height="6"/>
		<rect x="-9" y="3.5" fill="#BDCCD4" width="41" height="34"/>
	</g>
	<text transform="matrix(1 0 0 1 -21.459 106)" fill="#F5F5F5" font-family="'OpenSans-Bold'" font-size="18">Military Outreach</text>
</g>
<g id="Academic_Success" display="none">
	<g display="inline">
		<linearGradient id="SVGID_1_" gradientUnits="userSpaceOnUse" x1="25" y1="51.2998" x2="97" y2="51.2998">
			<stop  offset="0" style="stop-color:#333333"/>
			<stop  offset="1" style="stop-color:#252525"/>
		</linearGradient>
		<path fill="url(#SVGID_1_)" stroke="#E4E9D6" stroke-width="2" stroke-miterlimit="10" d="M25,34.5v25l0,0c0,0,33,20,72-1v-24H25z
			"/>
		<linearGradient id="SVGID_2_" gradientUnits="userSpaceOnUse" x1="3.3975" y1="27.6318" x2="119.5117" y2="27.6318">
			<stop  offset="0" style="stop-color:#333333"/>
			<stop  offset="1" style="stop-color:#252525"/>
		</linearGradient>
		<polygon fill="url(#SVGID_2_)" stroke="#E4E9D6" stroke-width="1.5" stroke-miterlimit="10" points="61.652,3 3.397,25.264 
			61.652,52.264 119.512,25.264 		"/>
		<polygon fill="#EECE57" points="95,78.5 91,78.5 91,41.348 58.886,29.992 60.332,26.193 95,38.504 		"/>
		<circle fill="#EECE57" cx="92.744" cy="68.04" r="4.874"/>
		<polygon fill="#EECE57" points="87.417,84.5 93.021,74.793 98.626,84.5 		"/>
	</g>
	<text transform="matrix(1 0 0 1 -20.46 106)" fill="#F5F5F5" font-family="'OpenSans-Bold'" font-size="18">Academic Success</text>
</g>
<g id="GPC_College_Online" display="none">
	<text transform="matrix(1 0 0 1 -27.1709 106)" fill="#F5F5F5" font-family="'OpenSans-Bold'" font-size="18">GPC College Online</text>
	<g display="inline">
		<path fill="none" d="M60.37,80.65c-25.864,0-51.729-0.005-77.594,0.023c-0.847,0.001-1.015-0.166-1.014-1.014
			c0.032-17.408,0.032-34.816,0-52.224c-0.001-0.848,0.167-1.014,1.014-1.014c51.729,0.026,103.458,0.026,155.188,0
			c0.847,0,1.016,0.166,1.014,1.013c-0.032,17.408-0.032,34.816,0,52.224c0.002,0.848-0.166,1.015-1.014,1.014
			C112.1,80.645,86.235,80.65,60.37,80.65z M102.042,60.199c-0.356,0.493-0.875,0.581-1.29,0.829
			c-1.691,1.009-1.973,2.943-0.492,4.229c0.87,0.756,0.429,0.9-0.294,1.13c-2.153,0.686-3.522,2.075-3.813,4.378
			c-0.337,2.668,0.669,4.7,3.051,5.941c4.439,2.313,8.973,2.298,13.424,0.112c3.27-1.606,4.276-5.354,2.336-8.41
			c-1.138-1.792-3.096-2.377-5.039-2.825c-1.726-0.397-3.489-0.659-5.134-1.339c-0.63-0.26-1.425-0.604-1.308-1.445
			c0.104-0.747,0.789-1.11,1.521-1.259c1.17-0.238,2.343-0.461,3.511-0.705c4.68-0.977,7.021-6.882,4.08-10.345
			c-0.458-0.539-0.371-0.782,0.341-0.784c0.288-0.001,0.577-0.003,0.865-0.004c2.209-0.004,2.178-0.014,2.153-2.189
			c-0.012-0.99-0.426-1.284-1.349-1.272c-2.554,0.033-5.11,0.031-7.665,0.001c-1.252-0.014-2.471,0.175-3.655,0.527
			c-2.715,0.808-4.683,2.417-5.242,5.331c-0.52,2.708,0.127,5.072,2.32,6.88C100.891,59.416,101.472,59.788,102.042,60.199z
			 M13.315,34.853c-0.862-0.064-2.046,0.074-3.228,0.278c-3.951,0.683-7.408,2.372-10.012,5.434
			c-3.188,3.75-4.581,8.132-3.946,13.081c0.695,5.414,3.473,9.488,8.187,12.113c5.515,3.071,11.333,2.732,17.149,0.938
			c3.679-1.134,3.658-1.2,3.625-5.038c-0.015-1.643-0.146-1.701-1.546-0.926c-3.918,2.169-8.051,3.405-12.571,2.557
			c-4.813-0.904-8.247-3.517-9.575-8.367C0.137,50.32,1.096,46.11,4.521,42.751c3.232-3.17,7.323-3.91,11.706-3.308
			c2.651,0.364,5.102,1.319,7.417,2.626c0.772,0.437,1.164,0.328,1.18-0.591c0.017-1.03,0-2.062,0.003-3.092
			c0.001-0.616-0.31-0.987-0.87-1.211C20.646,35.85,17.273,34.811,13.315,34.853z M51.44,56.636
			c-0.01-6.335-4.856-10.923-11.562-10.873C33.512,45.812,28.644,50.38,28.67,56.66c0.029,6.808,4.635,11.299,11.399,11.348
			C46.695,68.055,51.451,63.259,51.44,56.636z M129.707,57.624c0-0.001,0-0.003,0-0.004c2.06,0,4.12-0.035,6.18,0.015
			c1.037,0.025,1.379-0.398,1.343-1.397c-0.056-1.542-0.402-3.015-0.86-4.472c-1.089-3.459-3.45-5.465-7.028-5.903
			c-3.534-0.433-6.643,0.543-8.936,3.383c-2.327,2.883-2.788,6.256-2.161,9.805c0.554,3.134,2.016,5.742,4.797,7.45
			c3.597,2.208,7.336,1.787,11.061,0.428c2.758-1.006,2.973-1.433,2.85-4.376c-0.051-1.195-0.276-1.33-1.315-0.702
			c-1.606,0.972-3.307,1.661-5.185,1.877c-3.463,0.399-6.741-0.917-7.792-5.009c-0.227-0.88,0.053-1.11,0.867-1.102
			C125.587,57.638,127.646,57.624,129.707,57.624z M87.245,57.619c1.32,0,2.64,0.022,3.959-0.004
			c3.675-0.072,3.787,0.75,3.148-3.586c-0.389-2.632-1.353-5.055-3.631-6.652c-3.664-2.569-9.197-2.083-12.288,1.161
			c-2.908,3.052-3.499,6.791-2.699,10.813c0.597,3.001,2.047,5.475,4.687,7.125c3.407,2.131,7.002,1.826,10.607,0.641
			c3.04-0.999,3.282-1.453,3.143-4.625c-0.039-0.905-0.263-1.103-1.082-0.624c-1.575,0.921-3.248,1.593-5.073,1.877
			c-3.782,0.589-7.205-1.562-7.962-5c-0.181-0.824,0.029-1.143,0.882-1.132C83.038,57.64,85.142,57.622,87.245,57.619z
			 M56.038,51.463c0,4.53,0,9.061,0,13.591c0,2.482,0,2.482,2.473,2.468c1.713-0.009,1.748-0.035,1.748-1.715
			c0.003-9.267,0.006-18.534-0.001-27.8c-0.002-2.904,0.279-2.597-2.662-2.67c-1.167-0.029-1.592,0.346-1.58,1.547
			C56.069,41.743,56.039,46.603,56.038,51.463z M66.417,51.444c0,4.538,0,9.075,0,13.612c0,2.478-0.001,2.478,2.49,2.464
			c1.702-0.009,1.726-0.026,1.726-1.737c0.002-9.281,0.005-18.562-0.001-27.843c-0.001-2.827,0.266-2.579-2.607-2.582
			c-1.543-0.001-1.604,0.062-1.606,1.607C66.414,41.792,66.417,46.619,66.417,51.444z M-9.547,55.793c-0.002,0-0.004,0-0.006,0
			c0-2.678,0.007-5.356-0.003-8.035c-0.006-1.392-0.128-1.458-1.398-1.092c-1.503,0.434-3.019,0.824-4.529,1.233
			c-0.458,0.124-1.113,0.065-1.129,0.728c-0.018,0.73,0.674,0.575,1.119,0.668c1.745,0.366,1.971,0.604,1.978,2.38
			c0.014,3.874,0.013,7.747,0.005,11.62c-0.005,2.276-0.118,2.394-2.302,2.888c-0.448,0.101-1.134,0.015-1.086,0.731
			c0.054,0.789,0.76,0.616,1.257,0.619c2.678,0.019,5.357,0.019,8.035,0c0.495-0.003,1.209,0.163,1.231-0.643
			c0.02-0.749-0.691-0.707-1.185-0.809c-1.725-0.356-1.968-0.606-1.98-2.377C-9.561,61.068-9.547,58.431-9.547,55.793z
			 M-9.029,38.012c0.021-1.575-0.955-2.646-2.437-2.674c-1.478-0.028-2.535,1.03-2.562,2.564c-0.028,1.56,0.963,2.642,2.443,2.668
			C-10.087,40.597-9.051,39.559-9.029,38.012z"/>
		<path fill-rule="evenodd" clip-rule="evenodd" fill="#BFCCD4" d="M102.042,60.199c-0.57-0.411-1.151-0.784-1.68-1.219
			c-2.193-1.809-2.84-4.173-2.32-6.88c0.56-2.914,2.527-4.523,5.242-5.331c1.185-0.352,2.403-0.541,3.655-0.527
			c2.555,0.03,5.111,0.032,7.665-0.001c0.923-0.012,1.337,0.282,1.349,1.272c0.024,2.175,0.056,2.185-2.153,2.189
			c-0.288,0-0.577,0.003-0.865,0.004c-0.712,0.001-0.799,0.245-0.341,0.784c2.94,3.463,0.6,9.369-4.08,10.345
			c-1.168,0.244-2.341,0.467-3.511,0.705c-0.731,0.149-1.416,0.512-1.521,1.259c-0.117,0.841,0.678,1.185,1.308,1.445
			c1.645,0.68,3.408,0.941,5.134,1.339c1.943,0.448,3.901,1.033,5.039,2.825c1.94,3.055,0.934,6.803-2.336,8.41
			c-4.451,2.187-8.984,2.202-13.424-0.112c-2.382-1.241-3.388-3.273-3.051-5.941c0.291-2.303,1.66-3.692,3.813-4.378
			c0.723-0.23,1.164-0.375,0.294-1.13c-1.48-1.286-1.199-3.22,0.492-4.229C101.167,60.78,101.686,60.692,102.042,60.199z
			 M105.873,74.704c1.385,0.107,2.771-0.044,4.076-0.614c1.869-0.816,2.236-2.648,0.82-3.934c-1.856-1.685-6.755-2.202-8.899-0.899
			c-0.936,0.569-1.778,1.307-1.671,2.532c0.112,1.279,0.95,2.043,2.124,2.467C103.463,74.668,104.642,74.784,105.873,74.704z
			 M101.841,53.758c-0.025,2.123,1.731,3.77,4.048,3.796c2.174,0.024,4.019-1.715,4.055-3.823c0.03-1.755-1.993-3.669-3.949-3.737
			C103.863,49.921,101.864,51.733,101.841,53.758z"/>
		<path fill-rule="evenodd" clip-rule="evenodd" fill="#BFCCD4" d="M13.315,34.853c3.958-0.042,7.331,0.997,10.642,2.321
			c0.56,0.224,0.871,0.595,0.87,1.211c-0.003,1.031,0.014,2.062-0.003,3.092c-0.016,0.919-0.407,1.028-1.18,0.591
			c-2.314-1.307-4.766-2.262-7.417-2.626c-4.383-0.603-8.473,0.138-11.706,3.308C1.096,46.11,0.137,50.32,1.398,54.924
			c1.329,4.85,4.762,7.463,9.575,8.367c4.52,0.849,8.653-0.388,12.571-2.557c1.4-0.775,1.531-0.717,1.546,0.926
			c0.033,3.838,0.054,3.903-3.625,5.038C15.65,68.491,9.832,68.83,4.317,65.759c-4.714-2.625-7.492-6.7-8.187-12.113
			c-0.635-4.949,0.758-9.332,3.946-13.081c2.604-3.062,6.061-4.751,10.012-5.434C11.269,34.927,12.453,34.789,13.315,34.853z"/>
		<path fill-rule="evenodd" clip-rule="evenodd" fill="#BFCCD4" d="M51.44,56.636c0.011,6.623-4.745,11.419-11.371,11.372
			c-6.765-0.048-11.371-4.54-11.399-11.348c-0.026-6.28,4.842-10.848,11.209-10.896C46.584,45.713,51.43,50.301,51.44,56.636z
			 M33.257,56.877c0.007,4.198,2.701,7.161,6.532,7.185c4.368,0.027,7.114-2.836,7.103-7.405c-0.01-3.97-3.015-6.958-6.979-6.941
			C35.95,49.732,33.25,52.638,33.257,56.877z"/>
		<path fill-rule="evenodd" clip-rule="evenodd" fill="#BFCCD4" d="M129.707,57.624c-2.061,0-4.12,0.014-6.181-0.007
			c-0.814-0.009-1.094,0.221-0.867,1.102c1.051,4.092,4.329,5.408,7.792,5.009c1.878-0.216,3.578-0.906,5.185-1.877
			c1.039-0.627,1.265-0.493,1.315,0.702c0.123,2.944-0.092,3.37-2.85,4.376c-3.725,1.359-7.464,1.781-11.061-0.428
			c-2.781-1.708-4.243-4.316-4.797-7.45c-0.627-3.549-0.166-6.922,2.161-9.805c2.293-2.84,5.401-3.816,8.936-3.383
			c3.578,0.438,5.939,2.443,7.028,5.903c0.458,1.457,0.805,2.93,0.86,4.472c0.036,0.999-0.306,1.422-1.343,1.397
			c-2.06-0.05-4.12-0.015-6.18-0.015C129.707,57.621,129.707,57.623,129.707,57.624z M127.564,54.655c0,0.002,0,0.004,0,0.006
			c1.027,0,2.056-0.04,3.08,0.008c2.298,0.109,2.518-0.187,1.62-2.6c-0.084-0.226-0.229-0.435-0.377-0.629
			c-1.412-1.869-3.355-2.082-5.436-1.624c-2.012,0.443-3.077,1.909-3.684,3.773c-0.254,0.781,0.124,1.065,0.853,1.065
			C124.936,54.654,126.25,54.655,127.564,54.655z"/>
		<path fill-rule="evenodd" clip-rule="evenodd" fill="#BFCCD4" d="M87.245,57.62c-2.103,0.002-4.207,0.02-6.31-0.007
			c-0.853-0.011-1.063,0.308-0.882,1.132c0.757,3.438,4.18,5.589,7.962,5c1.825-0.284,3.498-0.956,5.073-1.877
			c0.819-0.479,1.043-0.281,1.082,0.624c0.14,3.172-0.103,3.627-3.143,4.625c-3.605,1.185-7.2,1.49-10.607-0.641
			c-2.64-1.651-4.09-4.124-4.687-7.125c-0.799-4.022-0.209-7.761,2.699-10.813c3.091-3.244,8.624-3.729,12.288-1.161
			c2.278,1.597,3.242,4.02,3.631,6.652c0.639,4.336,0.526,3.515-3.148,3.586C89.885,57.641,88.564,57.619,87.245,57.62z
			 M85.037,54.656c0,0.001,0,0.003,0,0.005c1.233,0,2.467,0.009,3.701-0.002c1.447-0.014,1.731-0.432,1.269-1.827
			c-0.781-2.355-2.555-3.401-5.322-3.138c-2.286,0.217-4.246,1.985-4.54,4.051c-0.114,0.798,0.348,0.908,0.944,0.911
			C82.405,54.66,83.721,54.656,85.037,54.656z"/>
		<path fill-rule="evenodd" clip-rule="evenodd" fill="#BFCCD4" d="M56.038,51.463c0-4.86,0.031-9.72-0.021-14.58
			c-0.013-1.201,0.413-1.576,1.58-1.547c2.94,0.073,2.66-0.233,2.662,2.67c0.007,9.267,0.004,18.534,0.001,27.8
			c0,1.68-0.035,1.706-1.748,1.715c-2.473,0.014-2.473,0.014-2.473-2.468C56.038,60.523,56.038,55.993,56.038,51.463z"/>
		<path fill-rule="evenodd" clip-rule="evenodd" fill="#BFCCD4" d="M66.417,51.444c0-4.826-0.003-9.652,0.002-14.478
			c0.002-1.545,0.063-1.609,1.606-1.607c2.873,0.002,2.605-0.245,2.607,2.582c0.006,9.281,0.003,18.562,0.001,27.843
			c0,1.711-0.024,1.729-1.726,1.737c-2.491,0.014-2.491,0.014-2.49-2.464C66.417,60.519,66.417,55.982,66.417,51.444z"/>
		<path fill-rule="evenodd" clip-rule="evenodd" fill="#F3C435" d="M-9.547,55.793c0,2.637-0.014,5.274,0.005,7.912
			c0.012,1.771,0.256,2.021,1.98,2.377c0.493,0.102,1.205,0.06,1.185,0.809c-0.022,0.805-0.736,0.639-1.231,0.643
			c-2.678,0.02-5.357,0.019-8.035,0c-0.497-0.003-1.203,0.169-1.257-0.619c-0.048-0.716,0.638-0.63,1.086-0.731
			c2.184-0.494,2.297-0.612,2.302-2.888c0.008-3.874,0.009-7.747-0.005-11.62c-0.007-1.777-0.232-2.014-1.978-2.38
			c-0.444-0.093-1.136,0.062-1.119-0.668c0.016-0.662,0.672-0.604,1.129-0.728c1.51-0.41,3.026-0.8,4.529-1.233
			c1.271-0.366,1.393-0.3,1.398,1.092c0.01,2.679,0.003,5.357,0.003,8.035C-9.551,55.793-9.549,55.793-9.547,55.793z"/>
		<path fill-rule="evenodd" clip-rule="evenodd" fill="#F3C435" d="M-9.029,38.012c-0.021,1.547-1.058,2.585-2.555,2.558
			c-1.48-0.026-2.471-1.108-2.443-2.668c0.027-1.534,1.084-2.592,2.562-2.564C-9.984,35.365-9.008,36.437-9.029,38.012z"/>
		<path fill-rule="evenodd" clip-rule="evenodd" fill="none" d="M105.873,74.704c-1.231,0.08-2.41-0.036-3.55-0.448
			c-1.174-0.424-2.012-1.188-2.124-2.467c-0.107-1.225,0.735-1.963,1.671-2.532c2.145-1.303,7.043-0.786,8.899,0.899
			c1.416,1.286,1.049,3.118-0.82,3.934C108.645,74.66,107.258,74.812,105.873,74.704z"/>
		<path fill-rule="evenodd" clip-rule="evenodd" fill="none" d="M101.841,53.758c0.023-2.025,2.022-3.837,4.153-3.763
			c1.956,0.067,3.979,1.981,3.949,3.737c-0.036,2.108-1.881,3.847-4.055,3.823C103.572,57.528,101.815,55.881,101.841,53.758z"/>
		<path fill-rule="evenodd" clip-rule="evenodd" fill="none" d="M33.257,56.877c-0.007-4.239,2.693-7.145,6.656-7.162
			c3.964-0.017,6.968,2.972,6.979,6.941c0.011,4.569-2.735,7.432-7.103,7.405C35.958,64.038,33.264,61.075,33.257,56.877z"/>
		<path fill-rule="evenodd" clip-rule="evenodd" fill="none" d="M127.564,54.655c-1.314,0-2.629,0-3.943,0
			c-0.729,0-1.106-0.284-0.853-1.065c0.606-1.864,1.672-3.33,3.684-3.773c2.08-0.458,4.023-0.245,5.436,1.624
			c0.147,0.194,0.293,0.404,0.377,0.629c0.897,2.413,0.678,2.708-1.62,2.6c-1.024-0.048-2.053-0.008-3.08-0.008
			C127.564,54.659,127.564,54.657,127.564,54.655z"/>
		<path fill-rule="evenodd" clip-rule="evenodd" fill="none" d="M85.037,54.656c-1.316,0-2.632,0.003-3.948-0.001
			c-0.596-0.002-1.058-0.112-0.944-0.911c0.294-2.065,2.254-3.834,4.54-4.051c2.767-0.263,4.541,0.783,5.322,3.138
			c0.463,1.395,0.178,1.813-1.269,1.827c-1.234,0.012-2.467,0.002-3.701,0.002C85.037,54.659,85.037,54.658,85.037,54.656z"/>
	</g>
</g>
<g id="Campus_Life">
	<g>
		<path fill="#FFCA38" d="M111.719,30.729c-10.18-6.928-21.399-11.623-32.987-14.09c-0.423-0.476-0.845-0.948-1.267-1.419
			c-0.001-1.865-0.006-3.81-0.006-5.661h-0.001c-0.002-0.017-0.01-0.094-0.015-0.127c-0.049-0.297-0.214-1.092-0.869-1.917
			c-0.327-0.412-0.775-0.822-1.362-1.155c-0.585-0.334-1.302-0.589-2.155-0.722l-0.004-0.001h-0.004
			c-4.555-0.678-9.149-1.019-13.744-1.019c-4.917,0-9.834,0.387-14.702,1.163h-0.004l-0.005,0.001
			c-0.929,0.154-1.697,0.452-2.307,0.838c-0.459,0.288-0.825,0.623-1.108,0.96c-0.427,0.508-0.664,1.018-0.798,1.408
			c-0.066,0.195-0.107,0.363-0.133,0.49c-0.012,0.063-0.021,0.116-0.026,0.156c-0.004,0.02-0.006,0.036-0.007,0.045l0,0
			C40.212,9.7,40.21,9.719,40.209,9.735c0,0.001,0,0.001,0,0.002L40.208,9.74l0,0c-0.001,0.016-0.002,0.029-0.003,0.043
			c-0.001,0.025-0.001,0.046-0.001,0.065l0,0v5.466c-0.446,0.51-0.892,1.023-1.336,1.541c-11.236,2.52-22.108,7.143-31.997,13.873
			l-2.815,1.916l3.386,0.362c0.785,0.085,1.579,0.188,2.377,0.299v9.648l0.002,0.06h0.001c0.005,0.044,0.016,0.21,0.029,0.277
			c0.025,0.126,0.074,0.3,0.153,0.497c0.06,0.146,0.141,0.312,0.257,0.48c0.171,0.252,0.429,0.522,0.78,0.717
			c0.35,0.197,0.779,0.305,1.218,0.302c0.377,0,0.763-0.071,1.164-0.203c0.403-0.132,0.825-0.327,1.285-0.59l-0.004,0.002
			L14.7,44.498c7.132-4.029,14.683-7.017,22.435-8.967c-0.759,0.566-1.507,1.156-2.242,1.767l-0.781,0.65l0.114,1.01
			c0.068,0.6,0.168,1.168,0.297,1.705c-1.497,1.414-3.057,3.002-4.656,4.741l0.001,0.001c-0.126,0.136-0.25,0.289-0.37,0.468
			c-0.192,0.286-0.374,0.632-0.513,1.036c-0.132,0.382-0.219,0.819-0.229,1.292c-0.405,0.517-0.691,1.075-0.884,1.623
			c-0.234,0.672-0.334,1.324-0.336,1.904c0,0.033,0,0.066,0.002,0.1v-0.004v0.038v0.014l0.001,0.012
			c0.005,0.122,0.017,0.317,0.033,0.587c0.051,0.803,0.151,2.221,0.252,3.553c0.148,1.952,0.237,2.964,0.303,3.536
			c0.034,0.289,0.059,0.467,0.094,0.628c0.017,0.079,0.038,0.156,0.062,0.23c0.024,0.07,0.052,0.13,0.062,0.151h-0.001l0.001,0.002
			v-0.001c0.254,0.577,0.589,1.11,1.016,1.596c0.377,0.429,0.824,0.82,1.345,1.206c0.533,1.003,1.475,2.29,3.085,3.511v-0.001
			c1.85,1.405,4.15,2.398,6.816,2.988l0.412,0.092l1.661,0.909l0.011,0.006c7.744,4.242,12.593,8.231,15.283,10.812
			c1.456,1.396,2.457,2.544,3.09,3.335c0.316,0.396,0.541,0.704,0.685,0.908c0.071,0.103,0.123,0.178,0.155,0.229
			c0.016,0.024,0.028,0.043,0.034,0.054l0.007,0.011l0.001,0.001l0.928,1.53l1.574-0.852l0.001-0.001
			c0.023-0.013,0.085-0.046,0.191-0.105c0.74-0.411,3.539-1.999,7.332-4.562c4.003-2.705,9.887-7.036,15.24-12.362l0.367-0.367
			l0.128-0.502c0.664-2.587,0.993-5.249,0.993-7.966c0-0.431-0.007-0.861-0.024-1.296c-0.152-3.97-0.999-8.052-2.526-12.202
			L85.181,47.9l0.969-0.357c-1.815-4.933-4.287-9.16-6.608-12.472c8.422,1.925,16.631,5.066,24.349,9.427l-0.005-0.002l-0.004-0.002
			c0.461,0.263,0.883,0.458,1.285,0.59s0.788,0.203,1.164,0.203c0.238,0,0.475-0.029,0.697-0.09c0.389-0.104,0.73-0.311,0.977-0.546
			c0.186-0.177,0.323-0.365,0.425-0.542c0.151-0.266,0.229-0.504,0.274-0.687c0.01-0.041,0.019-0.079,0.024-0.115l0.043-0.1v-9.902
			c0.798-0.111,1.592-0.214,2.377-0.299l3.386-0.362L111.719,30.729z M42.673,10.136L42.673,10.136L42.673,10.136L42.673,10.136z
			 M42.621,10.304C42.62,10.304,42.62,10.304,42.621,10.304l-0.002,0.001C42.62,10.305,42.62,10.304,42.621,10.304z M42.565,10.423
			c-0.012,0.021-0.021,0.043-0.036,0.066c-0.02,0.031-0.043,0.066-0.069,0.104C42.499,10.539,42.535,10.482,42.565,10.423z
			 M42.44,10.616c-0.038,0.049-0.081,0.1-0.137,0.151C42.354,10.722,42.398,10.671,42.44,10.616z M42.288,10.781
			c-0.033,0.028-0.068,0.059-0.11,0.089c-0.01,0.006-0.022,0.013-0.033,0.02C42.194,10.856,42.243,10.82,42.288,10.781z
			 M41.882,11.022c-0.012,0.003-0.023,0.011-0.035,0.014l-0.002-0.003C41.857,11.029,41.87,11.025,41.882,11.022z M11.049,42.955
			l0.008-0.001l0.001,0.003L11.049,42.955z M11.066,42.954L11.066,42.954h0.002H11.066z M84.211,48.257
			c1.461,3.973,2.258,7.838,2.4,11.569c0.016,0.407,0.022,0.812,0.022,1.216c0,2.533-0.305,5.003-0.916,7.405
			c-5.204,5.173-10.98,9.43-14.903,12.08c-2.132,1.44-3.943,2.567-5.234,3.341c-0.646,0.387-1.161,0.685-1.521,0.89
			c-0.181,0.104-0.322,0.182-0.422,0.237c-0.008,0.005-0.014,0.009-0.021,0.012c-0.336-0.509-1.591-2.294-4.212-4.807
			c-2.795-2.678-7.736-6.736-15.531-11.027c0.284-0.359,0.567-0.726,0.84-1.084l-1.278-1.552c-0.87,0.428-1.542,0.8-2.241,1.188
			l0.006-0.003l-0.211,0.118c-2.404-0.54-4.398-1.424-5.948-2.6l0,0c-1.468-1.115-2.214-2.232-2.6-3.011l-0.116-0.234l-0.213-0.15
			c-0.522-0.37-0.905-0.706-1.196-1.038c-0.29-0.331-0.497-0.659-0.675-1.06c-0.007-0.03-0.021-0.104-0.037-0.236
			c-0.028-0.217-0.066-0.577-0.117-1.157c-0.052-0.58-0.116-1.38-0.2-2.485c-0.066-0.882-0.134-1.805-0.186-2.555
			c-0.026-0.376-0.049-0.709-0.064-0.971c-0.017-0.251-0.027-0.44-0.031-0.524V51.79v-0.003v-0.003l-0.001-0.056
			c0-0.334,0.064-0.781,0.219-1.221c0.155-0.442,0.396-0.877,0.732-1.232l0.319-0.342l-0.045-0.466
			c-0.003-0.04-0.006-0.076-0.007-0.11v-0.003c-0.002-0.026-0.002-0.051-0.002-0.076c-0.001-0.331,0.082-0.643,0.201-0.906
			c0.059-0.131,0.127-0.249,0.192-0.347c0.064-0.098,0.129-0.175,0.172-0.22l0.003-0.003l-0.023-0.022l0.023,0.021
			c1.729-1.88,3.407-3.577,4.994-5.051l0.472-0.438l-0.186-0.617c-0.165-0.55-0.293-1.18-0.376-1.873
			c1.889-1.563,3.866-2.982,5.886-4.227l0.429-0.264c5.512-1.029,11.1-1.547,16.688-1.547c5.769,0,11.536,0.549,17.221,1.646
			C79.104,37.838,82.126,42.582,84.211,48.257z M42.102,30.145c1.335-0.247,2.682-0.37,4.038-0.37c1.551,0,3.11,0.16,4.672,0.481
			l0.278,0.058l0.269-0.093c5.289-1.838,9.922-2.319,12.953-2.387l0.321-0.008l0.261-0.188c1.062-0.769,2.348-1.63,3.645-2.403
			c1.237-0.738,2.487-1.394,3.54-1.812c0.362,0.692,1.909,3.837,2.662,8.15c-5.111-0.857-10.278-1.289-15.446-1.289
			c-5.688,0-11.375,0.522-16.988,1.561C42.216,31.288,42.147,30.718,42.102,30.145z M107.329,30.983l-1.062,0.163V42.78
			c-0.067-0.006-0.174-0.024-0.32-0.073c-0.201-0.066-0.477-0.187-0.82-0.383l-0.004-0.003l-0.003-0.003
			c-8.794-4.968-18.208-8.396-27.854-10.288c-0.151-0.189-0.3-0.374-0.446-0.553c-0.886-5.316-2.89-8.979-3.011-9.2l-0.795-1.431
			l-1.526,0.586c-1.259,0.484-2.646,1.216-4.008,2.027c-1.256,0.749-2.483,1.565-3.537,2.317c-3.146,0.096-7.748,0.615-12.992,2.401
			c-1.603-0.312-3.21-0.471-4.811-0.471c-1.541,0-3.076,0.146-4.593,0.438l-1.644,0.315l0.121,1.67
			c0.053,0.712,0.14,1.418,0.254,2.109c-9.281,1.93-18.333,5.29-26.809,10.078l-0.004,0.004l-0.004,0.002
			c-0.344,0.196-0.618,0.316-0.819,0.383c-0.147,0.049-0.253,0.067-0.322,0.073V31.146l-1.061-0.163
			c-0.057-0.009-0.112-0.016-0.17-0.023c8.978-5.637,18.702-9.553,28.724-11.753l0.408-0.09l0.273-0.318
			c0.633-0.738,1.267-1.47,1.901-2.193l0.31-0.354v-6.3c0.001-0.001,0.001-0.002,0.001-0.004c0.014-0.063,0.047-0.185,0.114-0.329
			c0.102-0.216,0.271-0.479,0.586-0.73C43.726,8.639,44.202,8.387,45,8.252c4.736-0.755,9.521-1.131,14.305-1.131
			c4.469,0,8.938,0.331,13.37,0.99c0.639,0.1,1.072,0.28,1.38,0.471c0.231,0.144,0.396,0.295,0.521,0.443
			c0.188,0.221,0.29,0.439,0.343,0.596c0.024,0.069,0.037,0.122,0.044,0.156v6.401l0.322,0.356c0.616,0.684,1.23,1.374,1.846,2.069
			l0.274,0.312l0.408,0.085c10.362,2.156,20.422,6.143,29.686,11.958C107.441,30.968,107.387,30.975,107.329,30.983z"/>
		<path fill="#4D4A4A" d="M78.069,17.777c-0.617-0.699-1.235-1.393-1.855-2.08c0-2.009,0-4.017,0-6.025
			c-0.001,0.013-0.198-2.307-3.351-2.798C63.562,5.489,54.091,5.536,44.8,7.017c-3.147,0.523-3.344,2.845-3.345,2.832
			c0,1.977,0,3.954,0,5.931c-0.638,0.729-1.275,1.464-1.91,2.206c-11.229,2.464-22.095,7.057-31.97,13.778
			c1.151,0.123,2.316,0.275,3.494,0.456c0,3.578,0,7.156,0,10.734c0.005,0.012,0.167,2.091,3.016,0.455
			c28.019-15.832,62.398-15.832,90.419,0c2.849,1.636,3.01-0.442,3.017-0.455c0-3.578,0-7.156,0-10.734
			c1.177-0.181,2.343-0.333,3.493-0.456C100.854,24.848,89.646,20.187,78.069,17.777z"/>
		<path fill="#FFFFFF" d="M45.646,16.833c-0.107,0-0.203-0.005-0.292-0.016c-0.257-0.031-0.451-0.116-0.58-0.254
			c-0.089-0.094-0.154-0.216-0.202-0.372c-0.064-0.215-0.095-0.484-0.095-0.851v-4.016c0-0.413,0.039-0.725,0.124-0.981
			c0.085-0.258,0.229-0.469,0.427-0.626c0.135-0.106,0.295-0.192,0.489-0.264c0.247-0.092,0.546-0.159,0.938-0.212
			c3.04-0.41,6.132-0.677,9.2-0.793c-0.579,0.453-1.152,0.906-1.712,1.354c-2.338,0.127-4.699,0.342-7.02,0.639l-0.233,0.03v0.234
			v4.387v0.303l0.302-0.038c1.616-0.209,3.268-0.38,4.91-0.507l0.247-0.019v-0.248v-1.333v-0.19l-0.18-0.062
			c-0.893-0.311-1.793-0.612-2.683-0.899l0.001-0.008c1.481-0.154,2.984-0.277,4.478-0.363v2.567c0,0.412-0.039,0.718-0.124,0.962
			c-0.084,0.244-0.225,0.437-0.419,0.572c-0.132,0.091-0.291,0.164-0.488,0.221c-0.242,0.07-0.543,0.117-0.947,0.147
			c-1.798,0.142-3.616,0.335-5.404,0.575C46.082,16.814,45.847,16.833,45.646,16.833z M72.061,16.743
			c-0.097,0-0.198-0.008-0.301-0.021c-1.59-0.208-3.204-0.377-4.798-0.504c-0.461-0.037-0.782-0.093-1.041-0.18
			c-0.272-0.092-0.482-0.229-0.622-0.407c-0.097-0.122-0.168-0.268-0.219-0.443c-0.065-0.231-0.098-0.51-0.098-0.878V10.29
			c0-0.411,0.04-0.711,0.124-0.943c0.08-0.227,0.215-0.395,0.398-0.499c0.13-0.074,0.284-0.124,0.475-0.153
			c0.136-0.021,0.285-0.03,0.457-0.03c0.145,0,0.302,0.007,0.483,0.022c1.583,0.125,3.187,0.294,4.77,0.5
			c0.557,0.492,1.115,0.992,1.668,1.492c-2.085-0.308-4.196-0.548-6.288-0.718L66.78,9.938v0.29v4.394v0.246l0.245,0.021
			c2.167,0.175,4.354,0.427,6.511,0.751c-0.018,0.059-0.062,0.207-0.163,0.379c-0.168,0.289-0.4,0.496-0.692,0.612
			C72.498,16.705,72.29,16.743,72.061,16.743z M55.193,15.992v-5.851c0.737-0.58,1.497-1.17,2.263-1.754
			c0.606-0.011,1.222-0.018,1.827-0.018c0.954,0,1.92,0.016,2.873,0.044c0.468,0.015,0.828,0.087,1.104,0.225
			c0.272,0.134,0.47,0.349,0.57,0.619c0.072,0.19,0.107,0.409,0.107,0.67v1.789c0,0.386-0.077,0.675-0.235,0.886
			c-0.153,0.204-0.399,0.343-0.73,0.41c-0.186,0.037-0.395,0.055-0.639,0.055c-0.053,0-0.106,0-0.161-0.002
			c-0.955-0.028-1.924-0.043-2.878-0.043c-0.597,0-1.202,0.005-1.798,0.017l-0.263,0.006v0.262v2.62
			C56.559,15.942,55.874,15.963,55.193,15.992z M59.29,11.713c0.728,0,1.463,0.009,2.187,0.025c0.035,0.001,0.068,0.001,0.101,0.001
			c0.13,0,0.234-0.007,0.318-0.022c0.128-0.022,0.22-0.062,0.291-0.122c0.051-0.044,0.089-0.096,0.118-0.161
			c0.039-0.089,0.058-0.2,0.058-0.333v-0.74c0-0.147-0.023-0.271-0.07-0.363c-0.053-0.097-0.108-0.151-0.203-0.202
			c-0.062-0.031-0.135-0.055-0.22-0.07c-0.099-0.021-0.223-0.031-0.379-0.034c-0.729-0.018-1.47-0.025-2.2-0.025
			c-0.594,0-1.198,0.006-1.794,0.017l-0.263,0.005v0.263v1.514v0.271l0.272-0.005C58.099,11.719,58.699,11.713,59.29,11.713z"/>
		<path fill="#FFCA38" d="M59.287,8.104c0.959,0,1.918,0.015,2.877,0.043c0.481,0.015,0.885,0.089,1.214,0.253
			c0.33,0.162,0.577,0.429,0.703,0.766c0.085,0.225,0.124,0.478,0.124,0.763c0,0.596,0,1.192,0,1.789
			c0,0.426-0.087,0.777-0.289,1.046c-0.202,0.271-0.514,0.435-0.893,0.511c-0.207,0.043-0.438,0.062-0.691,0.062
			c-0.056,0-0.111-0.001-0.168-0.003c-0.958-0.028-1.916-0.042-2.875-0.042c-0.597,0-1.192,0.005-1.788,0.017
			c0,0.96,0,1.921,0,2.883c-0.858,0.015-1.718,0.043-2.575,0.082c0-2.087,0-4.173,0-6.259c0.812-0.641,1.625-1.27,2.438-1.89
			C58.005,8.11,58.646,8.104,59.287,8.104 M57.501,11.463c0.596-0.011,1.191-0.017,1.787-0.017c0.731,0,1.463,0.009,2.196,0.025
			c0.03,0,0.061,0,0.09,0c0.112,0,0.205-0.006,0.275-0.018c0.089-0.016,0.136-0.039,0.163-0.062c0.02-0.017,0.033-0.034,0.048-0.066
			c0.02-0.044,0.034-0.117,0.034-0.225c0-0.247,0-0.494,0-0.741c0.001-0.121-0.02-0.198-0.041-0.241
			c-0.023-0.043-0.042-0.062-0.09-0.087c-0.033-0.017-0.081-0.033-0.146-0.045c-0.085-0.017-0.198-0.025-0.334-0.029
			c-0.733-0.017-1.465-0.024-2.196-0.024c-0.596,0-1.191,0.005-1.787,0.017C57.501,10.454,57.501,10.958,57.501,11.463 M56.47,8.155
			c-0.787,0.61-1.575,1.23-2.363,1.86c-0.021,0.017-0.043,0.034-0.064,0.052c-2.366,0.125-4.729,0.339-7.083,0.64
			c0,1.462,0,2.924,0,4.387c1.637-0.213,3.278-0.381,4.923-0.509c0-0.444,0-0.889,0-1.333c-0.969-0.339-1.938-0.663-2.906-0.973
			c0.031-0.144,0.063-0.288,0.095-0.434c1.651-0.176,3.307-0.31,4.963-0.399c0,0.949,0,1.899,0,2.849
			c0,0.416-0.037,0.758-0.139,1.05c-0.1,0.291-0.272,0.533-0.52,0.704c-0.163,0.114-0.353,0.196-0.565,0.259
			c-0.285,0.082-0.614,0.127-1.001,0.158c-1.8,0.14-3.596,0.331-5.388,0.573c-0.289,0.039-0.545,0.061-0.774,0.061
			c-0.114,0-0.223-0.005-0.325-0.018c-0.305-0.036-0.561-0.143-0.742-0.336c-0.12-0.127-0.205-0.288-0.262-0.479
			c-0.077-0.253-0.106-0.558-0.106-0.927c0-1.339,0-2.678,0-4.017c0-0.416,0.037-0.762,0.137-1.063
			c0.099-0.3,0.271-0.56,0.516-0.752c0.162-0.129,0.35-0.228,0.562-0.306c0.283-0.104,0.609-0.174,0.995-0.226
			C49.757,8.527,53.111,8.253,56.47,8.155 M66.437,8.397c0.156,0,0.324,0.008,0.505,0.022c1.624,0.129,3.246,0.3,4.863,0.513
			c0.797,0.704,1.594,1.419,2.389,2.144c-2.373-0.373-4.757-0.655-7.146-0.849c0,1.464,0,2.929,0,4.394
			c2.277,0.184,4.548,0.449,6.811,0.796c-0.02,0.085-0.039,0.17-0.056,0.255c-0.005,0.013-0.05,0.225-0.199,0.479
			c-0.147,0.255-0.4,0.557-0.821,0.728c-0.202,0.081-0.442,0.131-0.722,0.131c-0.106,0-0.219-0.007-0.336-0.022
			c-1.591-0.207-3.187-0.375-4.783-0.502c-0.437-0.036-0.799-0.09-1.106-0.193c-0.307-0.103-0.564-0.264-0.747-0.495
			c-0.121-0.154-0.207-0.333-0.265-0.535c-0.077-0.27-0.106-0.581-0.107-0.951c0-1.34,0-2.68,0-4.021
			c0.001-0.415,0.038-0.754,0.139-1.034c0.1-0.278,0.273-0.501,0.52-0.642c0.163-0.093,0.353-0.151,0.565-0.184
			C66.093,8.408,66.257,8.397,66.437,8.397 M59.287,8.638c-0.577,0-1.16,0.006-1.739,0.016c-0.696,0.532-1.396,1.075-2.088,1.619
			v5.441c0.502-0.02,1.006-0.036,1.507-0.049v-2.358v-0.525l0.524-0.009c0.598-0.012,1.202-0.018,1.798-0.018
			c0.96,0,1.932,0.015,2.891,0.043c0.052,0.003,0.103,0.003,0.152,0.003c0.228,0,0.419-0.017,0.586-0.051
			c0.267-0.054,0.458-0.157,0.571-0.308c0.122-0.163,0.182-0.4,0.182-0.726V9.928c0-0.229-0.029-0.416-0.089-0.572
			c-0.078-0.21-0.229-0.374-0.439-0.477c-0.242-0.12-0.567-0.185-0.996-0.198C61.199,8.652,60.237,8.638,59.287,8.638z
			 M56.967,12.007v-0.544V9.949V9.425l0.524-0.01c0.596-0.012,1.2-0.017,1.797-0.017h0.004c0.73,0,1.473,0.008,2.204,0.024
			c0.171,0.004,0.311,0.017,0.424,0.039c0.106,0.021,0.201,0.051,0.281,0.091l0.007,0.004l0.007,0.003
			c0.14,0.074,0.234,0.168,0.308,0.304l0.004,0.006l0.003,0.006c0.066,0.131,0.101,0.295,0.1,0.487v0.738
			c0.001,0.169-0.026,0.315-0.078,0.436c-0.047,0.107-0.108,0.191-0.189,0.261c-0.112,0.094-0.247,0.152-0.419,0.184
			c-0.101,0.018-0.222,0.026-0.368,0.026c-0.033,0-0.067-0.001-0.104-0.001c-0.723-0.017-1.457-0.025-2.182-0.025
			c-0.589,0-1.187,0.006-1.777,0.017L56.967,12.007z M54.84,8.752c-2.79,0.129-5.59,0.383-8.348,0.755
			c-0.373,0.051-0.653,0.113-0.883,0.197c-0.168,0.062-0.303,0.135-0.414,0.223c-0.158,0.124-0.272,0.292-0.34,0.5
			c-0.075,0.229-0.11,0.514-0.111,0.898v4.016c0,0.334,0.027,0.587,0.084,0.773c0.035,0.116,0.081,0.204,0.141,0.267
			c0.085,0.09,0.225,0.148,0.416,0.171c0.079,0.01,0.167,0.015,0.262,0.015c0.189,0,0.413-0.019,0.703-0.057
			c1.794-0.242,3.616-0.437,5.418-0.576c0.385-0.031,0.669-0.075,0.894-0.14c0.168-0.048,0.302-0.108,0.409-0.184
			c0.147-0.103,0.255-0.25,0.319-0.438c0.075-0.217,0.109-0.495,0.11-0.877v-2.282c-0.979,0.059-1.962,0.134-2.94,0.224
			c0.501,0.167,1.002,0.338,1.499,0.512l0.358,0.124v0.38v1.333v0.495l-0.493,0.037c-1.631,0.127-3.277,0.297-4.896,0.506
			l-0.603,0.078v-0.607v-4.387v-0.47l0.467-0.061c2.298-0.293,4.636-0.507,6.951-0.635C54.174,9.278,54.506,9.014,54.84,8.752z
			 M66.437,8.931c-0.158,0-0.295,0.01-0.417,0.028c-0.156,0.023-0.281,0.062-0.381,0.12c-0.129,0.072-0.223,0.192-0.28,0.355
			c-0.074,0.205-0.108,0.477-0.108,0.857v4.019c0,0.343,0.028,0.598,0.087,0.805c0.041,0.143,0.097,0.257,0.171,0.351
			c0.108,0.138,0.275,0.245,0.496,0.319c0.24,0.08,0.542,0.132,0.98,0.168c1.598,0.126,3.217,0.297,4.81,0.505
			c0.092,0.012,0.182,0.018,0.267,0.018c0.194,0,0.37-0.031,0.521-0.093c0.235-0.095,0.422-0.263,0.561-0.499l0.019-0.031
			c-2.038-0.299-4.105-0.533-6.155-0.699l-0.491-0.04v-0.492v-4.394V9.648l0.577,0.046c1.808,0.146,3.631,0.347,5.437,0.596
			c-0.318-0.285-0.637-0.569-0.954-0.849c-1.547-0.2-3.118-0.365-4.675-0.489C66.725,8.938,66.573,8.931,66.437,8.931z"/>
		<path fill="#FFFFFF" d="M50.73,20.54c0.828-0.697,1.657-1.382,2.486-2.057c-4.256,0.281-8.496,0.857-12.688,1.729
			c-2.02,0.427-2.659,1.102-2.66,3.043v5.457c0.001,1.951,0.641,2.28,2.66,1.854c2.472-0.514,4.961-0.926,7.459-1.234
			c2.043-0.246,2.699-0.79,2.698-2.741v-3.572c-2.202,0.207-4.398,0.493-6.584,0.858c1.369,0.359,2.741,0.752,4.117,1.173v2.308
			c-2.438,0.295-4.865,0.688-7.277,1.178v-6.561C44.181,21.319,47.449,20.842,50.73,20.54z M23.956,25.337
			c-1.723,0.717-3.43,1.489-5.117,2.316c0.851,0.177,1.707,0.367,2.567,0.572v6.321c-1.547,0.699-3.078,1.444-4.593,2.233v-1.627
			c-0.776-0.133-1.55-0.254-2.316-0.363v3.027c0.002,1.948,0.585,2.101,2.451,1.124c1.478-0.768,2.971-1.491,4.479-2.173
			c1.908-0.855,2.531-1.594,2.529-3.542V25.337z M64.097,18.41c-0.845-0.044-1.689-0.076-2.536-0.097v8.391
			c-2.409-0.06-4.821-0.023-7.229,0.105v-7.702c-0.844,0.687-1.688,1.384-2.531,2.093v5.28c0,1.947,0.652,2.376,2.701,2.263
			c2.295-0.118,4.593-0.152,6.891-0.101c2.049,0.053,2.704-0.394,2.704-2.342V18.41z M88.734,29.546
			c1.602,0.544,2.342,0.268,2.343-1.177v-2.423c-0.001-1.439-0.741-2.286-2.343-2.83c-3.748-1.266-7.561-2.283-11.411-3.051
			c0.662,0.73,1.324,1.469,1.983,2.214v8.539c0.937,0.208,1.869,0.432,2.801,0.67v-3.905c0.785,0.2,1.566,0.411,2.346,0.633
			c1.422,1.705,2.836,3.445,4.24,5.222c1.162,0.391,2.319,0.807,3.469,1.247c-1.389-1.833-2.788-3.632-4.193-5.395
			C88.224,29.374,88.479,29.459,88.734,29.546z M82.107,25.682v-2.646c1.857,0.476,3.7,1.009,5.531,1.601
			c0.753,0.245,1.096,0.504,1.096,1.185v1.002c0,0.682-0.344,0.703-1.096,0.46C85.808,26.689,83.965,26.155,82.107,25.682z
			 M101.451,32.534c-2.069-1.068-4.172-2.053-6.299-2.954v-2.223c2.27,0.961,4.509,2.018,6.711,3.169
			c0.692-0.24,1.377-0.471,2.061-0.692c-2.717-1.51-5.493-2.871-8.314-4.084c-1.923-0.819-2.548-0.544-2.546,1.394v1.142
			c-0.002,1.947,0.623,2.675,2.546,3.493c2.123,0.913,4.22,1.91,6.285,2.99v2.363c-2.218-1.162-4.474-2.226-6.76-3.193
			c-0.699,0.352-1.401,0.713-2.105,1.082c2.855,1.126,5.667,2.4,8.422,3.822c1.869,0.973,2.471,0.83,2.473-1.118v-1.422
			C103.922,34.365,103.32,33.506,101.451,32.534z M63.792,28.722c0.925,0.044,1.849,0.104,2.771,0.177
			c1.607-1.875,3.213-3.707,4.812-5.497c0.664,0.817,1.329,1.642,1.991,2.474c-1.187-0.184-2.377-0.344-3.569-0.48
			c0.465,0.674,0.931,1.352,1.395,2.032c0.725,0.094,1.448,0.197,2.17,0.309c0.472,0.725,0.94,1.452,1.411,2.185
			c1.342,0.229,2.68,0.487,4.013,0.775c-2.442-3.97-4.899-7.839-7.366-11.608C68.886,22.192,66.341,25.403,63.792,28.722z
			 M23.656,35.789c0.869-0.365,1.741-0.717,2.618-1.054c1.526-2.769,3.065-5.495,4.615-8.179c0.643,0.7,1.289,1.407,1.936,2.122
			c-1.159,0.348-2.312,0.719-3.459,1.113c0.447,0.467,0.896,0.937,1.346,1.41c1.152-0.377,2.31-0.729,3.473-1.059
			c0.461,0.521,0.923,1.045,1.385,1.574c0.864-0.23,1.73-0.448,2.599-0.652c-2.433-2.869-4.848-5.637-7.237-8.304
			C28.478,26.998,26.051,31.34,23.656,35.789z"/>
		<path fill="#FFCA38" d="M47.944,29.003L47.944,29.003c0.001,0,0.001,0,0.002,0H47.944z M44.047,23.55l-0.029,0.648
			c1.286,0.338,2.576,0.706,3.869,1.101v1.768c-2.214,0.275-4.42,0.631-6.614,1.066v-5.885c3.142-0.626,6.309-1.085,9.487-1.378
			l0.104-0.01l0.079-0.066c0.827-0.696,1.654-1.38,2.483-2.053l0.809-0.658l-1.04,0.069c-4.271,0.282-8.526,0.86-12.733,1.735
			l-0.003,0.001c-0.518,0.109-0.957,0.236-1.333,0.403c-0.281,0.126-0.528,0.276-0.737,0.46c-0.314,0.274-0.536,0.627-0.667,1.043
			c-0.133,0.416-0.185,0.895-0.185,1.46v5.458c0,0.381,0.023,0.71,0.079,0.998c0.02,0.1,0.044,0.192,0.071,0.282
			c-2.186-2.564-4.358-5.052-6.51-7.452l-0.305-0.34l-0.229,0.395c-2.154,3.72-4.287,7.526-6.396,11.409
			c0.027-0.239,0.039-0.496,0.039-0.771v-8.393l-0.458,0.19c-1.729,0.72-3.442,1.495-5.136,2.324l-0.867,0.426l0.946,0.196
			c0.764,0.158,1.531,0.33,2.303,0.512v5.846c-1.322,0.602-2.632,1.237-3.931,1.904v-1.366l-0.275-0.046
			c-0.779-0.134-1.555-0.256-2.325-0.365l-0.378-0.054v3.409h0.331h-0.331c0.002,0.617,0.05,1.078,0.215,1.442
			c0.084,0.182,0.208,0.341,0.374,0.448c0.167,0.107,0.363,0.153,0.56,0.152c0.25,0,0.51-0.064,0.802-0.172
			c0.291-0.107,0.615-0.26,0.983-0.453c0.001,0,0.001,0,0.002,0H17.1h0.001c1.472-0.765,2.96-1.485,4.462-2.165v0.001
			c0.056-0.024,0.105-0.05,0.159-0.074l2.063-0.903c0.865-0.364,1.734-0.713,2.607-1.05l0.114-0.043l0.057-0.106
			c0.885-1.604,1.773-3.19,2.666-4.766c0.414,0.431,0.827,0.864,1.242,1.301l0.145,0.153l0.198-0.066
			c1.082-0.353,2.17-0.684,3.261-0.996c0.414,0.469,0.829,0.94,1.245,1.415l0.136,0.154l0.199-0.053
			c0.86-0.229,1.724-0.446,2.589-0.649l2.165-0.46c0.062-0.012,0.122-0.023,0.188-0.036l0,0h-0.002h0.002c0,0,0,0,0.001,0l0,0
			c2.462-0.513,4.941-0.922,7.43-1.23h-0.001c0.523-0.062,0.967-0.146,1.349-0.271c0.286-0.095,0.539-0.217,0.755-0.378
			c0.327-0.239,0.562-0.572,0.698-0.976s0.188-0.873,0.189-1.441v-3.939l-0.362,0.034C48.445,22.896,46.241,23.184,44.047,23.55z
			 M23.625,33.233c0,0.469-0.037,0.853-0.117,1.173c-0.121,0.48-0.322,0.816-0.667,1.138c-0.346,0.317-0.849,0.609-1.55,0.923
			l-0.002,0.001l0.001-0.001c-1.513,0.685-3.012,1.411-4.494,2.181l-0.002,0.001l0,0c-0.354,0.186-0.657,0.327-0.907,0.419
			c-0.249,0.092-0.444,0.132-0.572,0.131c-0.103-0.001-0.158-0.021-0.2-0.047c-0.032-0.021-0.063-0.051-0.098-0.106
			c-0.052-0.082-0.104-0.225-0.137-0.431c-0.034-0.206-0.052-0.473-0.052-0.797v-2.644c0.549,0.081,1.101,0.168,1.654,0.261v1.893
			l0.483-0.253c1.51-0.786,3.036-1.528,4.577-2.226l0.195-0.088v-6.797l-0.256-0.061c-0.544-0.13-1.087-0.251-1.628-0.37
			c1.246-0.595,2.504-1.16,3.771-1.695V33.233z M35.684,31.347c-0.418-0.478-0.834-0.953-1.251-1.423l-0.138-0.156l-0.201,0.057
			c-1.099,0.312-2.194,0.646-3.284,1c-0.282-0.296-0.562-0.589-0.843-0.883c0.979-0.331,1.965-0.648,2.953-0.946l0.503-0.15
			l-0.353-0.389c-0.647-0.715-1.293-1.423-1.938-2.124L30.827,26l-0.225,0.391c-1.531,2.652-3.052,5.346-4.561,8.08
			c-0.552,0.213-1.101,0.433-1.649,0.657c2.175-4.021,4.374-7.956,6.597-11.803c2.174,2.432,4.367,4.947,6.577,7.545
			C36.938,31.022,36.31,31.181,35.684,31.347z M29.678,29.34c0.424-0.745,0.848-1.486,1.272-2.225
			c0.426,0.464,0.853,0.932,1.279,1.401C31.376,28.778,30.525,29.053,29.678,29.34z M50.354,26.593c0,0.469-0.041,0.84-0.122,1.126
			c-0.061,0.213-0.144,0.38-0.248,0.516c-0.157,0.205-0.373,0.357-0.704,0.484c-0.331,0.126-0.772,0.217-1.332,0.284h-0.003
			c-2.507,0.31-5.004,0.723-7.483,1.239h-0.003c-0.486,0.103-0.883,0.157-1.188,0.157c-0.231,0-0.405-0.031-0.531-0.084
			c-0.094-0.039-0.164-0.088-0.227-0.155c-0.092-0.101-0.172-0.253-0.229-0.493c-0.056-0.238-0.085-0.557-0.085-0.954v-5.457
			c0-0.467,0.04-0.846,0.121-1.148c0.062-0.228,0.144-0.412,0.251-0.57c0.162-0.236,0.382-0.421,0.711-0.585
			c0.327-0.163,0.761-0.298,1.314-0.414c3.833-0.798,7.707-1.344,11.597-1.645c-0.533,0.438-1.065,0.879-1.599,1.326
			c-3.258,0.303-6.503,0.779-9.721,1.43l-0.266,0.054v7.238l0.397-0.08c2.404-0.489,4.823-0.881,7.252-1.175l0.292-0.034v-2.848
			l-0.234-0.072c-0.882-0.271-1.762-0.522-2.64-0.769c1.555-0.232,3.114-0.424,4.678-0.576V26.593z M54.52,29.074
			C54.519,29.074,54.519,29.074,54.52,29.074h-0.003H54.52z M88.298,27.755c0.104,0,0.213-0.015,0.319-0.058
			c0.078-0.031,0.155-0.081,0.218-0.146c0.095-0.096,0.152-0.215,0.185-0.336c0.034-0.122,0.046-0.251,0.048-0.394V25.82
			c-0.002-0.198-0.026-0.381-0.086-0.55c-0.088-0.253-0.265-0.46-0.478-0.604c-0.216-0.147-0.467-0.248-0.764-0.345
			c-1.836-0.595-3.687-1.131-5.55-1.606l-0.415-0.105v3.329l0.249,0.063c1.853,0.474,3.689,1.005,5.513,1.595
			C87.822,27.688,88.06,27.753,88.298,27.755z M82.439,23.466c1.71,0.446,3.41,0.939,5.098,1.485
			c0.359,0.115,0.586,0.231,0.697,0.348c0.058,0.058,0.094,0.115,0.123,0.194c0.026,0.078,0.046,0.185,0.046,0.327v1.002
			c0,0.091-0.009,0.16-0.02,0.203c-0.006,0.033-0.015,0.051-0.02,0.058l-0.001,0.002c-0.003,0.002-0.021,0.008-0.065,0.008
			c-0.099,0.002-0.297-0.041-0.557-0.126c-1.755-0.568-3.523-1.08-5.302-1.54V23.466z M101.602,38.548l0.002,0.002l0,0
			L101.602,38.548z M103.294,33.413c-0.419-0.435-0.972-0.799-1.689-1.173h-0.001c-2.012-1.038-4.054-1.997-6.121-2.878v-1.499
			c2.104,0.903,4.184,1.887,6.229,2.956l0.127,0.066l0.135-0.047c0.688-0.239,1.373-0.469,2.053-0.689l0.725-0.235l-0.665-0.369
			c-2.728-1.516-5.513-2.882-8.347-4.1l0,0c-0.679-0.287-1.21-0.457-1.678-0.461c-0.224,0-0.438,0.043-0.626,0.149
			c-0.142,0.078-0.261,0.189-0.354,0.322c-0.14,0.199-0.221,0.439-0.274,0.716c-0.053,0.276-0.074,0.595-0.074,0.964v1.156
			c0,0.504,0.04,0.939,0.139,1.33c0.143,0.585,0.432,1.065,0.868,1.452c0.437,0.39,1.006,0.695,1.74,1.009h-0.001
			c2.055,0.883,4.085,1.847,6.087,2.888v1.619c-2.072-1.067-4.172-2.055-6.301-2.955l-0.142-0.061l-0.136,0.069
			c-0.701,0.353-1.405,0.714-2.112,1.084l-0.188,0.1l-0.259-0.343c-1.166-1.537-2.337-3.049-3.515-4.536
			c0.397,0.117,0.75,0.187,1.07,0.188c0.217,0,0.423-0.032,0.611-0.109c0.141-0.058,0.269-0.143,0.376-0.25
			c0.162-0.161,0.271-0.37,0.341-0.604c0.068-0.235,0.097-0.5,0.097-0.803v-2.423c0-0.388-0.05-0.747-0.157-1.076
			c-0.159-0.493-0.451-0.915-0.858-1.254s-0.925-0.601-1.55-0.813c-3.762-1.271-7.591-2.291-11.454-3.062l-0.985-0.196l0.675,0.744
			c0.635,0.698,1.268,1.405,1.898,2.118v7.969c-2.411-3.921-4.84-7.745-7.279-11.47l-0.248-0.378l-0.285,0.351
			c-2.283,2.798-4.576,5.688-6.872,8.657c0.096-0.35,0.137-0.753,0.137-1.234v-8.204l-0.313-0.017
			c-0.848-0.045-1.696-0.078-2.545-0.099l-0.34-0.008v8.394c-0.646-0.015-1.292-0.022-1.939-0.022c-1.543,0-3.085,0.04-4.626,0.118
			v-8.052l-0.541,0.439c-0.845,0.688-1.691,1.386-2.536,2.097l-0.117,0.1v5.434c0,0.456,0.034,0.844,0.118,1.18
			c0.064,0.253,0.159,0.478,0.294,0.669c0.202,0.291,0.499,0.493,0.845,0.606c0.349,0.115,0.749,0.155,1.223,0.155
			c0.179,0,0.368-0.006,0.569-0.017l0,0c1.592-0.083,3.185-0.124,4.777-0.124c0.696,0,1.393,0.008,2.089,0.023h-0.001
			c0.105,0.003,0.208,0.005,0.308,0.005c0.47,0,0.869-0.031,1.22-0.116c0.177-0.043,0.341-0.102,0.492-0.179l-0.26,0.337
			l0.632,0.031c0.922,0.045,1.843,0.104,2.763,0.177l0.167,0.014l0.109-0.129c0.957-1.116,1.913-2.215,2.868-3.301
			c0.412,0.598,0.825,1.197,1.236,1.801l0.084,0.122l0.147,0.02c0.673,0.088,1.344,0.184,2.014,0.286
			c0.445,0.683,0.888,1.368,1.33,2.058l0.08,0.123l0.144,0.024c1.336,0.229,2.67,0.486,3.998,0.773l0.26,0.057v0.008l0.261,0.058
			c0.932,0.208,1.862,0.431,2.788,0.667l0.415,0.105v-3.901c0.61,0.158,1.218,0.322,1.826,0.494c1.396,1.678,2.786,3.39,4.169,5.135
			l0.062,0.077l0.092,0.032c1.158,0.391,2.31,0.805,3.455,1.243l0.414,0.157l0.449,0.178c2.847,1.122,5.647,2.392,8.394,3.81
			l-0.001-0.001c0.37,0.192,0.696,0.345,0.99,0.452c0.293,0.107,0.555,0.171,0.808,0.172c0.195,0.001,0.394-0.044,0.559-0.15
			c0.127-0.078,0.229-0.189,0.308-0.314c0.118-0.19,0.186-0.412,0.229-0.67c0.043-0.258,0.062-0.556,0.062-0.902v-1.422
			c0-0.502-0.039-0.943-0.134-1.345C103.982,34.356,103.711,33.848,103.294,33.413z M63.766,26.301c0,0.444-0.036,0.796-0.109,1.06
			c-0.055,0.198-0.126,0.346-0.215,0.461c-0.132,0.17-0.306,0.286-0.589,0.371c-0.282,0.083-0.668,0.124-1.161,0.123
			c-0.093,0-0.189-0.001-0.291-0.004h-0.001c-0.701-0.016-1.401-0.023-2.104-0.023c-1.604,0-3.209,0.041-4.812,0.125h-0.001
			c-0.191,0.01-0.369,0.016-0.534,0.016c-0.386,0.001-0.694-0.032-0.929-0.097c-0.176-0.049-0.31-0.113-0.414-0.193
			c-0.155-0.121-0.267-0.281-0.35-0.549c-0.083-0.266-0.125-0.633-0.125-1.109v-5.125c0.623-0.522,1.246-1.038,1.869-1.549v7.353
			l0.35-0.019c1.646-0.089,3.293-0.133,4.939-0.133c0.755,0,1.509,0.01,2.263,0.027l0.34,0.009v-8.389
			c0.624,0.018,1.249,0.041,1.873,0.071V26.301z M74.974,29.62c-0.443-0.692-0.888-1.38-1.332-2.065L73.56,27.43l-0.146-0.021
			c-0.677-0.104-1.354-0.201-2.03-0.29c-0.299-0.437-0.598-0.87-0.896-1.304c0.944,0.115,1.888,0.242,2.829,0.388l0.839,0.13
			l-0.53-0.664c-0.663-0.832-1.327-1.657-1.993-2.476l-0.245-0.302L71.13,23.18c-0.546,0.61-1.092,1.227-1.638,1.847l-0.382-0.044
			l0.185,0.268c-0.957,1.087-1.915,2.188-2.874,3.306c-0.659-0.051-1.32-0.094-1.981-0.13c2.322-3.013,4.641-5.938,6.95-8.775
			c2.247,3.438,4.485,6.961,6.71,10.566C77.06,30.001,76.019,29.8,74.974,29.62z M70.29,25.122c0.358-0.404,0.716-0.808,1.073-1.208
			c0.406,0.5,0.812,1.006,1.219,1.513C71.818,25.316,71.056,25.214,70.29,25.122z M88.894,33.155
			c-1.387-1.752-2.782-3.468-4.186-5.151l-0.066-0.079l-0.098-0.028c-0.782-0.222-1.567-0.434-2.354-0.635l-0.415-0.104v3.907
			c-0.711-0.179-1.422-0.349-2.137-0.51v-8.4l-0.083-0.095c-0.438-0.493-0.876-0.979-1.313-1.465
			c3.503,0.738,6.971,1.683,10.387,2.836c0.767,0.26,1.293,0.583,1.622,0.978c0.167,0.198,0.288,0.415,0.369,0.667
			c0.082,0.252,0.125,0.539,0.125,0.871v2.423c0,0.229-0.021,0.418-0.056,0.564c-0.028,0.111-0.063,0.197-0.104,0.264
			c-0.06,0.1-0.124,0.157-0.215,0.203c-0.09,0.045-0.216,0.073-0.389,0.073c-0.277,0-0.662-0.078-1.141-0.241
			c-0.257-0.087-0.514-0.173-0.771-0.257l-1.053-0.346l0.691,0.867c1.171,1.468,2.337,2.962,3.496,4.479
			C90.436,33.692,89.667,33.417,88.894,33.155z M103.592,37.725c0.003,0.573-0.062,0.966-0.155,1.157
			c-0.048,0.098-0.091,0.142-0.136,0.17c-0.043,0.027-0.101,0.048-0.204,0.048c-0.131,0.001-0.329-0.039-0.58-0.132
			c-0.251-0.092-0.557-0.233-0.912-0.418h-0.001c-2.549-1.316-5.147-2.505-7.782-3.567c0.443-0.229,0.884-0.456,1.324-0.678
			c2.229,0.948,4.43,1.987,6.596,3.12l0.485,0.253v-3.11l-0.179-0.093c-2.073-1.084-4.178-2.085-6.31-3.001l-0.002-0.001
			l0.002,0.001c-0.471-0.2-0.853-0.393-1.158-0.591c-0.456-0.298-0.734-0.599-0.917-0.989c-0.183-0.392-0.269-0.898-0.269-1.602
			v-1.156c0-0.305,0.015-0.562,0.049-0.767c0.048-0.311,0.136-0.494,0.223-0.585c0.044-0.046,0.088-0.075,0.149-0.099
			c0.06-0.023,0.14-0.039,0.245-0.039c0.293-0.003,0.775,0.132,1.418,0.407h-0.001c2.582,1.11,5.124,2.347,7.618,3.704
			c-0.4,0.135-0.803,0.271-1.205,0.409c-2.171-1.13-4.376-2.169-6.609-3.115l-0.46-0.194V29.8l0.201,0.086
			c2.121,0.897,4.214,1.878,6.277,2.943h-0.001c0.455,0.236,0.827,0.464,1.123,0.694c0.447,0.346,0.725,0.691,0.907,1.119
			c0.18,0.43,0.263,0.958,0.263,1.66V37.725z"/>
		<path fill="#FFFFFF" d="M86.339,55.811l0.681-0.104c-0.661-4.261-2.032-8.518-4.071-12.652c-1.892-3.834-4.361-7.57-7.369-11.151
			l-0.526,0.443l0.682-0.1c-0.806-5.486-2.947-9.346-2.97-9.39l-0.291-0.524l-0.559,0.215c-1.137,0.438-2.459,1.128-3.807,1.929
			c-1.346,0.802-2.711,1.712-3.907,2.587l0.406,0.557L64.6,26.93c-0.852,0.01-1.722,0.053-2.607,0.129
			c-2.954,0.254-6.022,0.864-9.126,1.813c-0.639,0.195-1.273,0.404-1.903,0.625l0.228,0.649l0.148-0.672
			c-1.45-0.321-3.215-0.571-5.198-0.571c-1.364,0-2.831,0.119-4.368,0.414l-0.601,0.116l0.044,0.61
			c0.105,1.439,0.349,2.894,0.736,4.233l0.662-0.191l-0.347-0.595c-2.021,1.178-3.901,2.477-5.58,3.87l-1.338,1.11l0.301,1.713
			c0.082,0.464,0.214,0.902,0.363,1.302l0.645-0.241l-0.465-0.509c-1.71,1.563-3.565,3.427-5.447,5.476l0.507,0.467l-0.496-0.478
			c-0.029,0.03-0.221,0.232-0.415,0.585c-0.193,0.35-0.396,0.86-0.396,1.487c0,0.246,0.031,0.509,0.106,0.778l0.663-0.184
			l-0.437-0.532c-0.537,0.442-0.919,1.012-1.171,1.604c-0.252,0.593-0.377,1.209-0.378,1.786c0,0.026,0,0.051,0.001,0.077
			c0.001,0.05,0.004,0.107,0.008,0.191c0.018,0.311,0.059,0.936,0.112,1.711c0.081,1.162,0.192,2.655,0.294,3.884
			c0.05,0.615,0.099,1.163,0.14,1.576c0.021,0.206,0.04,0.378,0.058,0.513c0.009,0.067,0.018,0.125,0.027,0.181
			c0.005,0.027,0.01,0.055,0.018,0.087c0.004,0.016,0.009,0.034,0.016,0.056c0.007,0.023,0.016,0.05,0.033,0.09V60.09
			c0.226,0.516,0.528,0.978,0.918,1.399c0.391,0.424,0.863,0.808,1.44,1.2l0.388-0.568l-0.614,0.311
			c0.542,1.07,1.401,2.268,2.746,3.352c1.345,1.085,3.169,2.052,5.621,2.686l1.174,0.303l1.057-0.599l-0.001,0.001
			c0.01-0.006,1.718-0.971,4.497-2.131l-0.266-0.636l-0.599-0.341c-0.344,0.604-0.705,1.165-1.061,1.613l-2.185,2.755l3.068,1.719
			c1.872,1.047,4.696,2.692,7.676,4.919c3.328,2.486,6.174,5.194,8.461,8.042l1.635,2.036l2.243-1.343l-0.003,0.001
			c0.283-0.17,3.686-2.219,7.86-5.119c2.087-1.451,4.368-3.116,6.552-4.869c2.182-1.753,4.268-3.595,5.966-5.407l0.489-0.521
			l0.201-0.687l-0.002,0.002c0.057-0.188,0.77-2.7,0.77-6.779c0-1.664-0.119-3.59-0.449-5.723L86.339,55.811l-0.682,0.105
			c0.318,2.061,0.435,3.915,0.435,5.513c0,3.919-0.687,6.3-0.715,6.395l-0.108,0.366l-0.263,0.281
			c-1.633,1.744-3.675,3.55-5.823,5.275c-3.226,2.59-6.69,5.002-9.399,6.795c-2.708,1.792-4.658,2.966-4.859,3.087l-0.001,0.001
			l-1.208,0.723l-0.883-1.099c-2.369-2.951-5.3-5.736-8.711-8.284c-3.053-2.28-5.933-3.958-7.826-5.017l-1.658-0.93l1.181-1.487
			c0.417-0.527,0.811-1.141,1.178-1.786l0.999-1.754l-1.862,0.777c-2.844,1.187-4.601,2.177-4.644,2.201l0,0l-0.574,0.325
			l-0.635-0.163c-2.283-0.592-3.918-1.472-5.1-2.425c-1.183-0.953-1.916-1.984-2.382-2.902l-0.08-0.156l-0.146-0.101
			c-0.523-0.356-0.91-0.678-1.204-0.995c-0.293-0.321-0.499-0.637-0.671-1.023l0,0l-0.516,0.229l0.544-0.148
			c-0.004-0.013-0.007-0.031-0.028-0.08l-0.516,0.229l0.544-0.148l-0.219,0.059l0.223-0.045l-0.004-0.014l-0.219,0.059l0.223-0.045
			c-0.002-0.007-0.012-0.065-0.021-0.144c-0.04-0.3-0.099-0.922-0.161-1.672c-0.095-1.129-0.203-2.563-0.288-3.756
			c-0.043-0.596-0.079-1.132-0.106-1.538c-0.013-0.203-0.023-0.374-0.031-0.503c-0.007-0.128-0.012-0.222-0.012-0.239v-0.05
			c-0.001-0.37,0.088-0.826,0.268-1.247c0.18-0.423,0.447-0.808,0.777-1.077l0.346-0.284l-0.119-0.432
			c-0.041-0.148-0.057-0.284-0.057-0.412c-0.001-0.323,0.107-0.611,0.224-0.821c0.057-0.104,0.115-0.186,0.155-0.238
			c0.02-0.025,0.036-0.044,0.045-0.054l0.008-0.009l-0.048-0.045l0.047,0.045h0.001l-0.048-0.045l0.047,0.045l-0.342-0.321
			l0.338,0.325l0.004-0.004l-0.342-0.321l0.338,0.325l0.006-0.006l0.005-0.006c1.858-2.022,3.688-3.86,5.362-5.39l0.343-0.313
			l-0.163-0.436c-0.126-0.338-0.232-0.698-0.295-1.059l-0.163-0.926l0.723-0.599c1.613-1.339,3.433-2.598,5.394-3.741l0.465-0.271
			l-0.149-0.517c-0.357-1.23-0.589-2.599-0.687-3.949l-0.688,0.05l0.131,0.676c1.443-0.277,2.823-0.389,4.107-0.389
			c1.868,0,3.533,0.235,4.901,0.538l0.19,0.042l0.186-0.064c0.613-0.214,1.231-0.417,1.851-0.607
			c3.019-0.923,5.994-1.514,8.842-1.759c0.853-0.073,1.688-0.113,2.505-0.124l0.221-0.002l0.179-0.13
			c1.16-0.85,2.495-1.739,3.798-2.515c1.303-0.776,2.579-1.438,3.596-1.827l-0.247-0.643l-0.602,0.333l0.199-0.11l-0.199,0.11l0,0
			l0.199-0.11l-0.199,0.11c0.009,0.014,2.054,3.732,2.811,8.922l0.027,0.193l0.127,0.149c2.943,3.505,5.351,7.149,7.188,10.875
			c1.981,4.018,3.307,8.142,3.944,12.253L86.339,55.811z"/>
		<path fill="#4D4A4A" d="M86.339,55.811c-0.65-4.187-1.998-8.376-4.008-12.452c-1.864-3.78-4.305-7.47-7.278-11.013
			c-0.785-5.358-2.892-9.155-2.892-9.155c-2.152,0.826-5.196,2.705-7.554,4.429c-0.834,0.01-1.687,0.051-2.557,0.125
			c-2.9,0.25-5.922,0.851-8.982,1.787c-0.63,0.192-1.257,0.398-1.878,0.615c-2.378-0.526-5.63-0.856-9.288-0.152
			c0.102,1.396,0.34,2.806,0.712,4.092c-1.991,1.161-3.84,2.439-5.487,3.806l-1.03,0.854l0.232,1.319
			c0.072,0.412,0.191,0.812,0.329,1.18c-1.692,1.546-3.534,3.396-5.405,5.434c0,0-0.887,0.923-0.537,2.189
			c-0.887,0.728-1.316,1.965-1.296,2.921c0.01,0.495,0.525,7.751,0.646,8.023c0.398,0.9,1.018,1.558,2.117,2.309
			c1.007,1.986,3.189,4.456,7.925,5.682l0.905,0.233l0.814-0.463c0.026-0.015,1.758-0.993,4.569-2.166
			c-0.356,0.626-0.732,1.213-1.119,1.7l-1.683,2.122l2.363,1.323c1.883,1.054,4.734,2.716,7.751,4.968
			c3.369,2.518,6.258,5.264,8.586,8.163l1.259,1.567l1.725-1.032c0.551-0.331,13.564-8.163,20.231-15.276l0.376-0.4l0.153-0.527
			C86.096,67.815,87.46,63.048,86.339,55.811z"/>
		<path fill="#FFCA38" d="M81.808,63.141c0.804-0.105,1.93,0.435,2.565,0.79c0.06-0.717,0.101-1.535,0.101-2.444
			c-0.374,0.025-0.851-0.074-1.477-0.497c-1.118-0.756-0.654-3.055,0.039-3.703c0.256-0.239,0.711-0.409,1.111-0.521
			c-0.113-0.82-0.26-1.679-0.449-2.572c-0.81,0.757-2.103,1.584-3.384,1.271c-1.794-0.439-2.12-2.799-1.484-3.718
			c0.412-0.596,1.47-0.491,2.605-1.115c0.489-0.268,0.812-0.629,1.025-0.954c-0.383-1.129-0.832-2.293-1.355-3.488
			c-0.304,0.19-0.623,0.456-0.903,0.678c-0.53,0.42-0.612,1.077-1.411,1.071c-1.278-0.01-2.381-1.651-2.335-3.141
			c0.044-1.363,1.334-2.554,2.339-3.161c-0.982-1.701-2.125-3.444-3.454-5.221c-0.015,2.026-0.275,4.171-0.913,6.346
			c-2.418-5.28-6.856-9.513-12.804-12.659c-0.83,0.087-1.666,0.203-2.506,0.346c0.244,0.661,0.333,1.45,0.027,2.229
			c-0.234,0.597-3.02,1.62-3.76,1.317c-0.562-0.228-1.112-1.361-1.284-2.365c-5.783,1.719-11.36,4.603-15.502,8.038
			c0.184,1.048,0.903,2.139,0.903,2.139c-2.058,1.763-4.316,4.001-6.552,6.434c1.41-0.082,2.225,0.251,2.225,0.251
			c2.806-1.329,5.837-1.59,7.051-1.64c0.348-0.016,0.192,0.16,0.013,0.26c-1.5,0.842-3.087,2.312-4.287,3.557h0.001
			c0.03,0.018,0.061,0.035,0.091,0.053c0.033,0.019,0.066,0.037,0.101,0.056c0.032,0.018,0.064,0.035,0.097,0.052
			c0.036,0.02,0.074,0.038,0.111,0.058c0.048,0.024,0.097,0.049,0.146,0.072c0.035,0.017,0.069,0.033,0.105,0.05
			c0.033,0.017,0.067,0.031,0.102,0.046c0.033,0.015,0.065,0.029,0.099,0.044c0.052,0.021,0.103,0.043,0.154,0.064
			c0.037,0.015,0.075,0.03,0.113,0.046c0.037,0.014,0.072,0.027,0.108,0.04c0.031,0.012,0.062,0.023,0.093,0.034
			c0.036,0.013,0.072,0.026,0.109,0.039c0.056,0.02,0.112,0.037,0.168,0.056c0.039,0.012,0.077,0.023,0.115,0.035
			c0.029,0.009,0.059,0.018,0.089,0.025c0.038,0.011,0.077,0.023,0.117,0.034c0.028,0.008,0.059,0.016,0.087,0.022
			c0.068,0.019,0.136,0.035,0.204,0.052c0.028,0.007,0.056,0.014,0.083,0.02c0.042,0.01,0.083,0.019,0.125,0.028
			c0.026,0.005,0.054,0.011,0.081,0.016c0.037,0.009,0.074,0.016,0.112,0.023c0.09-0.217,0.706-0.161,1.074-0.126
			c8.704,0.837,21.149-8.583,34.025-2.428l0.004,0.003c0.097,0.046,0.193,0.093,0.29,0.141l0.03,0.014
			c0.104,0.054,0.211,0.106,0.316,0.161v0.001c0.405,2.999,0.222,6.434-0.652,10.215c1.463-0.578,2.519-1.705,3.199-1.277
			c0.882,0.556,0.941,3.316-1.395,4.991c-1.483,1.063-2.673,1.626-3.519,1.866c-0.541,1.426-1.173,2.89-1.898,4.385
			c1.108-0.266,2.595-0.477,2.986,0.321c0.473,0.962-0.025,2.637-1.633,3.799c-0.848,0.614-1.096-0.175-2.534,0.171
			c-0.548,0.132-1.032,0.338-1.446,0.569c-1.507,2.529-3.271,5.135-5.315,7.802c0.233-0.142,13.225-7.952,19.698-14.84
			c-0.696-0.294-1.429-0.81-1.942-0.879c-0.838-0.114-1.895,1.578-2.634,1.982c-0.427,0.235-1.957,0.074-1.828-1.309
			C77.605,64.878,80.411,63.326,81.808,63.141z M44.578,36.869c0.435-0.702,4.455-2.559,6.59-1.824
			c0.349,0.121,0.792,1.249,0.263,2.175c-0.385,0.672-1.821,0.477-3.291,0.968c-1.275,0.428-1.827,1.162-2.594,0.981
			C45.063,39.057,44.142,37.57,44.578,36.869z M47.972,43.644c-0.034,0.013-0.063,0.003-0.086-0.018h-0.001
			c-0.76-0.758-1.91-1.425-2.411-1.645c-0.171-0.076-0.05-0.27,0.166-0.198c0.216,0.069,2.133,0.896,3.647-0.116
			c1.98-1.963,4.726-4.116,7.74-5.18c0.146-0.053,0.306-0.043,0.091,0.143c-0.369,0.322-0.796,1.01-1.123,1.774
			c0.676,0.229,1.309,0.581,1.604,0.965c-1.161,0.77-2.784,1.947-4.429,3.467C53.171,42.836,50.321,42.828,47.972,43.644z
			 M60.101,45.922c-0.927,0.241-3.219-1.552-2.766-2.461c0.281-0.564,0.78-0.807,1.064-1.256c0.438-0.69,0.166-1.085,0.829-1.575
			c0.415-0.307,2.73,0.352,3.011,2.19C62.411,43.938,60.814,45.736,60.101,45.922z M62.564,38.621
			c-0.487-0.434-0.595-0.999-0.967-1.405c-0.572-0.623-1.041-0.46-1.352-1.255c-0.193-0.497,1.093-2.636,3.007-2.417
			c1.165,0.133,2.53,2.215,2.522,2.979C65.765,37.517,63.351,39.32,62.564,38.621z M70.756,45.297
			c-0.809,0.244-1.803-0.987-3.335-1.698c-1.331-0.617-2.32-0.448-2.793-1.165c-0.298-0.451,0.086-2.321,0.956-2.552
			c0.87-0.229,6.008,1.102,6.592,3.493C72.326,43.989,71.869,44.959,70.756,45.297z M32.026,50.819
			c-0.232,0.27-0.309,0.566-0.301,0.923c0.007,0.334,0.018,0.797,0.036,1.336c0.598-0.738,1.543-1.566,2.553-2.195
			c-0.301-0.485-0.567-0.979-0.784-1.407C33.103,49.818,32.478,50.344,32.026,50.819z"/>
		<path fill="#FFFFFF" d="M70.396,33.197c0.868-3.178,1.131-6.005,1.241-7.924c-1.433,0.692-3.224,1.759-5.02,3.002
			c-1.716,1.187-2.835,2.112-3.45,2.688c0.948,0.559,1.854,1.146,2.713,1.765C66.886,32.73,68.524,32.81,70.396,33.197z
			 M34.784,53.987c-0.199-1.049-0.251-1.999-0.252-2.768c-0.074-0.111-0.146-0.225-0.218-0.337c-1.01,0.629-1.955,1.457-2.553,2.195
			c0.054,1.527,0.162,3.665,0.391,5.229c0.063,0.231,0.209,0.429,0.553-0.119c0.383-0.638,1.055-1.651,2.005-2.689
			C35.016,55.083,34.854,54.385,34.784,53.987z M42.913,53.614c9.292,1.113,18.289-8.323,31.751-0.672
			c0.329-0.617,0.615-1.201,0.87-1.751c-13.312-7.288-24.21,2.392-33.322,1.358c-0.454-0.052-1.412-0.318-1.625-0.735
			c-0.039-0.076-0.044-0.137-0.023-0.184c-0.919-0.175-1.791-0.485-2.611-0.965c-0.306,0.318-0.588,0.621-0.836,0.896
			c0.018,0.643,0.076,1.385,0.219,2.187c0.103,0.439,0.444,1.282,1.289,1.736c0.211,0.104,0.42,0.206,0.625,0.304
			c9.019,4.271,12.562,1.534,17.11,0.382c1.104-0.279,0.66,0.254,0.012,0.766c-0.649,0.512-7.739,6.575-20.088,0.378
			c-0.862,0.622-2.283,2.147-2.173,3.494c0.786,1.745,2.605,3.734,6.574,4.761c0,0,14.942-8.529,29.684-6.085l0.021,0.012
			l0.006-0.007c0.088-0.115,0.177-0.229,0.264-0.343c0.021-0.028,0.043-0.057,0.064-0.085c0.072-0.096,0.145-0.19,0.216-0.286
			c0.016-0.021,0.033-0.043,0.05-0.065c0.086-0.116,0.17-0.229,0.254-0.344l0.04-0.055c0.07-0.096,0.14-0.192,0.209-0.287
			c0.021-0.03,0.041-0.058,0.061-0.086l0.012-0.016c-13.295-7.977-16.925-0.212-25.72-0.988c-0.467-0.041-1.649-0.324-2.077-0.824
			c-0.43-0.501,0.473-0.355,0.943-0.305c9.189,0.988,14.477-7.495,27.962,0.5c0.372-0.57,0.718-1.124,1.036-1.658
			c-13.533-7.889-20.636,1.155-29.974,0.05c-0.467-0.054-1.425-0.258-1.78-0.723C41.599,53.51,42.452,53.559,42.913,53.614z
			 M53.065,42.837c0.068-0.001,0.105-0.001,0.105-0.001c0.55-0.508,1.097-0.978,1.625-1.407c0.078-0.263,0.116-0.552,0.105-0.854
			c-0.009-0.219-0.043-0.43-0.099-0.627c-0.29,0.118-0.588,0.242-0.891,0.372c0.022,0.093,0.036,0.19,0.04,0.291
			c0.025,0.662-0.387,1.215-0.921,1.234c-0.406,0.016-0.764-0.279-0.925-0.712c-0.208,0.099-0.416,0.199-0.624,0.303
			C51.74,42.229,52.354,42.793,53.065,42.837z"/>
	</g>
	<text transform="matrix(1 0 0 1 2.8447 106)" display="none" fill="#F5F5F5" font-family="'OpenSans-Bold'" font-size="18">Campus Life</text>
</g>
<g id="paying_for_college" display="none">
	<g display="inline">
		<text transform="matrix(1 0 0 1 32.5093 75.3218)" fill="#EECE57" font-family="'Signika-Bold'" font-size="94.8809">S</text>
		<rect x="48" y="1.5" fill="#EECE57" width="8" height="82"/>
		<rect x="61" y="1.5" fill="#EECE57" width="8" height="82"/>
	</g>
	<text transform="matrix(1 0 0 1 -25.082 106)" display="inline" fill="#F5F5F5" font-family="'OpenSans-Bold'" font-size="18">Paying For College</text>
</g>
<g id="tech_tips" display="none">
	<g display="inline">
		<path fill="#E4E9D6" d="M116,68.311c0,7.284-5.893,13.189-13.178,13.189h-91.98C3.558,81.5-2,75.595-2,68.311V33.689
			C-2,26.405,3.558,20.5,10.842,20.5h91.98c7.285,0,13.178,5.905,13.178,13.189V68.311z"/>
		<rect x="22" y="27.5" fill="#EECE57" width="72" height="49"/>
		<circle fill="#EECE57" cx="106.088" cy="50.94" r="5.862"/>
		<path fill="#EECE57" d="M13.155,34.5c1.146,0,0.845,0.706,0.845,1.484v30.004c0,0.778,0.301,1.512-0.845,1.512h-0.246
			C11.763,67.5,11,66.767,11,65.988V35.984c0-0.778,0.763-1.484,1.909-1.484H13.155z"/>
	</g>
	<text transform="matrix(1 0 0 1 -16.7847 106)" fill="#F5F5F5" font-family="'OpenSans-Bold'" font-size="18">Technology Tips</text>
</g>
<g id="personal_success" display="none">
	<g display="inline">
		<path fill="#EECE57" d="M89,81.64c0,2.132-1.729,3.86-3.86,3.86H31.86c-2.132,0-3.86-1.729-3.86-3.86V3.36
			c0-2.132,1.729-3.86,3.86-3.86H85.14C87.271-0.5,89,1.229,89,3.36V81.64z"/>
		<g>
			<rect x="36" y="50.5" fill="#E4E9D6" width="43" height="3"/>
			<rect x="36" y="58.5" fill="#E4E9D6" width="43" height="3"/>
			<rect x="36" y="66.5" fill="#E4E9D6" width="43" height="3"/>
			<rect x="36" y="74.5" fill="#E4E9D6" width="43" height="3"/>
		</g>
		<g>
			<circle fill="none" stroke="#3A3A3A" stroke-width="2.3831" stroke-miterlimit="10" cx="58.5" cy="24.667" r="17.5"/>
			<text transform="matrix(1 0 0 1 48.4365 30.916)" fill="#3A3A3A" font-family="'Signika-Bold'" font-size="19.1749">A+</text>
		</g>
		<path fill="#E4E9D6" d="M28,7.5c0,0-2.125-10.938,8-8v8H28z"/>
	</g>
	<text transform="matrix(1 0 0 1 -19.6865 106)" fill="#F5F5F5" font-family="'OpenSans-Bold'" font-size="18">Personal Success</text>
</g>
<g id="safety_x26_security" display="none">
	<g display="inline">
		<path fill="none" stroke="#E4E9D6" stroke-width="8" stroke-miterlimit="10" d="M42,46.5V13.248c0,0,18-18.435,36,0V46.5"/>
		<circle fill="#3B3B3B" stroke="#EECE57" stroke-width="4.7269" stroke-miterlimit="10" cx="59.334" cy="56.736" r="25.053"/>
		<circle fill="#E4E9D6" cx="59.334" cy="56.736" r="10.082"/>
		<circle fill="#E4E9D6" cx="58.882" cy="39.25" r="1.583"/>
		<circle fill="#E4E9D6" cx="58.882" cy="74.25" r="1.583"/>
		<circle fill="#E4E9D6" cx="76.382" cy="56.75" r="1.583"/>
		<circle fill="#E4E9D6" cx="41.382" cy="56.75" r="1.583"/>
		<circle fill="#E4E9D6" cx="71.256" cy="44.375" r="1.584"/>
		<circle fill="#E4E9D6" cx="46.507" cy="69.124" r="1.583"/>
		<circle fill="#E4E9D6" cx="46.508" cy="44.375" r="1.584"/>
		<circle fill="#E4E9D6" cx="71.256" cy="69.125" r="1.583"/>
	</g>
	<text transform="matrix(1 0 0 1 -20.1318 106)" fill="#F5F5F5" font-family="'OpenSans-Bold'" font-size="18">Safety &amp; Security</text>
</g>
</svg>
