<?xml version="1.0" encoding="utf-8"?>
<!-- Generator: Adobe Illustrator 16.0.0, SVG Export Plug-In . SVG Version: 6.00 Build 0)  -->
<!DOCTYPE svg PUBLIC "-//W3C//DTD SVG 1.1//EN" "http://www.w3.org/Graphics/SVG/1.1/DTD/svg11.dtd">
<svg version="1.1" xmlns="http://www.w3.org/2000/svg" xmlns:xlink="http://www.w3.org/1999/xlink" x="0px" y="0px" width="244px"
	 height="89px" viewBox="0 0 244 89" enable-background="new 0 0 244 89" xml:space="preserve">
<g id="Miltary_Outreach" display="none">
	
		<rect x="41.5" y="30.5" display="inline" fill="#E4E9D6" stroke="#3B3B3B" stroke-width="5" stroke-miterlimit="10" width="157" height="26"/>
	<circle display="inline" fill="#3B3B3B" cx="120.056" cy="42.5" r="40.5"/>
	<polygon display="inline" fill="#EECE57" stroke="#E4E9D6" stroke-width="3" stroke-miterlimit="10" points="120.056,7.248 
		130.219,27.842 152.944,31.143 136.5,47.173 140.382,69.807 120.056,59.12 99.729,69.807 103.61,47.173 87.166,31.143 
		109.893,27.842 	"/>
</g>
<g id="Academic_Success" display="none">
	<linearGradient id="SVGID_1_" gradientUnits="userSpaceOnUse" x1="87" y1="52.7998" x2="159" y2="52.7998">
		<stop  offset="0" style="stop-color:#333333"/>
		<stop  offset="1" style="stop-color:#252525"/>
	</linearGradient>
	<path display="inline" fill="url(#SVGID_1_)" stroke="#E4E9D6" stroke-width="2" stroke-miterlimit="10" d="M87,36v25l0,0
		c0,0,33,20,72-1V36H87z"/>
	<linearGradient id="SVGID_2_" gradientUnits="userSpaceOnUse" x1="65.3975" y1="29.1318" x2="181.5117" y2="29.1318">
		<stop  offset="0" style="stop-color:#333333"/>
		<stop  offset="1" style="stop-color:#252525"/>
	</linearGradient>
	<polygon display="inline" fill="url(#SVGID_2_)" stroke="#E4E9D6" stroke-width="1.5" stroke-miterlimit="10" points="123.652,4.5 
		65.397,26.764 123.652,53.764 181.512,26.764 	"/>
	<polygon display="inline" fill="#EECE57" points="157,80 153,80 153,42.848 120.886,31.492 122.332,27.693 157,40.004 	"/>
	<circle display="inline" fill="#EECE57" cx="154.744" cy="69.54" r="4.874"/>
	<polygon display="inline" fill="#EECE57" points="149.417,86 155.021,76.293 160.626,86 	"/>
</g>
<g id="GPC_College_Online" display="none">
	<rect x="61" y="4" display="inline" fill="#E4E9D6" width="123" height="18"/>
	<rect x="43" y="40" display="inline" fill="#3B3B3B" width="9" height="36"/>
	<rect x="193" y="40" display="inline" fill="#3B3B3B" width="9" height="36"/>
	<rect x="162" y="40" display="inline" fill="#3B3B3B" width="9" height="36"/>
	<rect x="132" y="40" display="inline" fill="#3B3B3B" width="9" height="36"/>
	<rect x="103" y="40" display="inline" fill="#3B3B3B" width="9" height="36"/>
	<rect x="76" y="40" display="inline" fill="#3B3B3B" width="9" height="36"/>
	<rect x="43" y="22" display="inline" fill="#E4E9D6" width="159" height="18"/>
	<rect x="43" y="22" display="inline" fill="#EECE57" width="159" height="4"/>
	<rect x="61" y="4" display="inline" fill="#BDCCD4" width="123" height="4"/>
	<rect x="43" y="76" display="inline" fill="#E4E9D6" width="159" height="9"/>
</g>
<g id="Campus_Life" display="none">
	
		<circle display="inline" fill="none" stroke="#E4E9D6" stroke-width="3" stroke-miterlimit="10" cx="77.121" cy="61.568" r="20.307"/>
	
		<circle display="inline" fill="none" stroke="#BDCCD4" stroke-width="2.723" stroke-miterlimit="10" cx="77.121" cy="61.568" r="18.432"/>
	
		<circle display="inline" fill="none" stroke="#BDCCD4" stroke-width="2.723" stroke-miterlimit="10" cx="158.121" cy="61.568" r="18.432"/>
	
		<circle display="inline" fill="none" stroke="#E4E9D6" stroke-width="3" stroke-miterlimit="10" cx="158.121" cy="61.568" r="20.307"/>
	<polyline display="inline" fill="none" stroke="#EECE57" stroke-width="3" stroke-miterlimit="10" points="76.853,61.437 
		106.9,20.938 99.5,12.566 107.122,7.5 118,7.5 	"/>
	<polyline display="inline" fill="none" stroke="#EECE57" stroke-width="3" stroke-miterlimit="10" points="97.428,32.312 
		136.938,34.25 157.775,61 	"/>
	<polyline display="inline" fill="none" stroke="#EECE57" stroke-width="3" stroke-miterlimit="10" points="158.122,60.937 
		126.278,66.512 92.515,38.134 	"/>
	<circle display="inline" fill="#3B3B3B" cx="77.121" cy="60.937" r="4.63"/>
	<circle display="inline" fill="#3B3B3B" cx="158.121" cy="60.937" r="4.63"/>
	<polyline display="inline" fill="none" stroke="#EECE57" stroke-width="3" stroke-miterlimit="10" points="125.231,66.875 
		138.438,33.875 146.126,23.938 	"/>
	
		<circle display="inline" fill="#E4E9D6" stroke="#3B3B3B" stroke-width="1.5" stroke-miterlimit="10" cx="125.121" cy="66.937" r="4.63"/>
	<path display="inline" fill="#E4E9D6" d="M136.625,22.625c-1.031-0.938,13.375,0,13.375,0v2.977
		C150,25.602,141.582,27.131,136.625,22.625z"/>
</g>
<g id="paying_for_college">
	<path fill="#E4E9D6" d="M181,74.125c0,2.029-1.313,3.875-3.34,3.875H65.079C63.051,78,61,76.153,61,74.125V14.163
		C61,12.135,63.051,10,65.079,10H177.66c2.026,0,3.34,2.135,3.34,4.163V74.125z"/>
	<rect x="61" y="19" fill="#3B3B3B" width="120" height="10"/>
	<rect x="68" y="37" fill="#BDCCD4" width="58" height="2"/>
	<rect x="130" y="37" fill="#BDCCD4" width="21" height="16"/>
	<rect x="68" y="42" fill="#EECE57" width="58" height="2"/>
	<rect x="68" y="46" fill="#BDCCD4" width="58" height="2"/>
	<rect x="93" y="61" fill="#EECE57" width="16" height="2"/>
	<rect x="93" y="68" fill="#BDCCD4" width="16" height="3"/>
	<rect x="68" y="51" fill="#EECE57" width="58" height="2"/>
	<path fill="#BDCCD4" d="M90,69.329C90,71.356,88.356,73,86.329,73H71.671C69.644,73,68,71.356,68,69.329v-4.657
		C68,62.644,69.644,61,71.671,61h14.657C88.356,61,90,62.644,90,64.671V69.329z"/>
</g>
<g id="tech_help" display="none">
	<path display="inline" fill="#E4E9D6" d="M181,59.811C181,67.095,175.454,73,168.169,73h-91.98C68.905,73,63,67.095,63,59.811
		V25.189C63,17.905,68.905,12,76.189,12h91.98C175.454,12,181,17.905,181,25.189V59.811z"/>
	<rect x="87" y="19" display="inline" fill="#EECE57" width="72" height="49"/>
	<circle display="inline" fill="#EECE57" cx="171.435" cy="42.44" r="5.862"/>
	<path display="inline" fill="#EECE57" d="M78.502,26C79.648,26,79,26.706,79,27.484v30.004C79,58.267,79.648,59,78.502,59h-0.246
		C77.11,59,76,58.267,76,57.488V27.484C76,26.706,77.11,26,78.256,26H78.502z"/>
</g>
<g id="student_success" display="none">
	<path display="inline" fill="#252525" d="M161,79.553c0,3.561-2.71,6.447-5.92,6.447h-53.271C98.599,86,96,83.113,96,79.553V8.633
		C96,5.072,98.599,2,101.809,2h53.271c3.21,0,5.92,3.072,5.92,6.633V79.553z"/>
	<path display="inline" fill="#3B3B3B" d="M161,80.592c0,2.987-2.421,5.408-5.408,5.408h-49.184c-2.987,0-5.408-2.421-5.408-5.408
		V21.408c0-2.987,2.421-5.408,5.408-5.408h49.184c2.987,0,5.408,2.421,5.408,5.408V80.592z"/>
	<path display="inline" fill="#EECE57" d="M105.137,15.888c0.209-0.025,0.56,0.112,0.777,0.112h49.57
		c2.986,0,5.516,2.122,5.516,5.108v59.484c0,2.986-2.529,5.408-5.516,5.408H105"/>
	<path display="inline" fill="#E4E9D6" d="M158.188,11.5c0,2.489-1.926,4.5-4.305,4.5h-49.072c-2.378,0-4.305-2.011-4.305-4.5l0,0
		c0-2.489,1.927-4.5,4.305-4.5h49.072C156.262,7,158.188,9.011,158.188,11.5L158.188,11.5z"/>
	<rect x="112" y="36" display="inline" fill="#E4E9D6" width="38" height="9"/>
	<rect x="112" y="51" display="inline" fill="#E4E9D6" width="38" height="4"/>
	<rect x="112" y="60" display="inline" fill="#E4E9D6" width="21" height="4"/>
	<path display="inline" fill="#BDCCD4" d="M130.699,50.851"/>
</g>
<g id="safety_x26_security" display="none">
	<path display="inline" fill="none" stroke="#E4E9D6" stroke-width="8" stroke-miterlimit="10" d="M105,48V14.748
		c0,0,18-18.435,36,0V48"/>
	
		<circle display="inline" fill="#3B3B3B" stroke="#EECE57" stroke-width="4.7269" stroke-miterlimit="10" cx="122.202" cy="58.236" r="25.053"/>
	<circle display="inline" fill="#E4E9D6" cx="122.202" cy="58.236" r="10.082"/>
	<circle display="inline" fill="#E4E9D6" cx="121.75" cy="40.75" r="1.583"/>
	<circle display="inline" fill="#E4E9D6" cx="121.75" cy="75.75" r="1.583"/>
	<circle display="inline" fill="#E4E9D6" cx="139.25" cy="58.25" r="1.583"/>
	<circle display="inline" fill="#E4E9D6" cx="104.25" cy="58.25" r="1.583"/>
	<circle display="inline" fill="#E4E9D6" cx="134.124" cy="45.875" r="1.584"/>
	<circle display="inline" fill="#E4E9D6" cx="109.375" cy="70.624" r="1.583"/>
	<circle display="inline" fill="#E4E9D6" cx="109.376" cy="45.875" r="1.584"/>
	<circle display="inline" fill="#E4E9D6" cx="134.125" cy="70.625" r="1.583"/>
</g>
</svg>
